Roboto Serif Micro-Regular.ufo
<glyph name="asterisk" format="2">
  <advance width="536"/>
  <unicode hex="002A"/>
  <outline>
    <contour>
      <point x="83" y="384" type="line"/>
      <point x="142" y="419"/>
      <point x="173" y="465"/>
      <point x="242" y="505" type="curve"/>
      <point x="224" y="537" type="line"/>
      <point x="155" y="497"/>
      <point x="99" y="493"/>
      <point x="40" y="459" type="curve"/>
    </contour>
    <contour>
      <point x="225" y="780" type="line"/>
      <point x="225" y="711"/>
      <point x="250" y="661"/>
      <point x="250" y="581" type="curve"/>
      <point x="286" y="581" type="line"/>
      <point x="286" y="661"/>
      <point x="311" y="711"/>
      <point x="311" y="780" type="curve"/>
    </contour>
    <contour>
      <point x="40" y="623" type="line"/>
      <point x="99" y="589"/>
      <point x="155" y="585"/>
      <point x="224" y="545" type="curve"/>
      <point x="242" y="577" type="line"/>
      <point x="173" y="617"/>
      <point x="142" y="663"/>
      <point x="83" y="698" type="curve"/>
    </contour>
    <contour>
      <point x="225" y="302" type="curve"/>
      <point x="311" y="302" type="line"/>
      <point x="311" y="371"/>
      <point x="286" y="421"/>
      <point x="286" y="501" type="curve"/>
      <point x="250" y="501" type="line"/>
      <point x="250" y="421"/>
      <point x="225" y="371"/>
    </contour>
    <contour>
      <point x="312" y="545" type="line"/>
      <point x="381" y="585"/>
      <point x="437" y="589"/>
      <point x="496" y="623" type="curve"/>
      <point x="453" y="698" type="line"/>
      <point x="394" y="663"/>
      <point x="363" y="617"/>
      <point x="294" y="577" type="curve"/>
    </contour>
    <contour>
      <point x="453" y="384" type="curve"/>
      <point x="496" y="459" type="line"/>
      <point x="437" y="493"/>
      <point x="381" y="497"/>
      <point x="312" y="537" type="curve"/>
      <point x="294" y="505" type="line"/>
      <point x="363" y="465"/>
      <point x="394" y="419"/>
    </contour>
  </outline>
</glyph>
<glyph name="comma" format="2">
  <advance width="339"/>
  <unicode hex="002C"/>
  <outline>
    <contour>
      <point x="118" y="-183" type="line"/>
      <point x="227" y="-129"/>
      <point x="269" y="-66"/>
      <point x="269" y="42" type="curve" smooth="yes"/>
      <point x="269" y="120"/>
      <point x="230" y="154"/>
      <point x="172" y="154" type="curve" smooth="yes"/>
      <point x="118" y="154"/>
      <point x="82" y="122"/>
      <point x="82" y="75" type="curve" smooth="yes"/>
      <point x="82" y="30"/>
      <point x="115" y="5"/>
      <point x="158" y="5" type="curve" smooth="yes"/>
      <point x="187" y="5"/>
      <point x="211" y="16"/>
      <point x="214" y="50" type="curve"/>
      <point x="212" y="50"/>
      <point x="206" y="40"/>
      <point x="206" y="29" type="curve"/>
      <point x="206" y="-56"/>
      <point x="168" y="-92"/>
      <point x="50" y="-126" type="curve"/>
    </contour>
  </outline>
</glyph>
<glyph name="hyphen" format="2">
  <advance width="495"/>
  <unicode hex="002D"/>
  <outline>
    <contour>
      <point x="85" y="333" type="line"/>
      <point x="85" y="258" type="line"/>
      <point x="410" y="258" type="line"/>
      <point x="410" y="333" type="line"/>
    </contour>
  </outline>
</glyph>
<glyph name="zero" format="2">
  <advance width="560"/>
  <unicode hex="0030"/>
  <outline>
    <contour>
      <point x="280" y="-11" type="curve" smooth="yes"/>
      <point x="424.4" y="-11"/>
      <point x="513" y="102.6"/>
      <point x="513" y="336.2" type="curve" smooth="yes"/>
      <point x="513" y="569.8"/>
      <point x="424.4" y="683.4"/>
      <point x="280" y="683.4" type="curve" smooth="yes"/>
      <point x="135.6" y="683.4"/>
      <point x="47" y="570"/>
      <point x="47" y="336" type="curve" smooth="yes"/>
      <point x="47" y="103"/>
      <point x="135.6" y="-11"/>
    </contour>
    <contour>
      <point x="280" y="47" type="curve" smooth="yes"/>
      <point x="177.2" y="47"/>
      <point x="143" y="133"/>
      <point x="143" y="336" type="curve" smooth="yes"/>
      <point x="143" y="539"/>
      <point x="177.2" y="625.4"/>
      <point x="280" y="625.4" type="curve" smooth="yes"/>
      <point x="382.8" y="625.4"/>
      <point x="417" y="539.2"/>
      <point x="417" y="336.2" type="curve" smooth="yes"/>
      <point x="417" y="133.2"/>
      <point x="382.8" y="47"/>
    </contour>
  </outline>
</glyph>
<glyph name="one" format="2">
  <advance width="560"/>
  <unicode hex="0031"/>
  <outline>
    <contour>
      <point x="351.8" y="93.4" type="curve" smooth="yes"/>
      <point x="351.8" y="667.4" type="line"/>
      <point x="290.6" y="667.4" type="line"/>
      <point x="255" y="598"/>
      <point x="185.6" y="576"/>
      <point x="78" y="573.4" type="curve"/>
      <point x="78" y="502.8" type="line"/>
      <point x="177.6" y="502.4"/>
      <point x="258.6" y="537.2"/>
      <point x="275.2" y="611.2" type="curve"/>
      <point x="260.6" y="598.4" type="line"/>
      <point x="260.6" y="93.4" type="line" smooth="yes"/>
      <point x="260.6" y="64.4"/>
      <point x="220.6" y="57.4"/>
      <point x="155.6" y="57.4" type="curve" smooth="yes"/>
      <point x="98" y="57.4" type="line"/>
      <point x="98" y="0" type="line"/>
      <point x="506" y="0" type="line"/>
      <point x="506" y="57.4" type="line"/>
      <point x="466.8" y="57.4" type="line" smooth="yes"/>
      <point x="395.8" y="57.4"/>
      <point x="351.8" y="64.4"/>
    </contour>
  </outline>
</glyph>
<glyph name="four" format="2">
  <advance width="560"/>
  <unicode hex="0034"/>
  <outline>
    <contour>
      <point x="43.2" y="145.8" type="line"/>
      <point x="544.6" y="145.8" type="line"/>
      <point x="544.6" y="212.8" type="line"/>
      <point x="72.2" y="212.8" type="line"/>
      <point x="83.2" y="176.8" type="line"/>
      <point x="353.4" y="640.4" type="line"/>
      <point x="370.2" y="667.4" type="line"/>
      <point x="300.2" y="667.4" type="line"/>
      <point x="43.2" y="224.8" type="line"/>
    </contour>
    <contour>
      <point x="432.4" y="-49.8" type="line"/>
      <point x="432.4" y="667.4" type="line"/>
      <point x="343.2" y="667.4" type="line"/>
      <point x="345" y="655.4" type="line"/>
      <point x="345" y="-49.8" type="line"/>
    </contour>
  </outline>
</glyph>
<glyph name="six" format="2">
  <advance width="560"/>
  <unicode hex="0036"/>
  <outline>
    <contour>
      <point x="467.4" y="681.2" type="line"/>
      <point x="250" y="655.2"/>
      <point x="142.8" y="574.4"/>
      <point x="142.8" y="295" type="curve" smooth="yes"/>
      <point x="142.8" y="105"/>
      <point x="192.2" y="50"/>
      <point x="292.4" y="50" type="curve" smooth="yes"/>
      <point x="387.8" y="50"/>
      <point x="424" y="128"/>
      <point x="424" y="240.6" type="curve" smooth="yes"/>
      <point x="424" y="340.6"/>
      <point x="403.8" y="408"/>
      <point x="305" y="408" type="curve" smooth="yes"/>
      <point x="220.8" y="408"/>
      <point x="179.6" y="361.6"/>
      <point x="122.8" y="246.6" type="curve"/>
      <point x="117.8" y="292.6" type="line"/>
      <point x="164.2" y="399.6"/>
      <point x="220.2" y="468"/>
      <point x="322.4" y="468" type="curve" smooth="yes"/>
      <point x="449" y="468"/>
      <point x="520" y="381.6"/>
      <point x="520" y="240.6" type="curve" smooth="yes"/>
      <point x="520" y="97"/>
      <point x="437.4" y="-10"/>
      <point x="293" y="-10" type="curve" smooth="yes"/>
      <point x="142.6" y="-10"/>
      <point x="50" y="76"/>
      <point x="50" y="295" type="curve" smooth="yes"/>
      <point x="50" y="587.2"/>
      <point x="192.4" y="711.4"/>
      <point x="458" y="740" type="curve"/>
    </contour>
  </outline>
</glyph>
<glyph name="eight" format="2">
  <advance width="560"/>
  <unicode hex="0038"/>
  <outline>
    <contour>
      <point x="280" y="50" type="curve" smooth="yes"/>
      <point x="185" y="50"/>
      <point x="135" y="97"/>
      <point x="135" y="199" type="curve" smooth="yes"/>
      <point x="135" y="306"/>
      <point x="185" y="350"/>
      <point x="280" y="350" type="curve" smooth="yes"/>
      <point x="375" y="350"/>
      <point x="425" y="306"/>
      <point x="425" y="199" type="curve" smooth="yes"/>
      <point x="425" y="97"/>
      <point x="375" y="50"/>
    </contour>
    <contour>
      <point x="280" y="408" type="curve" smooth="yes"/>
      <point x="203" y="408"/>
      <point x="165" y="452"/>
      <point x="165" y="538" type="curve" smooth="yes"/>
      <point x="165" y="627"/>
      <point x="203" y="667"/>
      <point x="280" y="667" type="curve" smooth="yes"/>
      <point x="357" y="667"/>
      <point x="395" y="627"/>
      <point x="395" y="538" type="curve" smooth="yes"/>
      <point x="395" y="452"/>
      <point x="357" y="408"/>
    </contour>
    <contour>
      <point x="280" y="727" type="curve" smooth="yes"/>
      <point x="148" y="727"/>
      <point x="75" y="660"/>
      <point x="75" y="548" type="curve" smooth="yes"/>
      <point x="75" y="447"/>
      <point x="140" y="387"/>
      <point x="241" y="375" type="curve"/>
      <point x="194" y="396" type="line"/>
      <point x="194" y="368" type="line"/>
      <point x="241" y="389" type="line"/>
      <point x="121" y="375"/>
      <point x="37" y="302"/>
      <point x="37" y="193" type="curve" smooth="yes"/>
      <point x="37" y="69"/>
      <point x="126" y="-10"/>
      <point x="280" y="-10" type="curve" smooth="yes"/>
      <point x="434" y="-10"/>
      <point x="523" y="69"/>
      <point x="523" y="193" type="curve" smooth="yes"/>
      <point x="523" y="302"/>
      <point x="440" y="375"/>
      <point x="320" y="389" type="curve"/>
      <point x="366" y="368" type="line"/>
      <point x="366" y="396" type="line"/>
      <point x="320" y="375" type="line"/>
      <point x="421" y="387"/>
      <point x="485" y="447"/>
      <point x="485" y="548" type="curve" smooth="yes"/>
      <point x="485" y="660"/>
      <point x="412" y="727"/>
    </contour>
  </outline>
</glyph>
<glyph name="nine" format="2">
  <advance width="560"/>
  <unicode hex="0039"/>
  <outline>
    <contour>
      <point x="99.6" y="-7.8" type="line"/>
      <point x="320" y="18.2"/>
      <point x="427.2" y="95"/>
      <point x="427.2" y="378.4" type="curve" smooth="yes"/>
      <point x="427.2" y="570"/>
      <point x="379.8" y="623.4"/>
      <point x="280" y="623.4" type="curve" smooth="yes"/>
      <point x="184.2" y="623.4"/>
      <point x="146" y="552.8"/>
      <point x="146" y="442.2" type="curve" smooth="yes"/>
      <point x="146" y="346"/>
      <point x="167.8" y="275.8"/>
      <point x="267" y="275.8" type="curve" smooth="yes"/>
      <point x="350.8" y="275.8"/>
      <point x="390.4" y="322.2"/>
      <point x="447.2" y="437.2" type="curve"/>
      <point x="452.2" y="391.2" type="line"/>
      <point x="405.8" y="284.2"/>
      <point x="352.2" y="215.8"/>
      <point x="250.8" y="215.8" type="curve" smooth="yes"/>
      <point x="123.4" y="215.8"/>
      <point x="50" y="305"/>
      <point x="50" y="442.2" type="curve" smooth="yes"/>
      <point x="50" y="583.8"/>
      <point x="134.6" y="683.4"/>
      <point x="279.4" y="683.4" type="curve" smooth="yes"/>
      <point x="429.4" y="683.4"/>
      <point x="520" y="599"/>
      <point x="520" y="378.4" type="curve" smooth="yes"/>
      <point x="520" y="83.8"/>
      <point x="377.6" y="-38"/>
      <point x="109" y="-66.6" type="curve"/>
    </contour>
  </outline>
</glyph>
<glyph name="less" format="2">
  <advance width="560"/>
  <unicode hex="003C"/>
  <outline>
    <contour>
      <point x="485" y="566" type="line"/>
      <point x="75" y="377" type="line"/>
      <point x="75" y="336" type="line"/>
      <point x="95" y="316" type="line"/>
      <point x="485" y="491" type="line"/>
    </contour>
    <contour>
      <point x="485" y="186" type="line"/>
      <point x="96" y="361" type="line"/>
      <point x="75" y="344" type="line"/>
      <point x="75" y="293" type="line"/>
      <point x="485" y="104" type="line"/>
    </contour>
  </outline>
</glyph>
<glyph name="question" format="2">
  <advance width="573"/>
  <unicode hex="003F"/>
  <guideline x="200" y="204" angle="90"/>
  <guideline x="274" y="191" angle="90"/>
  <outline>
    <contour>
      <point x="206" y="412" type="line"/>
      <point x="332" y="428"/>
      <point x="416" y="450"/>
      <point x="416" y="578" type="curve" smooth="yes"/>
      <point x="416" y="667"/>
      <point x="363" y="702"/>
      <point x="273" y="702" type="curve" smooth="yes"/>
      <point x="182" y="702"/>
      <point x="118" y="676"/>
      <point x="93" y="653" type="curve"/>
      <point x="91" y="669"/>
      <point x="103" y="701"/>
      <point x="148" y="704" type="curve"/>
      <point x="148" y="553" type="line"/>
      <point x="60" y="553" type="line"/>
      <point x="60" y="705" type="line"/>
      <point x="89" y="722"/>
      <point x="177" y="762"/>
      <point x="275" y="762" type="curve" smooth="yes"/>
      <point x="420" y="762"/>
      <point x="508" y="701"/>
      <point x="508" y="578" type="curve" smooth="yes"/>
      <point x="508" y="441"/>
      <point x="398" y="385"/>
      <point x="292" y="367" type="curve"/>
      <point x="292" y="248" type="line"/>
      <point x="206" y="248" type="line"/>
    </contour>
    <component base="period" xOffset="95" yOffset="-1"/>
  </outline>
</glyph>
<glyph name="at" format="2">
  <advance width="995"/>
  <unicode hex="0040"/>
  <outline>
    <contour>
      <point x="492" y="-103" type="curve" smooth="yes"/>
      <point x="264" y="-103"/>
      <point x="140" y="0"/>
      <point x="140" y="226" type="curve" smooth="yes"/>
      <point x="140" y="476"/>
      <point x="300" y="623"/>
      <point x="544" y="623" type="curve" smooth="yes"/>
      <point x="759" y="623"/>
      <point x="855" y="537"/>
      <point x="855" y="352" type="curve" smooth="yes"/>
      <point x="855" y="165"/>
      <point x="809" y="101"/>
      <point x="712" y="101" type="curve" smooth="yes"/>
      <point x="653" y="101"/>
      <point x="648" y="122"/>
      <point x="658" y="179" type="curve" smooth="yes"/>
      <point x="708" y="468" type="line"/>
      <point x="664" y="468" type="line"/>
      <point x="613" y="372" type="line"/>
      <point x="610" y="381" type="line"/>
      <point x="571" y="151" type="line"/>
      <point x="576" y="155" type="line"/>
      <point x="600" y="105"/>
      <point x="633" y="55"/>
      <point x="712" y="55" type="curve" smooth="yes"/>
      <point x="833" y="55"/>
      <point x="920" y="146"/>
      <point x="920" y="352" type="curve" smooth="yes"/>
      <point x="920" y="572"/>
      <point x="788" y="678"/>
      <point x="544" y="678" type="curve" smooth="yes"/>
      <point x="269" y="678"/>
      <point x="75" y="512"/>
      <point x="75" y="226" type="curve" smooth="yes"/>
      <point x="75" y="-36"/>
      <point x="233" y="-158"/>
      <point x="492" y="-158" type="curve" smooth="yes"/>
      <point x="598" y="-158"/>
      <point x="714" y="-131"/>
      <point x="771" y="-105" type="curve"/>
      <point x="752" y="-53" type="line"/>
      <point x="695" y="-78"/>
      <point x="595" y="-103"/>
    </contour>
    <contour>
      <point x="450" y="49" type="curve" smooth="yes"/>
      <point x="534" y="49"/>
      <point x="558" y="85"/>
      <point x="608" y="180" type="curve"/>
      <point x="582" y="184" type="line"/>
      <point x="555" y="138"/>
      <point x="527" y="99"/>
      <point x="473" y="99" type="curve" smooth="yes"/>
      <point x="405" y="99"/>
      <point x="393" y="125"/>
      <point x="393" y="208" type="curve" smooth="yes"/>
      <point x="393" y="330"/>
      <point x="419" y="424"/>
      <point x="521" y="424" type="curve" smooth="yes"/>
      <point x="579" y="424"/>
      <point x="607" y="380"/>
      <point x="628" y="296" type="curve"/>
      <point x="644" y="331" type="line"/>
      <point x="623" y="417"/>
      <point x="590" y="474"/>
      <point x="511" y="474" type="curve" smooth="yes"/>
      <point x="383" y="474"/>
      <point x="308" y="356"/>
      <point x="308" y="219" type="curve" smooth="yes"/>
      <point x="308" y="96"/>
      <point x="372" y="49"/>
    </contour>
  </outline>
</glyph>
<glyph name="B" format="2">
  <advance width="723"/>
  <unicode hex="0042"/>
  <outline>
    <contour>
      <point x="402" y="710" type="curve" smooth="yes"/>
      <point x="60" y="710" type="line"/>
      <point x="60" y="648" type="line"/>
      <point x="71" y="648" type="line" smooth="yes"/>
      <point x="120" y="648"/>
      <point x="156" y="641"/>
      <point x="156" y="612" type="curve" smooth="yes"/>
      <point x="156" y="98" type="line" smooth="yes"/>
      <point x="156" y="69"/>
      <point x="120" y="62"/>
      <point x="71" y="62" type="curve" smooth="yes"/>
      <point x="60" y="62" type="line"/>
      <point x="60" y="0" type="line"/>
      <point x="412" y="0" type="line" smooth="yes"/>
      <point x="566" y="0"/>
      <point x="653" y="66"/>
      <point x="653" y="199" type="curve" smooth="yes"/>
      <point x="653" y="303"/>
      <point x="576" y="364"/>
      <point x="431" y="371" type="curve"/>
      <point x="441" y="351" type="line"/>
      <point x="441" y="392" type="line"/>
      <point x="431" y="375" type="line"/>
      <point x="559" y="374"/>
      <point x="622" y="442"/>
      <point x="622" y="530" type="curve" smooth="yes"/>
      <point x="622" y="650"/>
      <point x="544" y="710"/>
    </contour>
    <contour>
      <point x="207" y="402" type="line"/>
      <point x="207" y="342" type="line"/>
      <point x="398" y="342" type="line" smooth="yes"/>
      <point x="507" y="342"/>
      <point x="555" y="293"/>
      <point x="555" y="200" type="curve" smooth="yes"/>
      <point x="555" y="111"/>
      <point x="511" y="62"/>
      <point x="409" y="62" type="curve"/>
      <point x="249" y="62" type="line"/>
      <point x="249" y="648" type="line"/>
      <point x="399" y="648" type="line"/>
      <point x="490" y="648"/>
      <point x="526" y="605"/>
      <point x="526" y="529" type="curve" smooth="yes"/>
      <point x="526" y="442"/>
      <point x="488" y="402"/>
      <point x="398" y="402" type="curve" smooth="yes"/>
    </contour>
  </outline>
</glyph>
<glyph name="F" format="2">
  <advance width="690"/>
  <unicode hex="0046"/>
  <outline>
    <contour>
      <point x="249" y="648" type="line"/>
      <point x="423" y="648" type="line" smooth="yes"/>
      <point x="509" y="648"/>
      <point x="543" y="639"/>
      <point x="548" y="603" type="curve" smooth="yes"/>
      <point x="561" y="504" type="line"/>
      <point x="625" y="504" type="line"/>
      <point x="625" y="710" type="line"/>
      <point x="60" y="710" type="line"/>
      <point x="60" y="648" type="line"/>
      <point x="71" y="648" type="line" smooth="yes"/>
      <point x="120" y="648"/>
      <point x="156" y="641"/>
      <point x="156" y="612" type="curve" smooth="yes"/>
      <point x="156" y="98" type="line" smooth="yes"/>
      <point x="156" y="69"/>
      <point x="120" y="62"/>
      <point x="71" y="62" type="curve" smooth="yes"/>
      <point x="60" y="62" type="line"/>
      <point x="60" y="0" type="line"/>
      <point x="364" y="0" type="line"/>
      <point x="364" y="62" type="line"/>
      <point x="344" y="62" type="line" smooth="yes"/>
      <point x="296" y="62"/>
      <point x="249" y="65"/>
      <point x="249" y="72" type="curve" smooth="yes"/>
    </contour>
    <contour>
      <point x="232" y="384" type="curve"/>
      <point x="232" y="326" type="line"/>
      <point x="329" y="321"/>
      <point x="427" y="316"/>
      <point x="524" y="311" type="curve"/>
      <point x="524" y="399" type="line"/>
      <point x="427" y="394"/>
      <point x="329" y="389"/>
    </contour>
  </outline>
</glyph>
<glyph name="G" format="2">
  <advance width="846"/>
  <unicode hex="0047"/>
  <outline>
    <contour>
      <point x="712" y="237" type="line" smooth="yes"/>
      <point x="712" y="270"/>
      <point x="738" y="277"/>
      <point x="787" y="277" type="curve" smooth="yes"/>
      <point x="812" y="277" type="line"/>
      <point x="812" y="339" type="line"/>
      <point x="495" y="339" type="line"/>
      <point x="495" y="277" type="line"/>
      <point x="526" y="277" type="line" smooth="yes"/>
      <point x="578" y="277"/>
      <point x="622" y="270"/>
      <point x="622" y="237" type="curve" smooth="yes"/>
      <point x="622" y="114" type="line"/>
      <point x="599" y="89"/>
      <point x="545" y="39"/>
      <point x="416" y="39" type="curve" smooth="yes"/>
      <point x="254" y="39"/>
      <point x="162" y="134"/>
      <point x="162" y="355" type="curve" smooth="yes"/>
      <point x="162" y="576"/>
      <point x="254" y="671"/>
      <point x="410" y="671" type="curve" smooth="yes"/>
      <point x="527" y="671"/>
      <point x="610" y="596"/>
      <point x="645" y="486" type="curve"/>
      <point x="718" y="486" type="line"/>
      <point x="718" y="720" type="line"/>
      <point x="648" y="720" type="line"/>
      <point x="636" y="577" type="line"/>
      <point x="657" y="526" type="line"/>
      <point x="637" y="661"/>
      <point x="542" y="735"/>
      <point x="409" y="735" type="curve" smooth="yes"/>
      <point x="214" y="735"/>
      <point x="62" y="607"/>
      <point x="62" y="355" type="curve" smooth="yes"/>
      <point x="62" y="104"/>
      <point x="200" y="-25"/>
      <point x="416" y="-25" type="curve" smooth="yes"/>
      <point x="566" y="-25"/>
      <point x="673" y="52"/>
      <point x="712" y="104" type="curve"/>
    </contour>
  </outline>
</glyph>
<glyph name="J" format="2">
  <advance width="672"/>
  <unicode hex="004A"/>
  <outline>
    <contour>
      <point x="317" y="710" type="line"/>
      <point x="317" y="648" type="line"/>
      <point x="341" y="648" type="line" smooth="yes"/>
      <point x="390" y="648"/>
      <point x="426" y="641"/>
      <point x="426" y="612" type="curve" smooth="yes"/>
      <point x="426" y="209" type="line" smooth="yes"/>
      <point x="426" y="68"/>
      <point x="373" y="37"/>
      <point x="275" y="37" type="curve"/>
      <point x="202" y="37"/>
      <point x="156" y="67"/>
      <point x="128" y="91" type="curve"/>
      <point x="99" y="100"/>
      <point x="111" y="70"/>
      <point x="160" y="56" type="curve"/>
      <point x="160" y="226" type="line"/>
      <point x="55" y="226" type="line"/>
      <point x="55" y="54" type="line"/>
      <point x="90" y="24"/>
      <point x="159" y="-25"/>
      <point x="275" y="-25" type="curve"/>
      <point x="421" y="-25"/>
      <point x="519" y="40"/>
      <point x="519" y="209" type="curve" smooth="yes"/>
      <point x="519" y="612" type="line" smooth="yes"/>
      <point x="519" y="641"/>
      <point x="555" y="648"/>
      <point x="604" y="648" type="curve" smooth="yes"/>
      <point x="624" y="648" type="line"/>
      <point x="624" y="710" type="line"/>
    </contour>
  </outline>
</glyph>
<glyph name="M" format="2">
  <advance width="1004"/>
  <unicode hex="004D"/>
  <guideline x="0" y="670" angle="0" identifier="u87yihaeQt"/>
  <outline>
    <contour>
      <point x="62" y="0" type="line"/>
      <point x="304" y="0" type="line"/>
      <point x="304" y="62" type="line"/>
      <point x="300" y="62" type="line" smooth="yes"/>
      <point x="277" y="62"/>
      <point x="228" y="65"/>
      <point x="228" y="72" type="curve" smooth="yes"/>
      <point x="228" y="699" type="line"/>
      <point x="218" y="701" type="line"/>
      <point x="458" y="-2" type="line"/>
      <point x="524" y="-2" type="line"/>
      <point x="764" y="702" type="line"/>
      <point x="755" y="691" type="line"/>
      <point x="755" y="72" type="line" smooth="yes"/>
      <point x="755" y="65"/>
      <point x="706" y="62"/>
      <point x="678" y="62" type="curve" smooth="yes"/>
      <point x="669" y="62" type="line"/>
      <point x="669" y="0" type="line"/>
      <point x="942" y="0" type="line"/>
      <point x="942" y="62" type="line"/>
      <point x="931" y="62" type="line" smooth="yes"/>
      <point x="882" y="62"/>
      <point x="846" y="69"/>
      <point x="846" y="98" type="curve" smooth="yes"/>
      <point x="846" y="612" type="line" smooth="yes"/>
      <point x="846" y="641"/>
      <point x="882" y="648"/>
      <point x="931" y="648" type="curve" smooth="yes"/>
      <point x="942" y="648" type="line"/>
      <point x="942" y="710" type="line"/>
      <point x="699" y="710" type="line"/>
      <point x="496" y="88" type="line"/>
      <point x="510" y="95" type="line"/>
      <point x="312" y="710" type="line"/>
      <point x="62" y="710" type="line"/>
      <point x="62" y="648" type="line"/>
      <point x="73" y="648" type="line" smooth="yes"/>
      <point x="122" y="648"/>
      <point x="158" y="641"/>
      <point x="158" y="612" type="curve" smooth="yes"/>
      <point x="158" y="98" type="line" smooth="yes"/>
      <point x="158" y="69"/>
      <point x="122" y="62"/>
      <point x="73" y="62" type="curve" smooth="yes"/>
      <point x="62" y="62" type="line"/>
    </contour>
  </outline>
</glyph>
<glyph name="S" format="2">
  <advance width="671"/>
  <unicode hex="0053"/>
  <outline>
    <contour>
      <point x="374" y="37" type="curve" smooth="yes"/>
      <point x="246" y="37"/>
      <point x="168" y="93"/>
      <point x="140" y="239" type="curve"/>
      <point x="68" y="239" type="line"/>
      <point x="68" y="-10" type="line"/>
      <point x="138" y="-10" type="line"/>
      <point x="147" y="147" type="line"/>
      <point x="130" y="200" type="line"/>
      <point x="141" y="29"/>
      <point x="236" y="-25"/>
      <point x="374" y="-25" type="curve" smooth="yes"/>
      <point x="517" y="-25"/>
      <point x="619" y="35"/>
      <point x="619" y="189" type="curve" smooth="yes"/>
      <point x="619" y="342"/>
      <point x="489" y="375"/>
      <point x="374" y="404" type="curve" smooth="yes"/>
      <point x="255" y="435"/>
      <point x="170" y="446"/>
      <point x="170" y="553" type="curve" smooth="yes"/>
      <point x="170" y="631"/>
      <point x="202" y="675"/>
      <point x="311" y="675" type="curve" smooth="yes"/>
      <point x="419" y="675"/>
      <point x="482" y="616"/>
      <point x="511" y="498" type="curve"/>
      <point x="581" y="498" type="line"/>
      <point x="581" y="720" type="line"/>
      <point x="514" y="720" type="line"/>
      <point x="504" y="587" type="line"/>
      <point x="517" y="538" type="line"/>
      <point x="505" y="682"/>
      <point x="432" y="735"/>
      <point x="311" y="735" type="curve" smooth="yes"/>
      <point x="160" y="735"/>
      <point x="86" y="663"/>
      <point x="86" y="545" type="curve" smooth="yes"/>
      <point x="86" y="387"/>
      <point x="191" y="359"/>
      <point x="318" y="328" type="curve" smooth="yes"/>
      <point x="421" y="303"/>
      <point x="530" y="282"/>
      <point x="530" y="168" type="curve" smooth="yes"/>
      <point x="530" y="68"/>
      <point x="486" y="37"/>
    </contour>
  </outline>
</glyph>
<glyph name="T" format="2">
  <advance width="739"/>
  <unicode hex="0054"/>
  <outline>
    <contour>
      <point x="323" y="98" type="line" smooth="yes"/>
      <point x="323" y="69"/>
      <point x="282" y="62"/>
      <point x="233" y="62" type="curve" smooth="yes"/>
      <point x="213" y="62" type="line"/>
      <point x="213" y="0" type="line"/>
      <point x="526" y="0" type="line"/>
      <point x="526" y="62" type="line"/>
      <point x="506" y="62" type="line" smooth="yes"/>
      <point x="457" y="62"/>
      <point x="416" y="69"/>
      <point x="416" y="98" type="curve" smooth="yes"/>
      <point x="416" y="648" type="line"/>
      <point x="472" y="648" type="line" smooth="yes"/>
      <point x="568" y="648"/>
      <point x="603" y="631"/>
      <point x="607" y="595" type="curve" smooth="yes"/>
      <point x="620" y="469" type="line"/>
      <point x="684" y="469" type="line"/>
      <point x="684" y="710" type="line"/>
      <point x="55" y="710" type="line"/>
      <point x="55" y="469" type="line"/>
      <point x="119" y="469" type="line"/>
      <point x="132" y="595" type="line" smooth="yes"/>
      <point x="136" y="631"/>
      <point x="171" y="648"/>
      <point x="267" y="648" type="curve" smooth="yes"/>
      <point x="323" y="648" type="line"/>
    </contour>
  </outline>
</glyph>
<glyph name="U" format="2">
  <advance width="834"/>
  <unicode hex="0055"/>
  <guideline x="0" y="268" angle="0"/>
  <outline>
    <contour>
      <point x="241" y="256" type="curve" smooth="yes"/>
      <point x="241" y="638" type="line" smooth="yes"/>
      <point x="241" y="645"/>
      <point x="290" y="648"/>
      <point x="328" y="648" type="curve" smooth="yes"/>
      <point x="337" y="648" type="line"/>
      <point x="337" y="710" type="line"/>
      <point x="52" y="710" type="line"/>
      <point x="52" y="648" type="line"/>
      <point x="63" y="648" type="line" smooth="yes"/>
      <point x="112" y="648"/>
      <point x="148" y="641"/>
      <point x="148" y="612" type="curve" smooth="yes"/>
      <point x="148" y="256" type="line" smooth="yes"/>
      <point x="148" y="56"/>
      <point x="264" y="-25"/>
      <point x="421" y="-25" type="curve" smooth="yes"/>
      <point x="568" y="-25"/>
      <point x="686" y="55"/>
      <point x="686" y="256" type="curve" smooth="yes"/>
      <point x="686" y="603" type="line" smooth="yes"/>
      <point x="686" y="637"/>
      <point x="722" y="648"/>
      <point x="771" y="648" type="curve" smooth="yes"/>
      <point x="782" y="648" type="line"/>
      <point x="782" y="710" type="line"/>
      <point x="520" y="710" type="line"/>
      <point x="520" y="648" type="line"/>
      <point x="529" y="648" type="line" smooth="yes"/>
      <point x="567" y="648"/>
      <point x="616" y="641"/>
      <point x="616" y="629" type="curve" smooth="yes"/>
      <point x="616" y="256" type="line" smooth="yes"/>
      <point x="616" y="101"/>
      <point x="537" y="49"/>
      <point x="429" y="49" type="curve" smooth="yes"/>
      <point x="320" y="49"/>
      <point x="241" y="101"/>
    </contour>
  </outline>
</glyph>
<glyph name="X" format="2">
  <advance width="772"/>
  <unicode hex="0058"/>
  <guideline x="-11" y="65" angle="90" identifier="LQZFKfDRdy"/>
  <guideline x="722" y="84" angle="90" identifier="hhs4fHEACY"/>
  <outline>
    <contour>
      <point x="44" y="648" type="line"/>
      <point x="59" y="648" type="line" smooth="yes"/>
      <point x="96" y="648"/>
      <point x="117" y="645"/>
      <point x="140" y="614" type="curve" smooth="yes"/>
      <point x="345" y="341" type="line"/>
      <point x="354" y="338" type="line"/>
      <point x="553" y="72" type="line"/>
      <point x="553" y="65"/>
      <point x="507" y="62"/>
      <point x="471" y="62" type="curve" smooth="yes"/>
      <point x="454" y="62" type="line"/>
      <point x="454" y="0" type="line"/>
      <point x="742" y="0" type="line"/>
      <point x="742" y="62" type="line"/>
      <point x="721" y="62" type="line" smooth="yes"/>
      <point x="684" y="62"/>
      <point x="664" y="66"/>
      <point x="641" y="96" type="curve" smooth="yes"/>
      <point x="422" y="389" type="line"/>
      <point x="413" y="391" type="line"/>
      <point x="227" y="639" type="line"/>
      <point x="227" y="645"/>
      <point x="273" y="648"/>
      <point x="309" y="648" type="curve" smooth="yes"/>
      <point x="326" y="648" type="line"/>
      <point x="326" y="710" type="line"/>
      <point x="44" y="710" type="line"/>
    </contour>
    <contour>
      <point x="30" y="0" type="line"/>
      <point x="292" y="0" type="line"/>
      <point x="292" y="62" type="line"/>
      <point x="273" y="62" type="line" smooth="yes"/>
      <point x="236" y="62"/>
      <point x="192" y="70"/>
      <point x="192" y="79" type="curve"/>
      <point x="377" y="334" type="line"/>
      <point x="335" y="379" type="line"/>
      <point x="136" y="108" type="line" smooth="yes"/>
      <point x="109" y="71"/>
      <point x="86" y="62"/>
      <point x="50" y="62" type="curve" smooth="yes"/>
      <point x="30" y="62" type="line"/>
    </contour>
    <contour>
      <point x="434" y="355" type="line"/>
      <point x="623" y="603" type="line" smooth="yes"/>
      <point x="651" y="640"/>
      <point x="675" y="648"/>
      <point x="712" y="648" type="curve" smooth="yes"/>
      <point x="727" y="648" type="line"/>
      <point x="727" y="710" type="line"/>
      <point x="469" y="710" type="line"/>
      <point x="469" y="648" type="line"/>
      <point x="484" y="648" type="line" smooth="yes"/>
      <point x="521" y="648"/>
      <point x="567" y="641"/>
      <point x="567" y="631" type="curve"/>
      <point x="391" y="397" type="line"/>
    </contour>
  </outline>
</glyph>
<glyph name="Y" format="2">
  <advance width="722"/>
  <unicode hex="0059"/>
  <outline>
    <contour>
      <point x="318" y="309" type="line"/>
      <point x="318" y="98" type="line" smooth="yes"/>
      <point x="318" y="69"/>
      <point x="281" y="62"/>
      <point x="230" y="62" type="curve" smooth="yes"/>
      <point x="209" y="62" type="line"/>
      <point x="209" y="0" type="line"/>
      <point x="520" y="0" type="line"/>
      <point x="520" y="62" type="line"/>
      <point x="499" y="62" type="line" smooth="yes"/>
      <point x="448" y="62"/>
      <point x="411" y="69"/>
      <point x="411" y="98" type="curve" smooth="yes"/>
      <point x="411" y="309" type="line"/>
      <point x="404" y="263" type="line"/>
      <point x="602" y="601" type="line" smooth="yes"/>
      <point x="623" y="636"/>
      <point x="645" y="648"/>
      <point x="679" y="648" type="curve" smooth="yes"/>
      <point x="692" y="648" type="line"/>
      <point x="692" y="710" type="line"/>
      <point x="462" y="710" type="line"/>
      <point x="462" y="648" type="line"/>
      <point x="473" y="648" type="line" smooth="yes"/>
      <point x="503" y="648"/>
      <point x="543" y="638"/>
      <point x="543" y="625" type="curve"/>
      <point x="367" y="308" type="line"/>
      <point x="386" y="308" type="line"/>
      <point x="196" y="637" type="line"/>
      <point x="196" y="644"/>
      <point x="235" y="648"/>
      <point x="265" y="648" type="curve" smooth="yes"/>
      <point x="282" y="648" type="line"/>
      <point x="282" y="710" type="line"/>
      <point x="30" y="710" type="line"/>
      <point x="30" y="648" type="line"/>
      <point x="43" y="648" type="line" smooth="yes"/>
      <point x="79" y="648"/>
      <point x="98" y="644"/>
      <point x="116" y="614" type="curve" smooth="yes"/>
      <point x="324" y="264" type="line"/>
    </contour>
  </outline>
</glyph>
<glyph name="Z" format="2">
  <advance width="685"/>
  <unicode hex="005A"/>
  <guideline x="576" y="410" angle="90"/>
  <guideline x="60" y="254" angle="90"/>
  <outline>
    <contour>
      <point x="282" y="648" type="curve" smooth="yes"/>
      <point x="542" y="648" type="line"/>
      <point x="524" y="672" type="line"/>
      <point x="65" y="76" type="line"/>
      <point x="65" y="0" type="line"/>
      <point x="620" y="0" type="line"/>
      <point x="620" y="231" type="line"/>
      <point x="554" y="231" type="line"/>
      <point x="539" y="107" type="line" smooth="yes"/>
      <point x="535" y="71"/>
      <point x="500" y="62"/>
      <point x="414" y="62" type="curve" smooth="yes"/>
      <point x="120" y="62" type="line"/>
      <point x="132" y="25" type="line"/>
      <point x="604" y="637" type="line"/>
      <point x="604" y="710" type="line"/>
      <point x="80" y="710" type="line"/>
      <point x="80" y="503" type="line"/>
      <point x="144" y="503" type="line"/>
      <point x="157" y="603" type="line" smooth="yes"/>
      <point x="162" y="639"/>
      <point x="196" y="648"/>
    </contour>
  </outline>
</glyph>
<glyph name="grave" format="2">
  <advance width="500"/>
  <unicode hex="0060"/>
  <outline>
    <contour>
      <point x="267" y="810" type="line" smooth="yes"/>
      <point x="250" y="845"/>
      <point x="226" y="872"/>
      <point x="190" y="872" type="curve" smooth="yes"/>
      <point x="156" y="872"/>
      <point x="133" y="846"/>
      <point x="133" y="818" type="curve" smooth="yes"/>
      <point x="133" y="794"/>
      <point x="151" y="768"/>
      <point x="177" y="748" type="curve" smooth="yes"/>
      <point x="292" y="661" type="line"/>
      <point x="328" y="661" type="line"/>
      <point x="328" y="687" type="line"/>
    </contour>
  </outline>
</glyph>
<glyph name="b" format="2">
  <advance width="695"/>
  <unicode hex="0062"/>
  <guideline x="180" y="218" angle="90" identifier="QpUmSIK1Yg"/>
  <outline>
    <contour>
      <point x="390" y="-13" type="curve" smooth="yes"/>
      <point x="556" y="-13"/>
      <point x="645" y="114"/>
      <point x="645" y="285" type="curve" smooth="yes"/>
      <point x="645" y="456"/>
      <point x="564" y="575"/>
      <point x="402" y="575" type="curve" smooth="yes"/>
      <point x="298" y="575"/>
      <point x="232" y="517"/>
      <point x="180" y="428" type="curve"/>
      <point x="183" y="389" type="line"/>
      <point x="244" y="472"/>
      <point x="303" y="509"/>
      <point x="391" y="509" type="curve" smooth="yes"/>
      <point x="505" y="509"/>
      <point x="551" y="435"/>
      <point x="551" y="285" type="curve" smooth="yes"/>
      <point x="551" y="127"/>
      <point x="495" y="53"/>
      <point x="383" y="53" type="curve" smooth="yes"/>
      <point x="299" y="53"/>
      <point x="244" y="95"/>
      <point x="186" y="178" type="curve"/>
      <point x="180" y="136" type="line"/>
      <point x="230" y="45"/>
      <point x="294" y="-13"/>
    </contour>
    <contour>
      <point x="111" y="675" type="curve" smooth="yes"/>
      <point x="111" y="-21" type="line"/>
      <point x="171" y="-21" type="line"/>
      <point x="200" y="121" type="line"/>
      <point x="200" y="121" type="line"/>
      <point x="200" y="780" type="line"/>
      <point x="20" y="780" type="line"/>
      <point x="20" y="722" type="line"/>
      <point x="30" y="720" type="line" smooth="yes"/>
      <point x="84" y="709"/>
      <point x="111" y="704"/>
    </contour>
  </outline>
</glyph>
<glyph name="c" format="2">
  <advance width="593"/>
  <unicode hex="0063"/>
  <outline>
    <contour>
      <point x="335" y="51" type="curve" smooth="yes"/>
      <point x="197" y="51"/>
      <point x="144" y="118"/>
      <point x="144" y="282" type="curve" smooth="yes"/>
      <point x="144" y="436"/>
      <point x="199" y="511"/>
      <point x="335" y="511" type="curve" smooth="yes"/>
      <point x="402" y="511"/>
      <point x="454" y="498"/>
      <point x="488" y="482" type="curve"/>
      <point x="486" y="487"/>
      <point x="468" y="507"/>
      <point x="441" y="506" type="curve"/>
      <point x="441" y="362" type="line"/>
      <point x="533" y="362" type="line"/>
      <point x="533" y="541" type="line"/>
      <point x="511" y="553"/>
      <point x="443" y="575"/>
      <point x="334" y="575" type="curve" smooth="yes"/>
      <point x="155" y="575"/>
      <point x="50" y="468"/>
      <point x="50" y="282" type="curve" smooth="yes"/>
      <point x="50" y="96"/>
      <point x="153" y="-13"/>
      <point x="334" y="-13" type="curve" smooth="yes"/>
      <point x="432" y="-13"/>
      <point x="516" y="34"/>
      <point x="553" y="113" type="curve"/>
      <point x="503" y="150" type="line"/>
      <point x="468" y="92"/>
      <point x="420" y="51"/>
    </contour>
  </outline>
</glyph>
<glyph name="e" format="2">
  <advance width="603"/>
  <unicode hex="0065"/>
  <outline>
    <contour>
      <point x="140" y="276" type="curve" smooth="yes"/>
      <point x="140" y="445"/>
      <point x="205" y="511"/>
      <point x="312" y="511" type="curve" smooth="yes"/>
      <point x="420" y="511"/>
      <point x="455" y="462"/>
      <point x="463" y="293" type="curve"/>
      <point x="488" y="315" type="line"/>
      <point x="116" y="315" type="line"/>
      <point x="116" y="255" type="line"/>
      <point x="553" y="255" type="line"/>
      <point x="549" y="467"/>
      <point x="477" y="575"/>
      <point x="312" y="575" type="curve" smooth="yes"/>
      <point x="154" y="575"/>
      <point x="50" y="457"/>
      <point x="50" y="276" type="curve" smooth="yes"/>
      <point x="50" y="85"/>
      <point x="171" y="-13"/>
      <point x="330" y="-13" type="curve" smooth="yes"/>
      <point x="429" y="-13"/>
      <point x="517" y="39"/>
      <point x="556" y="116" type="curve"/>
      <point x="506" y="153" type="line"/>
      <point x="471" y="95"/>
      <point x="417" y="51"/>
      <point x="332" y="51" type="curve" smooth="yes"/>
      <point x="226" y="51"/>
      <point x="140" y="95"/>
    </contour>
  </outline>
</glyph>
<glyph name="l" format="2">
  <advance width="359"/>
  <unicode hex="006C"/>
  <guideline x="0" y="720" angle="0" identifier="6dtuvS5yqk"/>
  <outline>
    <contour>
      <point x="233" y="780" type="line"/>
      <point x="54" y="780" type="line"/>
      <point x="54" y="722" type="line"/>
      <point x="64" y="720" type="line" smooth="yes"/>
      <point x="118" y="709"/>
      <point x="146" y="704"/>
      <point x="146" y="675" type="curve" smooth="yes"/>
      <point x="146" y="116" type="line" smooth="yes"/>
      <point x="146" y="64"/>
      <point x="115" y="50"/>
      <point x="59" y="50" type="curve" smooth="yes"/>
      <point x="54" y="50" type="line"/>
      <point x="54" y="0" type="line"/>
      <point x="325" y="0" type="line"/>
      <point x="325" y="50" type="line"/>
      <point x="320" y="50" type="line" smooth="yes"/>
      <point x="264" y="50"/>
      <point x="233" y="64"/>
      <point x="233" y="116" type="curve" smooth="yes"/>
    </contour>
  </outline>
</glyph>
<glyph name="m" format="2">
  <advance width="1024"/>
  <unicode hex="006D"/>
  <guideline x="194" y="403" angle="90" identifier="iNF5kbjgUc"/>
  <guideline x="490" y="344" angle="90" identifier="6PTsBL8igQ"/>
  <outline>
    <contour>
      <point x="45" y="0" type="line"/>
      <point x="302" y="0" type="line"/>
      <point x="302" y="50" type="line"/>
      <point x="297" y="50" type="line" smooth="yes"/>
      <point x="269" y="50"/>
      <point x="225" y="53"/>
      <point x="225" y="60" type="curve" smooth="yes"/>
      <point x="225" y="444" type="line"/>
      <point x="225" y="444" type="line"/>
      <point x="201" y="565" type="line"/>
      <point x="45" y="565" type="line"/>
      <point x="45" y="507" type="line"/>
      <point x="55" y="505" type="line" smooth="yes"/>
      <point x="109" y="494"/>
      <point x="136" y="489"/>
      <point x="136" y="460" type="curve" smooth="yes"/>
      <point x="136" y="126" type="line" smooth="yes"/>
      <point x="136" y="66"/>
      <point x="105" y="50"/>
      <point x="49" y="50" type="curve" smooth="yes"/>
      <point x="45" y="50" type="line"/>
    </contour>
    <contour>
      <point x="641" y="0" type="line"/>
      <point x="641" y="50" type="line"/>
      <point x="636" y="50" type="line" smooth="yes"/>
      <point x="608" y="50"/>
      <point x="564" y="53"/>
      <point x="564" y="60" type="curve" smooth="yes"/>
      <point x="564" y="435" type="line" smooth="yes"/>
      <point x="564" y="524"/>
      <point x="519" y="576"/>
      <point x="428" y="576" type="curve" smooth="yes"/>
      <point x="339" y="576"/>
      <point x="272" y="521"/>
      <point x="205" y="436" type="curve"/>
      <point x="204" y="390" type="line"/>
      <point x="278" y="470"/>
      <point x="333" y="506"/>
      <point x="396" y="506" type="curve" smooth="yes"/>
      <point x="455" y="506"/>
      <point x="475" y="477"/>
      <point x="475" y="424" type="curve" smooth="yes"/>
      <point x="475" y="60" type="line" smooth="yes"/>
      <point x="475" y="53"/>
      <point x="431" y="50"/>
      <point x="403" y="50" type="curve" smooth="yes"/>
      <point x="398" y="50" type="line"/>
      <point x="398" y="0" type="line"/>
    </contour>
    <contour>
      <point x="994" y="0" type="line"/>
      <point x="994" y="50" type="line"/>
      <point x="990" y="50" type="line" smooth="yes"/>
      <point x="934" y="50"/>
      <point x="903" y="66"/>
      <point x="903" y="126" type="curve" smooth="yes"/>
      <point x="903" y="435" type="line" smooth="yes"/>
      <point x="903" y="524"/>
      <point x="858" y="576"/>
      <point x="767" y="576" type="curve" smooth="yes"/>
      <point x="678" y="576"/>
      <point x="611" y="521"/>
      <point x="544" y="436" type="curve"/>
      <point x="543" y="390" type="line"/>
      <point x="617" y="470"/>
      <point x="672" y="506"/>
      <point x="735" y="506" type="curve" smooth="yes"/>
      <point x="794" y="506"/>
      <point x="814" y="477"/>
      <point x="814" y="424" type="curve" smooth="yes"/>
      <point x="814" y="60" type="line" smooth="yes"/>
      <point x="814" y="53"/>
      <point x="770" y="50"/>
      <point x="742" y="50" type="curve" smooth="yes"/>
      <point x="737" y="50" type="line"/>
      <point x="737" y="0" type="line"/>
    </contour>
  </outline>
</glyph>
<glyph name="s" format="2">
  <advance width="550"/>
  <unicode hex="0073"/>
  <guideline x="59" y="176" angle="90" identifier="dPYuWYT8jN"/>
  <guideline x="0" y="528" angle="0" identifier="lvMUJ1twPA"/>
  <outline>
    <contour>
      <point x="410" y="149" type="curve" smooth="yes"/>
      <point x="410" y="79"/>
      <point x="369" y="49"/>
      <point x="272" y="49" type="curve" smooth="yes"/>
      <point x="196" y="49"/>
      <point x="135" y="72"/>
      <point x="107" y="88" type="curve"/>
      <point x="105" y="67"/>
      <point x="104" y="44"/>
      <point x="148" y="29" type="curve"/>
      <point x="148" y="178" type="line"/>
      <point x="56" y="178" type="line"/>
      <point x="56" y="31" type="line"/>
      <point x="97" y="6"/>
      <point x="168" y="-13"/>
      <point x="272" y="-13" type="curve" smooth="yes"/>
      <point x="422" y="-13"/>
      <point x="494" y="56"/>
      <point x="494" y="157" type="curve" smooth="yes"/>
      <point x="494" y="275"/>
      <point x="397" y="306"/>
      <point x="306" y="324" type="curve" smooth="yes"/>
      <point x="220" y="341"/>
      <point x="153" y="356"/>
      <point x="153" y="428" type="curve" smooth="yes"/>
      <point x="153" y="483"/>
      <point x="188" y="513"/>
      <point x="278" y="513" type="curve" smooth="yes"/>
      <point x="344" y="513"/>
      <point x="397" y="500"/>
      <point x="424" y="477" type="curve"/>
      <point x="420" y="509"/>
      <point x="407" y="521"/>
      <point x="381" y="520" type="curve"/>
      <point x="381" y="407" type="line"/>
      <point x="471" y="407" type="line"/>
      <point x="471" y="549" type="line"/>
      <point x="447" y="559"/>
      <point x="381" y="575"/>
      <point x="278" y="575" type="curve" smooth="yes"/>
      <point x="145" y="575"/>
      <point x="71" y="514"/>
      <point x="71" y="418" type="curve" smooth="yes"/>
      <point x="71" y="300"/>
      <point x="166" y="272"/>
      <point x="259" y="253" type="curve" smooth="yes"/>
      <point x="337" y="237"/>
      <point x="410" y="222"/>
    </contour>
  </outline>
</glyph>
<glyph name="x" format="2">
  <advance width="683"/>
  <unicode hex="0078"/>
  <guideline x="12" y="548" angle="90" identifier="7FZLmLu2Tr"/>
  <guideline x="588" y="236" angle="90" identifier="oixB23lFND"/>
  <outline>
    <contour>
      <point x="648" y="0" type="line"/>
      <point x="648" y="60" type="line"/>
      <point x="643" y="60" type="line"/>
      <point x="597" y="60"/>
      <point x="582" y="70"/>
      <point x="562" y="93" type="curve" smooth="yes"/>
      <point x="378" y="309" type="line"/>
      <point x="368" y="312" type="line"/>
      <point x="212" y="498" type="line"/>
      <point x="212" y="504"/>
      <point x="254" y="505"/>
      <point x="290" y="505" type="curve" smooth="yes"/>
      <point x="292" y="505" type="line"/>
      <point x="292" y="565" type="line"/>
      <point x="50" y="565" type="line"/>
      <point x="50" y="505" type="line"/>
      <point x="55" y="505" type="line"/>
      <point x="96" y="505"/>
      <point x="112" y="494"/>
      <point x="132" y="471" type="curve" smooth="yes"/>
      <point x="304" y="267" type="line"/>
      <point x="313" y="266" type="line"/>
      <point x="481" y="67" type="line"/>
      <point x="481" y="61"/>
      <point x="440" y="60"/>
      <point x="404" y="60" type="curve" smooth="yes"/>
      <point x="401" y="60" type="line"/>
      <point x="401" y="0" type="line"/>
    </contour>
    <contour>
      <point x="35" y="0" type="line"/>
      <point x="275" y="0" type="line"/>
      <point x="275" y="60" type="line"/>
      <point x="272" y="60" type="line"/>
      <point x="229" y="60"/>
      <point x="188" y="72"/>
      <point x="188" y="85" type="curve"/>
      <point x="337" y="264" type="line"/>
      <point x="289" y="298" type="line"/>
      <point x="124" y="102" type="line" smooth="yes"/>
      <point x="98" y="71"/>
      <point x="82" y="60"/>
      <point x="40" y="60" type="curve"/>
      <point x="35" y="60" type="line"/>
    </contour>
    <contour>
      <point x="388" y="284" type="line"/>
      <point x="554" y="474" type="line" smooth="yes"/>
      <point x="575" y="499"/>
      <point x="597" y="505"/>
      <point x="626" y="505" type="curve"/>
      <point x="631" y="505" type="line"/>
      <point x="631" y="565" type="line"/>
      <point x="399" y="565" type="line"/>
      <point x="399" y="505" type="line"/>
      <point x="403" y="505" type="line"/>
      <point x="444" y="505"/>
      <point x="485" y="494"/>
      <point x="485" y="482" type="curve"/>
      <point x="341" y="320" type="line"/>
    </contour>
  </outline>
</glyph>
<glyph name="sterling" format="2">
  <advance width="560"/>
  <unicode hex="00A3"/>
  <outline>
    <contour>
      <point x="37" y="-13" type="line"/>
      <point x="177" y="49"/>
      <point x="269" y="154"/>
      <point x="269" y="259" type="curve" smooth="yes"/>
      <point x="269" y="393"/>
      <point x="187" y="446"/>
      <point x="187" y="555" type="curve"/>
      <point x="187" y="647"/>
      <point x="229" y="674"/>
      <point x="329" y="674" type="curve" smooth="yes"/>
      <point x="400" y="674"/>
      <point x="450" y="656"/>
      <point x="483" y="629" type="curve"/>
      <point x="478" y="648"/>
      <point x="446" y="678"/>
      <point x="414" y="680" type="curve"/>
      <point x="414" y="523" type="line"/>
      <point x="510" y="523" type="line"/>
      <point x="510" y="693" type="line"/>
      <point x="476" y="712"/>
      <point x="415" y="735"/>
      <point x="327" y="735" type="curve" smooth="yes"/>
      <point x="177" y="735"/>
      <point x="94" y="677"/>
      <point x="94" y="547" type="curve" smooth="yes"/>
      <point x="94" y="438"/>
      <point x="192" y="374"/>
      <point x="192" y="242" type="curve" smooth="yes"/>
      <point x="192" y="169"/>
      <point x="130" y="104"/>
      <point x="37" y="60" type="curve"/>
    </contour>
    <contour>
      <point x="393" y="-10" type="curve" smooth="yes"/>
      <point x="499" y="-10"/>
      <point x="534" y="68"/>
      <point x="551" y="178" type="curve"/>
      <point x="497" y="194" type="line"/>
      <point x="478" y="105"/>
      <point x="460" y="82"/>
      <point x="397" y="82" type="curve" smooth="yes"/>
      <point x="332" y="82"/>
      <point x="289" y="124"/>
      <point x="227" y="201" type="curve"/>
      <point x="198" y="182"/>
      <point x="186" y="154"/>
      <point x="196" y="145" type="curve"/>
      <point x="281" y="45"/>
      <point x="306" y="-10"/>
    </contour>
    <contour>
      <point x="37" y="379" type="line"/>
      <point x="37" y="319" type="line"/>
      <point x="445" y="319" type="line"/>
      <point x="445" y="379" type="line"/>
    </contour>
  </outline>
</glyph>
<glyph name="dieresis" format="2">
  <advance width="500"/>
  <unicode hex="00A8"/>
  <outline>
    <contour>
      <point x="184" y="741" type="curve" smooth="yes"/>
      <point x="184" y="786"/>
      <point x="155" y="807"/>
      <point x="115" y="807" type="curve" smooth="yes"/>
      <point x="74" y="807"/>
      <point x="46" y="786"/>
      <point x="46" y="741" type="curve" smooth="yes"/>
      <point x="46" y="694"/>
      <point x="74" y="674"/>
      <point x="115" y="674" type="curve" smooth="yes"/>
      <point x="155" y="674"/>
      <point x="184" y="694"/>
    </contour>
    <contour>
      <point x="454" y="741" type="curve" smooth="yes"/>
      <point x="454" y="786"/>
      <point x="425" y="807"/>
      <point x="385" y="807" type="curve" smooth="yes"/>
      <point x="344" y="807"/>
      <point x="316" y="786"/>
      <point x="316" y="741" type="curve" smooth="yes"/>
      <point x="316" y="694"/>
      <point x="344" y="674"/>
      <point x="385" y="674" type="curve" smooth="yes"/>
      <point x="425" y="674"/>
      <point x="454" y="694"/>
    </contour>
  </outline>
</glyph>
<glyph name="cedilla" format="2">
  <advance width="500"/>
  <unicode hex="00B8"/>
  <outline>
    <contour>
      <point x="309" y="5" type="line"/>
      <point x="223" y="5" type="line"/>
      <point x="180" y="-120" type="line"/>
      <point x="220" y="-120" type="line" smooth="yes"/>
      <point x="290" y="-120"/>
      <point x="306" y="-141"/>
      <point x="306" y="-179" type="curve" smooth="yes"/>
      <point x="306" y="-221"/>
      <point x="283" y="-239"/>
      <point x="241" y="-239" type="curve" smooth="yes"/>
      <point x="191" y="-239"/>
      <point x="165" y="-206"/>
      <point x="146" y="-187" type="curve"/>
      <point x="105" y="-225" type="line"/>
      <point x="130" y="-258"/>
      <point x="174" y="-289"/>
      <point x="241" y="-289" type="curve" smooth="yes"/>
      <point x="313" y="-289"/>
      <point x="386" y="-258"/>
      <point x="386" y="-176" type="curve" smooth="yes"/>
      <point x="386" y="-99"/>
      <point x="331" y="-69"/>
      <point x="224" y="-69" type="curve"/>
      <point x="218" y="-89" type="line"/>
    </contour>
  </outline>
</glyph>
<glyph name="Thorn" format="2">
  <advance width="725"/>
  <unicode hex="00DE"/>
  <outline>
    <contour>
      <point x="364" y="710" type="line"/>
      <point x="364" y="648" type="line"/>
      <point x="344" y="648" type="line" smooth="yes"/>
      <point x="296" y="648"/>
      <point x="249" y="645"/>
      <point x="249" y="638" type="curve" smooth="yes"/>
      <point x="249" y="72" type="line" smooth="yes"/>
      <point x="249" y="65"/>
      <point x="296" y="62"/>
      <point x="344" y="62" type="curve" smooth="yes"/>
      <point x="364" y="62" type="line"/>
      <point x="364" y="0" type="line"/>
      <point x="60" y="0" type="line"/>
      <point x="60" y="62" type="line"/>
      <point x="71" y="62" type="line" smooth="yes"/>
      <point x="120" y="62"/>
      <point x="156" y="69"/>
      <point x="156" y="98" type="curve" smooth="yes"/>
      <point x="156" y="612" type="line" smooth="yes"/>
      <point x="156" y="641"/>
      <point x="120" y="648"/>
      <point x="71" y="648" type="curve" smooth="yes"/>
      <point x="60" y="648" type="line"/>
      <point x="60" y="710" type="line"/>
    </contour>
    <contour>
      <point x="665" y="366" type="curve" smooth="yes"/>
      <point x="665" y="239"/>
      <point x="566" y="175"/>
      <point x="420" y="175" type="curve" smooth="yes"/>
      <point x="222" y="175" type="line"/>
      <point x="222" y="237" type="line"/>
      <point x="420" y="237" type="line" smooth="yes"/>
      <point x="520" y="237"/>
      <point x="566" y="278"/>
      <point x="566" y="366" type="curve" smooth="yes"/>
      <point x="566" y="452"/>
      <point x="520" y="491"/>
      <point x="420" y="491" type="curve" smooth="yes"/>
      <point x="222" y="491" type="line"/>
      <point x="222" y="553" type="line"/>
      <point x="420" y="553" type="line" smooth="yes"/>
      <point x="573" y="553"/>
      <point x="665" y="496"/>
    </contour>
  </outline>
</glyph>
<glyph name="divide" format="2">
  <advance width="560"/>
  <unicode hex="00F7"/>
  <outline>
    <contour>
      <point x="367" y="574" type="curve" smooth="yes"/>
      <point x="367" y="622"/>
      <point x="329" y="654"/>
      <point x="279" y="654" type="curve" smooth="yes"/>
      <point x="230" y="654"/>
      <point x="193" y="622"/>
      <point x="193" y="574" type="curve" smooth="yes"/>
      <point x="193" y="527"/>
      <point x="230" y="494"/>
      <point x="279" y="494" type="curve" smooth="yes"/>
      <point x="329" y="494"/>
      <point x="367" y="527"/>
    </contour>
    <contour>
      <point x="367" y="108" type="curve" smooth="yes"/>
      <point x="367" y="156"/>
      <point x="329" y="188"/>
      <point x="279" y="188" type="curve" smooth="yes"/>
      <point x="230" y="188"/>
      <point x="193" y="156"/>
      <point x="193" y="108" type="curve" smooth="yes"/>
      <point x="193" y="61"/>
      <point x="230" y="28"/>
      <point x="279" y="28" type="curve" smooth="yes"/>
      <point x="329" y="28"/>
      <point x="367" y="61"/>
    </contour>
    <component base="minus"/>
  </outline>
</glyph>
<glyph name="eogonek" format="2">
  <advance width="603"/>
  <unicode hex="0119"/>
  <outline>
    <contour>
      <point x="413" y="37" type="line"/>
      <point x="255" y="-75"/>
      <point x="217" y="-99"/>
      <point x="217" y="-162" type="curve" smooth="yes"/>
      <point x="217" y="-225"/>
      <point x="273" y="-252"/>
      <point x="346" y="-252" type="curve" smooth="yes"/>
      <point x="419" y="-252"/>
      <point x="462" y="-223"/>
      <point x="497" y="-182" type="curve"/>
      <point x="459" y="-147" type="line"/>
      <point x="441" y="-168"/>
      <point x="411" y="-195"/>
      <point x="369" y="-195" type="curve" smooth="yes"/>
      <point x="337" y="-195"/>
      <point x="319" y="-180"/>
      <point x="319" y="-150" type="curve" smooth="yes"/>
      <point x="319" y="-85"/>
      <point x="411" y="-16"/>
      <point x="478" y="30" type="curve" smooth="yes"/>
      <point x="515" y="56"/>
      <point x="540" y="84"/>
      <point x="556" y="116" type="curve"/>
      <point x="506" y="153" type="line"/>
      <point x="471" y="95"/>
      <point x="417" y="51"/>
      <point x="332" y="51" type="curve" smooth="yes"/>
      <point x="226" y="51"/>
      <point x="140" y="95"/>
      <point x="140" y="276" type="curve" smooth="yes"/>
      <point x="140" y="445"/>
      <point x="205" y="511"/>
      <point x="312" y="511" type="curve" smooth="yes"/>
      <point x="420" y="511"/>
      <point x="455" y="462"/>
      <point x="463" y="293" type="curve"/>
      <point x="488" y="315" type="line"/>
      <point x="116" y="315" type="line"/>
      <point x="116" y="255" type="line"/>
      <point x="553" y="255" type="line"/>
      <point x="549" y="467"/>
      <point x="477" y="575"/>
      <point x="312" y="575" type="curve" smooth="yes"/>
      <point x="154" y="575"/>
      <point x="50" y="457"/>
      <point x="50" y="276" type="curve" smooth="yes"/>
      <point x="50" y="85"/>
      <point x="171" y="-13"/>
      <point x="330" y="-13" type="curve" smooth="yes"/>
      <point x="360" y="-13"/>
      <point x="388" y="-8"/>
      <point x="415" y="0" type="curve"/>
    </contour>
  </outline>
</glyph>
<glyph name="Hbar" format="2">
  <advance width="873"/>
  <unicode hex="0126"/>
  <guideline x="45" y="653" angle="90"/>
  <guideline x="788" y="643" angle="90"/>
  <outline>
    <contour>
      <point x="229" y="365" type="line"/>
      <point x="229" y="311" type="line"/>
      <point x="644" y="311" type="line"/>
      <point x="644" y="365" type="line"/>
    </contour>
    <contour>
      <point x="60" y="0" type="line"/>
      <point x="345" y="0" type="line"/>
      <point x="345" y="62" type="line"/>
      <point x="336" y="62" type="line" smooth="yes"/>
      <point x="298" y="62"/>
      <point x="249" y="65"/>
      <point x="249" y="72" type="curve" smooth="yes"/>
      <point x="249" y="638" type="line" smooth="yes"/>
      <point x="249" y="645"/>
      <point x="298" y="648"/>
      <point x="336" y="648" type="curve" smooth="yes"/>
      <point x="345" y="648" type="line"/>
      <point x="345" y="710" type="line"/>
      <point x="60" y="710" type="line"/>
      <point x="60" y="648" type="line"/>
      <point x="71" y="648" type="line" smooth="yes"/>
      <point x="120" y="648"/>
      <point x="156" y="641"/>
      <point x="156" y="612" type="curve" smooth="yes"/>
      <point x="156" y="98" type="line" smooth="yes"/>
      <point x="156" y="69"/>
      <point x="120" y="62"/>
      <point x="71" y="62" type="curve" smooth="yes"/>
      <point x="60" y="62" type="line"/>
    </contour>
    <contour>
      <point x="528" y="0" type="line"/>
      <point x="813" y="0" type="line"/>
      <point x="813" y="62" type="line"/>
      <point x="802" y="62" type="line" smooth="yes"/>
      <point x="753" y="62"/>
      <point x="717" y="69"/>
      <point x="717" y="98" type="curve" smooth="yes"/>
      <point x="717" y="612" type="line" smooth="yes"/>
      <point x="717" y="641"/>
      <point x="753" y="648"/>
      <point x="802" y="648" type="curve" smooth="yes"/>
      <point x="813" y="648" type="line"/>
      <point x="813" y="710" type="line"/>
      <point x="528" y="710" type="line"/>
      <point x="528" y="648" type="line"/>
      <point x="537" y="648" type="line" smooth="yes"/>
      <point x="575" y="648"/>
      <point x="624" y="645"/>
      <point x="624" y="638" type="curve" smooth="yes"/>
      <point x="624" y="72" type="line" smooth="yes"/>
      <point x="624" y="65"/>
      <point x="575" y="62"/>
      <point x="537" y="62" type="curve" smooth="yes"/>
      <point x="528" y="62" type="line"/>
    </contour>
    <contour>
      <point x="50" y="482" type="line"/>
      <point x="823" y="482" type="line"/>
      <point x="823" y="536" type="line"/>
      <point x="50" y="536" type="line"/>
    </contour>
  </outline>
</glyph>
<glyph name="hbar" format="2">
  <advance width="704"/>
  <unicode hex="0127"/>
  <outline>
    <contour>
      <point x="674" y="0" type="line"/>
      <point x="674" y="50" type="line"/>
      <point x="670" y="50" type="line" smooth="yes"/>
      <point x="614" y="50"/>
      <point x="583" y="66"/>
      <point x="583" y="126" type="curve" smooth="yes"/>
      <point x="583" y="435" type="line" smooth="yes"/>
      <point x="583" y="524"/>
      <point x="534" y="576"/>
      <point x="437" y="576" type="curve" smooth="yes"/>
      <point x="345" y="576"/>
      <point x="267" y="520"/>
      <point x="205" y="423" type="curve"/>
      <point x="205" y="384" type="line"/>
      <point x="276" y="470"/>
      <point x="340" y="506"/>
      <point x="405" y="506" type="curve" smooth="yes"/>
      <point x="471" y="506"/>
      <point x="494" y="477"/>
      <point x="494" y="424" type="curve" smooth="yes"/>
      <point x="494" y="60" type="line" smooth="yes"/>
      <point x="494" y="53"/>
      <point x="450" y="50"/>
      <point x="422" y="50" type="curve" smooth="yes"/>
      <point x="417" y="50" type="line"/>
      <point x="417" y="0" type="line"/>
    </contour>
    <contour>
      <point x="136" y="780" type="line"/>
      <point x="136" y="126" type="line" smooth="yes"/>
      <point x="136" y="66"/>
      <point x="105" y="50"/>
      <point x="49" y="50" type="curve" smooth="yes"/>
      <point x="45" y="50" type="line"/>
      <point x="45" y="0" type="line"/>
      <point x="302" y="0" type="line"/>
      <point x="302" y="50" type="line"/>
      <point x="297" y="50" type="line" smooth="yes"/>
      <point x="269" y="50"/>
      <point x="225" y="53"/>
      <point x="225" y="60" type="curve" smooth="yes"/>
      <point x="225" y="780" type="line"/>
    </contour>
    <contour>
      <point x="448" y="706" type="line"/>
      <point x="45" y="706" type="line"/>
      <point x="45" y="648" type="line"/>
      <point x="448" y="648" type="line"/>
    </contour>
  </outline>
</glyph>
<glyph name="itilde" format="2">
  <advance width="350"/>
  <unicode hex="0129"/>
  <outline>
    <contour>
      <point x="247" y="656" type="curve" smooth="yes"/>
      <point x="312" y="656"/>
      <point x="344" y="692"/>
      <point x="363" y="838" type="curve"/>
      <point x="308" y="848" type="line"/>
      <point x="294" y="764"/>
      <point x="293" y="727"/>
      <point x="260" y="727" type="curve" smooth="yes"/>
      <point x="202" y="727"/>
      <point x="194" y="843"/>
      <point x="109" y="843" type="curve" smooth="yes"/>
      <point x="41" y="843"/>
      <point x="12" y="808"/>
      <point x="-5" y="665" type="curve"/>
      <point x="50" y="655" type="line"/>
      <point x="61" y="738"/>
      <point x="63" y="775"/>
      <point x="97" y="775" type="curve" smooth="yes"/>
      <point x="149" y="775"/>
      <point x="158" y="656"/>
    </contour>
    <component base="dotlessi"/>
  </outline>
</glyph>
<glyph name="imacron" format="2">
  <advance width="350"/>
  <unicode hex="012B"/>
  <outline>
    <contour>
      <point x="0" y="778" type="line"/>
      <point x="0" y="708" type="line"/>
      <point x="327" y="708" type="line"/>
      <point x="327" y="778" type="line"/>
    </contour>
    <component base="dotlessi"/>
  </outline>
</glyph>
<glyph name="dotlessi" format="2">
  <advance width="350"/>
  <unicode hex="0131"/>
  <outline>
    <contour>
      <point x="224" y="565" type="line"/>
      <point x="45" y="565" type="line"/>
      <point x="45" y="507" type="line"/>
      <point x="55" y="505" type="line" smooth="yes"/>
      <point x="109" y="494"/>
      <point x="137" y="489"/>
      <point x="137" y="460" type="curve"/>
      <point x="137" y="116" type="line" smooth="yes"/>
      <point x="137" y="64"/>
      <point x="106" y="50"/>
      <point x="50" y="50" type="curve" smooth="yes"/>
      <point x="45" y="50" type="line"/>
      <point x="45" y="0" type="line"/>
      <point x="316" y="0" type="line"/>
      <point x="316" y="50" type="line"/>
      <point x="311" y="50" type="line" smooth="yes"/>
      <point x="255" y="50"/>
      <point x="224" y="64"/>
      <point x="224" y="116" type="curve" smooth="yes"/>
    </contour>
  </outline>
</glyph>
<glyph name="Ldot" format="2">
  <advance width="664"/>
  <unicode hex="013F"/>
  <outline>
    <contour>
      <point x="356" y="710" type="line"/>
      <point x="356" y="648" type="line"/>
      <point x="340" y="648" type="line" smooth="yes"/>
      <point x="288" y="648"/>
      <point x="249" y="641"/>
      <point x="249" y="612" type="curve" smooth="yes"/>
      <point x="249" y="62" type="line"/>
      <point x="408" y="62" type="line" smooth="yes"/>
      <point x="494" y="62"/>
      <point x="528" y="71"/>
      <point x="533" y="107" type="curve" smooth="yes"/>
      <point x="548" y="221" type="line"/>
      <point x="614" y="221" type="line"/>
      <point x="614" y="0" type="line"/>
      <point x="60" y="0" type="line"/>
      <point x="60" y="62" type="line"/>
      <point x="71" y="62" type="line" smooth="yes"/>
      <point x="120" y="62"/>
      <point x="156" y="69"/>
      <point x="156" y="98" type="curve" smooth="yes"/>
      <point x="156" y="612" type="line" smooth="yes"/>
      <point x="156" y="641"/>
      <point x="120" y="648"/>
      <point x="71" y="648" type="curve" smooth="yes"/>
      <point x="60" y="648" type="line"/>
      <point x="60" y="710" type="line"/>
    </contour>
    <component base="periodcentered" xOffset="385" yOffset="108"/>
  </outline>
</glyph>
<glyph name="lslash" format="2">
  <advance width="409"/>
  <unicode hex="0142"/>
  <guideline x="34" y="58" angle="90" identifier="1priWBSskc"/>
  <guideline x="291" y="83" angle="90" identifier="UEvd6eVhnQ"/>
  <outline>
    <contour>
      <point x="47" y="243" type="line"/>
      <point x="379" y="510" type="line"/>
      <point x="379" y="580" type="line"/>
      <point x="47" y="313" type="line"/>
    </contour>
    <component base="l" xOffset="20"/>
  </outline>
</glyph>
<glyph name="Dhook" format="2">
  <advance width="873"/>
  <unicode hex="018A"/>
  <outline>
    <contour>
      <point x="190" y="710" type="line"/>
      <point x="70" y="710"/>
      <point x="6" y="660"/>
      <point x="6" y="533" type="curve"/>
      <point x="6" y="509"/>
      <point x="10" y="483"/>
      <point x="12" y="468" type="curve"/>
      <point x="104" y="468" type="line"/>
      <point x="97" y="487"/>
      <point x="93" y="512"/>
      <point x="93" y="547" type="curve"/>
      <point x="93" y="630"/>
      <point x="125" y="648"/>
      <point x="193" y="648" type="curve"/>
      <point x="214" y="648" type="line"/>
      <point x="214" y="98" type="line" smooth="yes"/>
      <point x="214" y="69"/>
      <point x="178" y="62"/>
      <point x="129" y="62" type="curve" smooth="yes"/>
      <point x="118" y="62" type="line"/>
      <point x="118" y="0" type="line"/>
      <point x="427" y="0" type="line" smooth="yes"/>
      <point x="670" y="0"/>
      <point x="811" y="123"/>
      <point x="811" y="359" type="curve" smooth="yes"/>
      <point x="811" y="596"/>
      <point x="670" y="710"/>
      <point x="427" y="710" type="curve" smooth="yes"/>
    </contour>
    <contour>
      <point x="427" y="648" type="line" smooth="yes"/>
      <point x="619" y="648"/>
      <point x="711" y="565"/>
      <point x="711" y="359" type="curve" smooth="yes"/>
      <point x="711" y="153"/>
      <point x="619" y="62"/>
      <point x="427" y="62" type="curve" smooth="yes"/>
      <point x="307" y="62" type="line"/>
      <point x="307" y="648" type="line"/>
    </contour>
  </outline>
</glyph>
<glyph name="Schwa" format="2">
  <advance width="774"/>
  <unicode hex="018F"/>
  <outline>
    <contour>
      <point x="373" y="750" type="curve" smooth="yes"/>
      <point x="224" y="750"/>
      <point x="122" y="683"/>
      <point x="62" y="584" type="curve"/>
      <point x="120" y="545" type="line"/>
      <point x="174" y="634"/>
      <point x="245" y="686"/>
      <point x="373" y="686" type="curve" smooth="yes"/>
      <point x="514" y="686"/>
      <point x="612" y="626"/>
      <point x="612" y="369" type="curve" smooth="yes"/>
      <point x="612" y="132"/>
      <point x="523" y="39"/>
      <point x="374" y="39" type="curve" smooth="yes"/>
      <point x="225" y="39"/>
      <point x="176" y="109"/>
      <point x="165" y="339" type="curve"/>
      <point x="151" y="325" type="line"/>
      <point x="646" y="325" type="line"/>
      <point x="646" y="389" type="line"/>
      <point x="65" y="389" type="line"/>
      <point x="70" y="117"/>
      <point x="157" y="-25"/>
      <point x="375" y="-25" type="curve" smooth="yes"/>
      <point x="579" y="-25"/>
      <point x="712" y="130"/>
      <point x="712" y="369" type="curve" smooth="yes"/>
      <point x="712" y="623"/>
      <point x="578" y="750"/>
    </contour>
  </outline>
</glyph>
<glyph name="florin" format="2">
  <advance width="560"/>
  <unicode hex="0192"/>
  <guideline x="0" y="721" angle="0"/>
  <guideline x="0" y="760" angle="0"/>
  <guideline x="-47" y="-236" angle="0"/>
  <guideline x="0" y="-51" angle="0"/>
  <guideline x="0" y="-57" angle="0"/>
  <outline>
    <contour>
      <point x="114" y="565" type="line"/>
      <point x="101" y="503" type="line"/>
      <point x="471" y="503" type="line"/>
      <point x="484" y="565" type="line"/>
    </contour>
    <contour>
      <point x="197" y="-81" type="curve" smooth="yes"/>
      <point x="321" y="627" type="line" smooth="yes"/>
      <point x="334" y="699"/>
      <point x="358" y="721"/>
      <point x="427" y="721" type="curve" smooth="yes"/>
      <point x="478" y="721"/>
      <point x="526" y="711"/>
      <point x="548" y="706" type="curve"/>
      <point x="557" y="775" type="line"/>
      <point x="531" y="782"/>
      <point x="488" y="790"/>
      <point x="430" y="790" type="curve" smooth="yes"/>
      <point x="323" y="790"/>
      <point x="258" y="750"/>
      <point x="240" y="647" type="curve" smooth="yes"/>
      <point x="113" y="-76" type="line" smooth="yes"/>
      <point x="98" y="-160"/>
      <point x="74" y="-181"/>
      <point x="13" y="-181" type="curve" smooth="yes"/>
      <point x="-12" y="-181"/>
      <point x="-45" y="-175"/>
      <point x="-69" y="-170" type="curve"/>
      <point x="-79" y="-239" type="line"/>
      <point x="-54" y="-246"/>
      <point x="-25" y="-250"/>
      <point x="9" y="-250" type="curve" smooth="yes"/>
      <point x="115" y="-250"/>
      <point x="175" y="-205"/>
    </contour>
  </outline>
</glyph>
<glyph name="Ohorn" format="2">
  <advance width="881"/>
  <unicode hex="01A0"/>
  <outline>
    <contour>
      <point x="416" y="39" type="curve" smooth="yes"/>
      <point x="251" y="39"/>
      <point x="162" y="138"/>
      <point x="162" y="355" type="curve" smooth="yes"/>
      <point x="162" y="572"/>
      <point x="251" y="671"/>
      <point x="416" y="671" type="curve" smooth="yes"/>
      <point x="582" y="671"/>
      <point x="670" y="572"/>
      <point x="670" y="355" type="curve" smooth="yes"/>
      <point x="670" y="138"/>
      <point x="582" y="39"/>
    </contour>
    <contour>
      <point x="618" y="630" type="line"/>
      <point x="618" y="663" type="line"/>
      <point x="574" y="673" type="line"/>
      <point x="627" y="648"/>
      <point x="669" y="627"/>
      <point x="721" y="627" type="curve" smooth="yes"/>
      <point x="809" y="627"/>
      <point x="894" y="707"/>
      <point x="901" y="899" type="curve"/>
      <point x="814" y="899" type="line"/>
      <point x="806" y="770"/>
      <point x="762" y="694"/>
      <point x="678" y="694" type="curve" smooth="yes"/>
      <point x="604" y="694"/>
      <point x="551" y="735"/>
      <point x="416" y="735" type="curve" smooth="yes"/>
      <point x="205" y="735"/>
      <point x="62" y="602"/>
      <point x="62" y="355" type="curve" smooth="yes"/>
      <point x="62" y="109"/>
      <point x="205" y="-25"/>
      <point x="416" y="-25" type="curve" smooth="yes"/>
      <point x="628" y="-25"/>
      <point x="770" y="109"/>
      <point x="770" y="355" type="curve" smooth="yes"/>
      <point x="770" y="519"/>
      <point x="690" y="615"/>
      <point x="582" y="668" type="curve"/>
    </contour>
  </outline>
</glyph>
<glyph name="uhorn" format="2">
  <advance width="743"/>
  <unicode hex="01B0"/>
  <outline>
    <contour>
      <point x="217" y="565" type="line"/>
      <point x="30" y="565" type="line"/>
      <point x="30" y="507" type="line"/>
      <point x="47" y="505" type="line" smooth="yes"/>
      <point x="102" y="499"/>
      <point x="128" y="489"/>
      <point x="128" y="460" type="curve" smooth="yes"/>
      <point x="128" y="130" type="line" smooth="yes"/>
      <point x="128" y="41"/>
      <point x="177" y="-11"/>
      <point x="272" y="-11" type="curve" smooth="yes"/>
      <point x="362" y="-11"/>
      <point x="440" y="45"/>
      <point x="502" y="142" type="curve"/>
      <point x="502" y="181" type="line"/>
      <point x="431" y="96"/>
      <point x="367" y="59"/>
      <point x="304" y="59" type="curve" smooth="yes"/>
      <point x="240" y="59"/>
      <point x="217" y="88"/>
      <point x="217" y="141" type="curve" smooth="yes"/>
    </contour>
    <contour>
      <point x="494" y="565" type="curve" smooth="yes"/>
      <point x="374" y="565" type="line"/>
      <point x="374" y="507" type="line"/>
      <point x="401" y="505" type="line" smooth="yes"/>
      <point x="456" y="501"/>
      <point x="482" y="489"/>
      <point x="482" y="460" type="curve" smooth="yes"/>
      <point x="482" y="129" type="line"/>
      <point x="482" y="129" type="line"/>
      <point x="506" y="0" type="line"/>
      <point x="662" y="0" type="line"/>
      <point x="662" y="58" type="line"/>
      <point x="652" y="60" type="line" smooth="yes"/>
      <point x="601" y="70"/>
      <point x="571" y="76"/>
      <point x="571" y="105" type="curve" smooth="yes"/>
      <point x="571" y="525" type="line"/>
      <point x="528" y="504" type="line"/>
      <point x="669" y="516"/>
      <point x="739" y="550"/>
      <point x="753" y="737" type="curve"/>
      <point x="666" y="737" type="line"/>
      <point x="656" y="602"/>
      <point x="630" y="565"/>
    </contour>
  </outline>
</glyph>
<glyph name="dotlessj" format="2">
  <advance width="350"/>
  <unicode hex="0237"/>
  <outline>
    <contour>
      <point x="149" y="-79" type="line" smooth="yes"/>
      <point x="149" y="-164"/>
      <point x="108" y="-187"/>
      <point x="43" y="-187" type="curve" smooth="yes"/>
      <point x="-1" y="-187"/>
      <point x="-36" y="-179"/>
      <point x="-58" y="-173" type="curve"/>
      <point x="-58" y="-237" type="line"/>
      <point x="-42" y="-243"/>
      <point x="2" y="-250"/>
      <point x="43" y="-250" type="curve" smooth="yes"/>
      <point x="137" y="-250"/>
      <point x="236" y="-211"/>
      <point x="236" y="-79" type="curve" smooth="yes"/>
      <point x="236" y="565" type="line"/>
      <point x="42" y="565" type="line"/>
      <point x="42" y="507" type="line"/>
      <point x="57" y="505" type="line" smooth="yes"/>
      <point x="111" y="498"/>
      <point x="149" y="489"/>
      <point x="149" y="460" type="curve" smooth="yes"/>
    </contour>
  </outline>
</glyph>
<glyph name="ringhalfright" format="2">
  <advance width="500"/>
  <unicode hex="02BE"/>
  <outline>
    <contour>
      <point x="240" y="868" type="line"/>
      <point x="330" y="868"/>
      <point x="384" y="814"/>
      <point x="384" y="749" type="curve" smooth="yes"/>
      <point x="384" y="684"/>
      <point x="330" y="630"/>
      <point x="240" y="630" type="curve"/>
      <point x="240" y="680" type="line"/>
      <point x="284" y="680"/>
      <point x="308" y="702"/>
      <point x="308" y="749" type="curve" smooth="yes"/>
      <point x="308" y="796"/>
      <point x="284" y="818"/>
      <point x="240" y="818" type="curve"/>
    </contour>
  </outline>
</glyph>
<glyph name="Delta" format="2">
  <advance width="773"/>
  <unicode hex="0394"/>
  <outline>
    <contour>
      <point x="56" y="0" type="line"/>
      <point x="717" y="0" type="line"/>
      <point x="717" y="87" type="line"/>
      <point x="445" y="710" type="line"/>
      <point x="328" y="710" type="line"/>
      <point x="56" y="87" type="line"/>
    </contour>
    <contour>
      <point x="636" y="57" type="line"/>
      <point x="656" y="82" type="line"/>
      <point x="87" y="82" type="line"/>
      <point x="112" y="55" type="line"/>
      <point x="389" y="698" type="line"/>
      <point x="359" y="700" type="line"/>
    </contour>
  </outline>
</glyph>
<glyph name="mu" format="2">
  <advance width="682"/>
  <unicode hex="03BC"/>
  <outline>
    <contour>
      <point x="563" y="-10" type="curve" smooth="yes"/>
      <point x="617" y="-10"/>
      <point x="652" y="20"/>
      <point x="677" y="76" type="curve"/>
      <point x="633" y="103" type="line"/>
      <point x="614" y="71"/>
      <point x="603" y="49"/>
      <point x="572" y="49" type="curve" smooth="yes"/>
      <point x="543" y="49"/>
      <point x="533" y="61"/>
      <point x="533" y="94" type="curve" smooth="yes"/>
      <point x="533" y="565" type="line"/>
      <point x="444" y="565" type="line"/>
      <point x="444" y="129" type="line"/>
      <point x="446" y="124" type="line"/>
      <point x="453" y="28"/>
      <point x="491" y="-10"/>
    </contour>
    <contour>
      <point x="179" y="565" type="line"/>
      <point x="90" y="565" type="line"/>
      <point x="90" y="-250" type="line"/>
      <point x="184" y="-250" type="line"/>
      <point x="184" y="-116"/>
      <point x="140" y="-36"/>
      <point x="124" y="146" type="curve"/>
      <point x="121" y="121" type="line"/>
      <point x="140" y="27"/>
      <point x="182" y="-11"/>
      <point x="260" y="-11" type="curve" smooth="yes"/>
      <point x="330" y="-11"/>
      <point x="402" y="45"/>
      <point x="464" y="142" type="curve"/>
      <point x="458" y="181" type="line"/>
      <point x="392" y="96"/>
      <point x="329" y="59"/>
      <point x="266" y="59" type="curve" smooth="yes"/>
      <point x="202" y="59"/>
      <point x="179" y="88"/>
      <point x="179" y="171" type="curve" smooth="yes"/>
    </contour>
  </outline>
</glyph>
<glyph name="Djecyr" format="2">
  <advance width="885"/>
  <unicode hex="0402"/>
  <outline>
    <contour>
      <point x="820" y="195" type="curve" smooth="yes"/>
      <point x="820" y="324.3627906977"/>
      <point x="739" y="414"/>
      <point x="565" y="414" type="curve" smooth="yes"/>
      <point x="483" y="414"/>
      <point x="415" y="393"/>
      <point x="349" y="356" type="curve"/>
      <point x="349" y="293" type="line"/>
      <point x="422" y="337"/>
      <point x="482" y="352"/>
      <point x="563" y="352" type="curve" smooth="yes"/>
      <point x="668" y="352"/>
      <point x="721" y="285.3006535948"/>
      <point x="721" y="195" type="curve" smooth="yes"/>
      <point x="721" y="80.3725490196"/>
      <point x="668" y="37"/>
      <point x="575" y="37" type="curve"/>
      <point x="575" y="-25" type="line"/>
      <point x="728" y="-25"/>
      <point x="820" y="52.7674418605"/>
    </contour>
    <contour>
      <point x="193" y="0" type="line"/>
      <point x="486" y="0" type="line"/>
      <point x="486" y="62" type="line"/>
      <point x="475" y="62" type="line" smooth="yes"/>
      <point x="435" y="62"/>
      <point x="396" y="65"/>
      <point x="396" y="72" type="curve" smooth="yes"/>
      <point x="396" y="648" type="line"/>
      <point x="472" y="648" type="line" smooth="yes"/>
      <point x="568" y="648"/>
      <point x="603" y="631"/>
      <point x="607" y="595" type="curve" smooth="yes"/>
      <point x="620" y="489" type="line"/>
      <point x="684" y="489" type="line"/>
      <point x="684" y="710" type="line"/>
      <point x="55" y="710" type="line"/>
      <point x="55" y="469" type="line"/>
      <point x="119" y="469" type="line"/>
      <point x="132" y="595" type="line" smooth="yes"/>
      <point x="136" y="631"/>
      <point x="171" y="648"/>
      <point x="267" y="648" type="curve" smooth="yes"/>
      <point x="303" y="648" type="line"/>
      <point x="303" y="98" type="line" smooth="yes"/>
      <point x="303" y="69"/>
      <point x="262" y="62"/>
      <point x="213" y="62" type="curve" smooth="yes"/>
      <point x="193" y="62" type="line"/>
    </contour>
  </outline>
</glyph>
<glyph name="Tshecyr" format="2">
  <advance width="935"/>
  <unicode hex="040B"/>
  <outline>
    <contour>
      <point x="570" y="414" type="curve" smooth="yes"/>
      <point x="498" y="414"/>
      <point x="419" y="397"/>
      <point x="349" y="356" type="curve"/>
      <point x="349" y="293" type="line"/>
      <point x="419" y="338"/>
      <point x="497" y="352"/>
      <point x="570" y="352" type="curve" smooth="yes"/>
      <point x="672" y="352"/>
      <point x="706" y="309"/>
      <point x="706" y="189" type="curve" smooth="yes"/>
      <point x="706" y="0" type="line"/>
      <point x="895" y="0" type="line"/>
      <point x="895" y="62" type="line"/>
      <point x="884" y="62" type="line" smooth="yes"/>
      <point x="835" y="62"/>
      <point x="799" y="69"/>
      <point x="799" y="98" type="curve" smooth="yes"/>
      <point x="799" y="194" type="line" smooth="yes"/>
      <point x="799" y="351"/>
      <point x="740" y="414"/>
    </contour>
    <contour>
      <point x="193" y="0" type="line"/>
      <point x="506" y="0" type="line"/>
      <point x="506" y="62" type="line"/>
      <point x="486" y="62" type="line" smooth="yes"/>
      <point x="440" y="62"/>
      <point x="396" y="65"/>
      <point x="396" y="72" type="curve" smooth="yes"/>
      <point x="396" y="648" type="line"/>
      <point x="472" y="648" type="line" smooth="yes"/>
      <point x="568" y="648"/>
      <point x="603" y="631"/>
      <point x="607" y="595" type="curve" smooth="yes"/>
      <point x="620" y="489" type="line"/>
      <point x="684" y="489" type="line"/>
      <point x="684" y="710" type="line"/>
      <point x="55" y="710" type="line"/>
      <point x="55" y="469" type="line"/>
      <point x="119" y="469" type="line"/>
      <point x="132" y="595" type="line" smooth="yes"/>
      <point x="136" y="631"/>
      <point x="171" y="648"/>
      <point x="267" y="648" type="curve" smooth="yes"/>
      <point x="303" y="648" type="line"/>
      <point x="303" y="98" type="line" smooth="yes"/>
      <point x="303" y="69"/>
      <point x="262" y="62"/>
      <point x="213" y="62" type="curve" smooth="yes"/>
      <point x="193" y="62" type="line"/>
    </contour>
  </outline>
</glyph>
<glyph name="Becyr" format="2">
  <advance width="707"/>
  <unicode hex="0411"/>
  <outline>
    <contour>
      <point x="60" y="710" type="line"/>
      <point x="60" y="648" type="line"/>
      <point x="71" y="648" type="line" smooth="yes"/>
      <point x="120" y="648"/>
      <point x="156" y="641"/>
      <point x="156" y="612" type="curve" smooth="yes"/>
      <point x="156" y="98" type="line" smooth="yes"/>
      <point x="156" y="69"/>
      <point x="120" y="62"/>
      <point x="71" y="62" type="curve" smooth="yes"/>
      <point x="60" y="62" type="line"/>
      <point x="60" y="0" type="line"/>
      <point x="397" y="0" type="line" smooth="yes"/>
      <point x="542" y="0"/>
      <point x="642" y="72"/>
      <point x="642" y="210" type="curve" smooth="yes"/>
      <point x="642" y="354"/>
      <point x="550" y="418"/>
      <point x="397" y="418" type="curve" smooth="yes"/>
      <point x="223" y="418" type="line"/>
      <point x="223" y="356" type="line"/>
      <point x="397" y="356" type="line" smooth="yes"/>
      <point x="496.3150684932" y="356"/>
      <point x="542" y="309"/>
      <point x="542" y="210" type="curve" smooth="yes"/>
      <point x="542" y="109"/>
      <point x="496.3150684932" y="62"/>
      <point x="397" y="62" type="curve" smooth="yes"/>
      <point x="249" y="62" type="line"/>
      <point x="249" y="648" type="line"/>
      <point x="398" y="648" type="line" smooth="yes"/>
      <point x="484" y="648"/>
      <point x="518" y="639"/>
      <point x="523" y="603" type="curve" smooth="yes"/>
      <point x="536" y="504" type="line"/>
      <point x="600" y="504" type="line"/>
      <point x="600" y="710" type="line"/>
    </contour>
  </outline>
</glyph>
<glyph name="Zecyr" format="2">
  <advance width="731"/>
  <unicode hex="0417"/>
  <outline>
    <contour>
      <point x="410" y="-25" type="curve" smooth="yes"/>
      <point x="570.7193675889" y="-25"/>
      <point x="661" y="60"/>
      <point x="661" y="183" type="curve" smooth="yes"/>
      <point x="661" y="289"/>
      <point x="575" y="365"/>
      <point x="451" y="365" type="curve"/>
      <point x="461" y="344" type="line"/>
      <point x="461" y="386" type="line"/>
      <point x="451" y="369" type="line"/>
      <point x="554" y="369"/>
      <point x="641" y="446"/>
      <point x="641" y="545" type="curve" smooth="yes"/>
      <point x="641" y="651"/>
      <point x="565.6739130435" y="735"/>
      <point x="410" y="735" type="curve" smooth="yes"/>
      <point x="274.0542635659" y="735"/>
      <point x="182" y="657"/>
      <point x="163" y="508" type="curve"/>
      <point x="184" y="559" type="line"/>
      <point x="172" y="720" type="line"/>
      <point x="102" y="720" type="line"/>
      <point x="102" y="468" type="line"/>
      <point x="175" y="468" type="line"/>
      <point x="209.4424734606" y="595.2458047295"/>
      <point x="290.0823045267" y="673"/>
      <point x="410" y="673" type="curve" smooth="yes"/>
      <point x="507.7941176471" y="673"/>
      <point x="543" y="616"/>
      <point x="543" y="540" type="curve" smooth="yes"/>
      <point x="543" y="461"/>
      <point x="504.2923548515" y="399.5194742616"/>
      <point x="399" y="404" type="curve" smooth="yes"/>
      <point x="367.698" y="405.332"/>
      <point x="335" y="407"/>
      <point x="305" y="408" type="curve"/>
      <point x="305" y="320" type="line"/>
      <point x="333" y="321"/>
      <point x="367.031" y="322.668"/>
      <point x="398" y="324" type="curve" smooth="yes"/>
      <point x="525" y="329"/>
      <point x="563" y="265.5703703704"/>
      <point x="563" y="188" type="curve" smooth="yes"/>
      <point x="563" y="95"/>
      <point x="516.6064516129" y="39"/>
      <point x="410" y="39" type="curve" smooth="yes"/>
      <point x="284.9794238683" y="39"/>
      <point x="201.357561584" y="116.662090329"/>
      <point x="165" y="242" type="curve"/>
      <point x="92" y="242" type="line"/>
      <point x="92" y="-10" type="line"/>
      <point x="162" y="-10" type="line"/>
      <point x="174" y="151" type="line"/>
      <point x="153" y="202" type="line"/>
      <point x="172" y="50"/>
      <point x="264.8705882353" y="-25"/>
    </contour>
  </outline>
</glyph>
<glyph name="Icyr" format="2">
  <advance width="893"/>
  <unicode hex="0418"/>
  <guideline x="739" y="930" angle="90" identifier="jpSOnFR6u4"/>
  <outline>
    <contour>
      <point x="205" y="155" type="line"/>
      <point x="249" y="114" type="line"/>
      <point x="688" y="566" type="line"/>
      <point x="644" y="607" type="line"/>
    </contour>
    <contour>
      <point x="60" y="0" type="line"/>
      <point x="345" y="0" type="line"/>
      <point x="345" y="62" type="line"/>
      <point x="336" y="62" type="line" smooth="yes"/>
      <point x="298" y="62"/>
      <point x="249" y="65"/>
      <point x="249" y="72" type="curve" smooth="yes"/>
      <point x="249" y="638" type="line" smooth="yes"/>
      <point x="249" y="645"/>
      <point x="298" y="648"/>
      <point x="336" y="648" type="curve" smooth="yes"/>
      <point x="345" y="648" type="line"/>
      <point x="345" y="710" type="line"/>
      <point x="60" y="710" type="line"/>
      <point x="60" y="648" type="line"/>
      <point x="71" y="648" type="line" smooth="yes"/>
      <point x="120" y="648"/>
      <point x="156" y="641"/>
      <point x="156" y="612" type="curve" smooth="yes"/>
      <point x="156" y="98" type="line" smooth="yes"/>
      <point x="156" y="69"/>
      <point x="120" y="62"/>
      <point x="71" y="62" type="curve" smooth="yes"/>
      <point x="60" y="62" type="line"/>
    </contour>
    <contour>
      <point x="548" y="0" type="line"/>
      <point x="833" y="0" type="line"/>
      <point x="833" y="62" type="line"/>
      <point x="822" y="62" type="line" smooth="yes"/>
      <point x="773" y="62"/>
      <point x="737" y="69"/>
      <point x="737" y="98" type="curve" smooth="yes"/>
      <point x="737" y="612" type="line" smooth="yes"/>
      <point x="737" y="641"/>
      <point x="773" y="648"/>
      <point x="822" y="648" type="curve" smooth="yes"/>
      <point x="833" y="648" type="line"/>
      <point x="833" y="710" type="line"/>
      <point x="548" y="710" type="line"/>
      <point x="548" y="648" type="line"/>
      <point x="557" y="648" type="line" smooth="yes"/>
      <point x="595" y="648"/>
      <point x="644" y="645"/>
      <point x="644" y="638" type="curve" smooth="yes"/>
      <point x="644" y="72" type="line" smooth="yes"/>
      <point x="644" y="65"/>
      <point x="595" y="62"/>
      <point x="557" y="62" type="curve" smooth="yes"/>
      <point x="548" y="62" type="line"/>
    </contour>
  </outline>
</glyph>
<glyph name="Ucyr" format="2">
  <advance width="722"/>
  <unicode hex="0423"/>
  <outline>
    <contour>
      <point x="416" y="200" type="curve" smooth="yes"/>
      <point x="603" y="601" type="line" smooth="yes"/>
      <point x="619" y="636"/>
      <point x="645" y="648"/>
      <point x="679" y="648" type="curve" smooth="yes"/>
      <point x="692" y="648" type="line"/>
      <point x="692" y="710" type="line"/>
      <point x="462" y="710" type="line"/>
      <point x="462" y="648" type="line"/>
      <point x="473" y="648" type="line" smooth="yes"/>
      <point x="503" y="648"/>
      <point x="544" y="638"/>
      <point x="544" y="625" type="curve"/>
      <point x="366" y="225" type="line" smooth="yes"/>
      <point x="311.2148280119" y="101.8872539592"/>
      <point x="279" y="74"/>
      <point x="208" y="74" type="curve" smooth="yes"/>
      <point x="174" y="74"/>
      <point x="148" y="85"/>
      <point x="140" y="89" type="curve"/>
      <point x="140" y="0" type="line"/>
      <point x="154" y="-7"/>
      <point x="177" y="-15"/>
      <point x="213" y="-15" type="curve" smooth="yes"/>
      <point x="293" y="-15"/>
      <point x="336.5526407526" y="29.634272416"/>
    </contour>
    <contour>
      <point x="388" y="222" type="line"/>
      <point x="194" y="637" type="line"/>
      <point x="194" y="644"/>
      <point x="234" y="648"/>
      <point x="265" y="648" type="curve" smooth="yes"/>
      <point x="282" y="648" type="line"/>
      <point x="282" y="710" type="line"/>
      <point x="30" y="710" type="line"/>
      <point x="30" y="648" type="line"/>
      <point x="43" y="648" type="line" smooth="yes"/>
      <point x="78" y="648"/>
      <point x="100" y="643"/>
      <point x="114" y="614" type="curve" smooth="yes"/>
      <point x="340" y="137" type="line"/>
    </contour>
  </outline>
</glyph>
<glyph name="Shacyr" format="2">
  <advance width="1191"/>
  <unicode hex="0428"/>
  <outline>
    <contour>
      <point x="972" y="0" type="line"/>
      <point x="972" y="62" type="line"/>
      <point x="219" y="62" type="line"/>
      <point x="219" y="0" type="line"/>
    </contour>
    <contour>
      <point x="1131" y="710" type="line"/>
      <point x="846" y="710" type="line"/>
      <point x="846" y="648" type="line"/>
      <point x="855" y="648" type="line" smooth="yes"/>
      <point x="893" y="648"/>
      <point x="942" y="645"/>
      <point x="942" y="638" type="curve" smooth="yes"/>
      <point x="942" y="0" type="line"/>
      <point x="1131" y="0" type="line"/>
      <point x="1131" y="62" type="line"/>
      <point x="1120" y="62" type="line" smooth="yes"/>
      <point x="1071" y="62"/>
      <point x="1035" y="69"/>
      <point x="1035" y="98" type="curve" smooth="yes"/>
      <point x="1035" y="612" type="line" smooth="yes"/>
      <point x="1035" y="641"/>
      <point x="1071" y="648"/>
      <point x="1120" y="648" type="curve" smooth="yes"/>
      <point x="1131" y="648" type="line"/>
    </contour>
    <contour>
      <point x="345" y="710" type="line"/>
      <point x="60" y="710" type="line"/>
      <point x="60" y="648" type="line"/>
      <point x="71" y="648" type="line" smooth="yes"/>
      <point x="120" y="648"/>
      <point x="156" y="641"/>
      <point x="156" y="612" type="curve" smooth="yes"/>
      <point x="156" y="98" type="line" smooth="yes"/>
      <point x="156" y="69"/>
      <point x="120" y="62"/>
      <point x="71" y="62" type="curve" smooth="yes"/>
      <point x="60" y="62" type="line"/>
      <point x="60" y="0" type="line"/>
      <point x="249" y="0" type="line"/>
      <point x="249" y="638" type="line" smooth="yes"/>
      <point x="249" y="645"/>
      <point x="298" y="648"/>
      <point x="336" y="648" type="curve" smooth="yes"/>
      <point x="345" y="648" type="line"/>
    </contour>
    <contour>
      <point x="453" y="710" type="line"/>
      <point x="453" y="648" type="line"/>
      <point x="462" y="648" type="line" smooth="yes"/>
      <point x="500" y="648"/>
      <point x="549" y="645"/>
      <point x="549" y="638" type="curve" smooth="yes"/>
      <point x="549" y="0" type="line"/>
      <point x="642" y="0" type="line"/>
      <point x="642" y="638" type="line" smooth="yes"/>
      <point x="642" y="645"/>
      <point x="691" y="648"/>
      <point x="729" y="648" type="curve" smooth="yes"/>
      <point x="738" y="648" type="line"/>
      <point x="738" y="710" type="line"/>
    </contour>
  </outline>
</glyph>
<glyph name="Shchacyr" format="2">
  <advance width="1191"/>
  <unicode hex="0429"/>
  <outline>
    <contour>
      <point x="989" y="0" type="line"/>
      <point x="989" y="62" type="line"/>
      <point x="219" y="62" type="line"/>
      <point x="219" y="0" type="line"/>
    </contour>
    <contour>
      <point x="345" y="710" type="line"/>
      <point x="60" y="710" type="line"/>
      <point x="60" y="648" type="line"/>
      <point x="71" y="648" type="line" smooth="yes"/>
      <point x="120" y="648"/>
      <point x="156" y="641"/>
      <point x="156" y="612" type="curve" smooth="yes"/>
      <point x="156" y="98" type="line" smooth="yes"/>
      <point x="156" y="69"/>
      <point x="120" y="62"/>
      <point x="71" y="62" type="curve" smooth="yes"/>
      <point x="60" y="62" type="line"/>
      <point x="60" y="0" type="line"/>
      <point x="249" y="0" type="line"/>
      <point x="249" y="638" type="line" smooth="yes"/>
      <point x="249" y="645"/>
      <point x="298" y="648"/>
      <point x="336" y="648" type="curve" smooth="yes"/>
      <point x="345" y="648" type="line"/>
    </contour>
    <contour>
      <point x="846" y="710" type="line"/>
      <point x="846" y="648" type="line"/>
      <point x="855" y="648" type="line" smooth="yes"/>
      <point x="893" y="648"/>
      <point x="942" y="645"/>
      <point x="942" y="638" type="curve" smooth="yes"/>
      <point x="942" y="0" type="line"/>
      <point x="1035" y="0" type="line"/>
      <point x="1035" y="612" type="line" smooth="yes"/>
      <point x="1035" y="641"/>
      <point x="1071" y="648"/>
      <point x="1120" y="648" type="curve" smooth="yes"/>
      <point x="1131" y="648" type="line"/>
      <point x="1131" y="710" type="line"/>
    </contour>
    <contour>
      <point x="929" y="0" type="line" smooth="yes"/>
      <point x="1025" y="0"/>
      <point x="1061" y="-17"/>
      <point x="1064" y="-53" type="curve" smooth="yes"/>
      <point x="1077" y="-189" type="line"/>
      <point x="1141" y="-189" type="line"/>
      <point x="1141" y="62" type="line"/>
      <point x="882" y="62" type="line"/>
      <point x="882" y="0" type="line"/>
    </contour>
    <contour>
      <point x="453" y="710" type="line"/>
      <point x="453" y="648" type="line"/>
      <point x="462" y="648" type="line" smooth="yes"/>
      <point x="500" y="648"/>
      <point x="549" y="645"/>
      <point x="549" y="638" type="curve" smooth="yes"/>
      <point x="549" y="0" type="line"/>
      <point x="642" y="0" type="line"/>
      <point x="642" y="638" type="line" smooth="yes"/>
      <point x="642" y="645"/>
      <point x="691" y="648"/>
      <point x="729" y="648" type="curve" smooth="yes"/>
      <point x="738" y="648" type="line"/>
      <point x="738" y="710" type="line"/>
    </contour>
  </outline>
</glyph>
<glyph name="Hardcyr" format="2">
  <advance width="829"/>
  <unicode hex="042A"/>
  <outline>
    <contour>
      <point x="524" y="0" type="line" smooth="yes"/>
      <point x="669" y="0"/>
      <point x="769" y="74"/>
      <point x="769" y="215" type="curve" smooth="yes"/>
      <point x="769" y="362"/>
      <point x="677" y="428"/>
      <point x="524" y="428" type="curve" smooth="yes"/>
      <point x="350" y="428" type="line"/>
      <point x="350" y="366" type="line"/>
      <point x="524" y="366" type="line" smooth="yes"/>
      <point x="623.3150684932" y="366"/>
      <point x="669" y="317"/>
      <point x="669" y="215" type="curve" smooth="yes"/>
      <point x="669" y="111"/>
      <point x="623.3150684932" y="62"/>
      <point x="524" y="62" type="curve" smooth="yes"/>
      <point x="376" y="62" type="line"/>
      <point x="376" y="638" type="line" smooth="yes"/>
      <point x="376" y="645"/>
      <point x="423" y="648"/>
      <point x="471" y="648" type="curve" smooth="yes"/>
      <point x="491" y="648" type="line"/>
      <point x="491" y="710" type="line"/>
      <point x="55" y="710" type="line"/>
      <point x="55" y="469" type="line"/>
      <point x="119" y="469" type="line"/>
      <point x="132" y="595" type="line" smooth="yes"/>
      <point x="136" y="631"/>
      <point x="171" y="648"/>
      <point x="267" y="648" type="curve" smooth="yes"/>
      <point x="283" y="648" type="line"/>
      <point x="283" y="98" type="line" smooth="yes"/>
      <point x="283" y="69"/>
      <point x="247" y="62"/>
      <point x="198" y="62" type="curve" smooth="yes"/>
      <point x="187" y="62" type="line"/>
      <point x="187" y="0" type="line"/>
    </contour>
  </outline>
</glyph>
<glyph name="Yacyr" format="2">
  <advance width="769"/>
  <unicode hex="042F"/>
  <outline>
    <contour>
      <point x="368" y="321" type="line"/>
      <point x="286" y="349" type="line"/>
      <point x="153" y="123" type="line" smooth="yes"/>
      <point x="123" y="72"/>
      <point x="91" y="62"/>
      <point x="45" y="62" type="curve" smooth="yes"/>
      <point x="35" y="62" type="line"/>
      <point x="35" y="0" type="line"/>
      <point x="185" y="0" type="line"/>
    </contour>
    <contour>
      <point x="520" y="72" type="line" smooth="yes"/>
      <point x="520" y="65"/>
      <point x="473" y="62"/>
      <point x="425" y="62" type="curve" smooth="yes"/>
      <point x="405" y="62" type="line"/>
      <point x="405" y="0" type="line"/>
      <point x="709" y="0" type="line"/>
      <point x="709" y="62" type="line"/>
      <point x="698" y="62" type="line" smooth="yes"/>
      <point x="649" y="62"/>
      <point x="613" y="69"/>
      <point x="613" y="98" type="curve" smooth="yes"/>
      <point x="613" y="612" type="line" smooth="yes"/>
      <point x="613" y="641"/>
      <point x="649" y="648"/>
      <point x="698" y="648" type="curve" smooth="yes"/>
      <point x="709" y="648" type="line"/>
      <point x="709" y="710" type="line"/>
      <point x="370" y="710" type="line" smooth="yes"/>
      <point x="218" y="710"/>
      <point x="125" y="637"/>
      <point x="125" y="505" type="curve" smooth="yes"/>
      <point x="125" y="399"/>
      <point x="200" y="321"/>
      <point x="312" y="305" type="curve"/>
      <point x="337" y="298" type="line"/>
      <point x="530" y="298" type="line"/>
      <point x="530" y="360" type="line"/>
      <point x="378" y="360" type="line" smooth="yes"/>
      <point x="273.6818181818" y="360"/>
      <point x="225" y="413"/>
      <point x="225" y="505" type="curve" smooth="yes"/>
      <point x="225" y="599"/>
      <point x="275.6622516556" y="648"/>
      <point x="375" y="648" type="curve" smooth="yes"/>
      <point x="520" y="648" type="line"/>
    </contour>
  </outline>
</glyph>
<glyph name="gecyr" format="2">
  <advance width="560"/>
  <unicode hex="0433"/>
  <outline>
    <contour>
      <point x="136" y="126" type="line" smooth="yes"/>
      <point x="136" y="66"/>
      <point x="105" y="50"/>
      <point x="49" y="50" type="curve" smooth="yes"/>
      <point x="45" y="50" type="line"/>
      <point x="45" y="0" type="line"/>
      <point x="330" y="0" type="line"/>
      <point x="330" y="50" type="line"/>
      <point x="312" y="50" type="line" smooth="yes"/>
      <point x="256" y="50"/>
      <point x="225" y="66"/>
      <point x="225" y="126" type="curve" smooth="yes"/>
      <point x="225" y="565" type="line"/>
      <point x="45" y="565" type="line"/>
      <point x="45" y="515" type="line"/>
      <point x="49" y="515" type="line" smooth="yes"/>
      <point x="105" y="515"/>
      <point x="136" y="499"/>
      <point x="136" y="439" type="curve" smooth="yes"/>
    </contour>
    <contour>
      <point x="154" y="503" type="line"/>
      <point x="343" y="503" type="line" smooth="yes"/>
      <point x="410" y="503"/>
      <point x="440" y="492"/>
      <point x="444" y="450" type="curve" smooth="yes"/>
      <point x="455" y="344" type="line"/>
      <point x="515" y="344" type="line"/>
      <point x="515" y="565" type="line"/>
      <point x="154" y="565" type="line"/>
    </contour>
  </outline>
</glyph>
<glyph name="decyr" format="2">
  <advance width="693"/>
  <unicode hex="0434"/>
  <outline>
    <contour>
      <point x="463" y="37" type="line"/>
      <point x="552" y="37" type="line"/>
      <point x="552" y="439" type="line" smooth="yes"/>
      <point x="552" y="499"/>
      <point x="583" y="515"/>
      <point x="639" y="515" type="curve" smooth="yes"/>
      <point x="643" y="515" type="line"/>
      <point x="643" y="565" type="line"/>
      <point x="463" y="565" type="line"/>
    </contour>
    <contour>
      <point x="219" y="503" type="line"/>
      <point x="517" y="503" type="line"/>
      <point x="517" y="565" type="line"/>
      <point x="219" y="565" type="line"/>
    </contour>
    <contour>
      <point x="580" y="-53" type="curve" smooth="yes"/>
      <point x="593" y="-169" type="line"/>
      <point x="653" y="-169" type="line"/>
      <point x="653" y="62" type="line"/>
      <point x="25" y="62" type="line"/>
      <point x="25" y="-169" type="line"/>
      <point x="85" y="-169" type="line"/>
      <point x="98" y="-53" type="line" smooth="yes"/>
      <point x="103" y="-10"/>
      <point x="130" y="0"/>
      <point x="197" y="0" type="curve" smooth="yes"/>
      <point x="481" y="0" type="line" smooth="yes"/>
      <point x="548" y="0"/>
      <point x="575" y="-10"/>
    </contour>
    <contour>
      <point x="169" y="313" type="line" smooth="yes"/>
      <point x="162" y="175"/>
      <point x="146" y="114"/>
      <point x="94" y="50" type="curve"/>
      <point x="176" y="50" type="line"/>
      <point x="217" y="99"/>
      <point x="233" y="175"/>
      <point x="239" y="310" type="curve" smooth="yes"/>
      <point x="251" y="565" type="line"/>
      <point x="84" y="565" type="line"/>
      <point x="84" y="515" type="line"/>
      <point x="88" y="515" type="line" smooth="yes"/>
      <point x="144" y="515"/>
      <point x="178" y="499"/>
      <point x="175" y="439" type="curve" smooth="yes"/>
    </contour>
  </outline>
</glyph>
<glyph name="zecyr" format="2">
  <advance width="560"/>
  <unicode hex="0437"/>
  <outline>
    <contour>
      <point x="280" y="51" type="curve" smooth="yes"/>
      <point x="207" y="51"/>
      <point x="122" y="73"/>
      <point x="103" y="97" type="curve"/>
      <point x="97" y="65"/>
      <point x="120" y="46"/>
      <point x="152" y="41" type="curve"/>
      <point x="152" y="174" type="line"/>
      <point x="60" y="174" type="line"/>
      <point x="60" y="30" type="line"/>
      <point x="85" y="12"/>
      <point x="169" y="-13"/>
      <point x="280" y="-13" type="curve" smooth="yes"/>
      <point x="426" y="-13"/>
      <point x="510" y="47"/>
      <point x="510" y="154" type="curve" smooth="yes"/>
      <point x="510" y="241.0145985401"/>
      <point x="433" y="285"/>
      <point x="338" y="285" type="curve"/>
      <point x="348" y="267" type="line"/>
      <point x="348" y="306" type="line"/>
      <point x="338" y="289" type="line"/>
      <point x="423" y="289"/>
      <point x="488" y="343.4186046512"/>
      <point x="488" y="424" type="curve" smooth="yes"/>
      <point x="488" y="516"/>
      <point x="416" y="575"/>
      <point x="285" y="575" type="curve" smooth="yes"/>
      <point x="170" y="575"/>
      <point x="106" y="555"/>
      <point x="65" y="535" type="curve"/>
      <point x="65" y="386" type="line"/>
      <point x="157" y="386" type="line"/>
      <point x="157" y="510" type="line"/>
      <point x="125" y="505"/>
      <point x="104" y="496"/>
      <point x="108" y="475" type="curve"/>
      <point x="157" y="500"/>
      <point x="207" y="511"/>
      <point x="285" y="511" type="curve" smooth="yes"/>
      <point x="366" y="511"/>
      <point x="398" y="478"/>
      <point x="398" y="419" type="curve" smooth="yes"/>
      <point x="398" y="357.375"/>
      <point x="370" y="317"/>
      <point x="295" y="317" type="curve" smooth="yes"/>
      <point x="205" y="317" type="line"/>
      <point x="205" y="255" type="line"/>
      <point x="296" y="255" type="line" smooth="yes"/>
      <point x="380" y="255"/>
      <point x="420" y="222.0588235294"/>
      <point x="420" y="159" type="curve" smooth="yes"/>
      <point x="420" y="92"/>
      <point x="379" y="51"/>
    </contour>
  </outline>
</glyph>
<glyph name="encyr" format="2">
  <advance width="710"/>
  <unicode hex="043D"/>
  <outline>
    <contour>
      <point x="136" y="126" type="line" smooth="yes"/>
      <point x="136" y="66"/>
      <point x="105" y="50"/>
      <point x="49" y="50" type="curve" smooth="yes"/>
      <point x="45" y="50" type="line"/>
      <point x="45" y="0" type="line"/>
      <point x="302" y="0" type="line"/>
      <point x="302" y="50" type="line"/>
      <point x="297" y="50" type="line" smooth="yes"/>
      <point x="269" y="50"/>
      <point x="225" y="53"/>
      <point x="225" y="60" type="curve" smooth="yes"/>
      <point x="225" y="505" type="line" smooth="yes"/>
      <point x="225" y="512"/>
      <point x="269" y="515"/>
      <point x="297" y="515" type="curve" smooth="yes"/>
      <point x="302" y="515" type="line"/>
      <point x="302" y="565" type="line"/>
      <point x="45" y="565" type="line"/>
      <point x="45" y="515" type="line"/>
      <point x="49" y="515" type="line" smooth="yes"/>
      <point x="105" y="515"/>
      <point x="136" y="499"/>
      <point x="136" y="439" type="curve" smooth="yes"/>
    </contour>
    <contour>
      <point x="485" y="60" type="line" smooth="yes"/>
      <point x="485" y="53"/>
      <point x="441" y="50"/>
      <point x="413" y="50" type="curve" smooth="yes"/>
      <point x="408" y="50" type="line"/>
      <point x="408" y="0" type="line"/>
      <point x="665" y="0" type="line"/>
      <point x="665" y="50" type="line"/>
      <point x="661" y="50" type="line" smooth="yes"/>
      <point x="605" y="50"/>
      <point x="574" y="66"/>
      <point x="574" y="126" type="curve" smooth="yes"/>
      <point x="574" y="439" type="line" smooth="yes"/>
      <point x="574" y="499"/>
      <point x="605" y="515"/>
      <point x="661" y="515" type="curve" smooth="yes"/>
      <point x="665" y="515" type="line"/>
      <point x="665" y="565" type="line"/>
      <point x="408" y="565" type="line"/>
      <point x="408" y="515" type="line"/>
      <point x="413" y="515" type="line" smooth="yes"/>
      <point x="441" y="515"/>
      <point x="485" y="512"/>
      <point x="485" y="505" type="curve" smooth="yes"/>
    </contour>
    <contour>
      <point x="170" y="261" type="line"/>
      <point x="549" y="261" type="line"/>
      <point x="549" y="323" type="line"/>
      <point x="170" y="323" type="line"/>
    </contour>
  </outline>
</glyph>
<glyph name="tsecyr" format="2">
  <advance width="705"/>
  <unicode hex="0446"/>
  <outline>
    <contour>
      <point x="136" y="439" type="curve" smooth="yes"/>
      <point x="136" y="126" type="line" smooth="yes"/>
      <point x="136" y="66"/>
      <point x="105" y="50"/>
      <point x="49" y="50" type="curve" smooth="yes"/>
      <point x="45" y="50" type="line"/>
      <point x="45" y="0" type="line"/>
      <point x="225" y="0" type="line"/>
      <point x="225" y="505" type="line" smooth="yes"/>
      <point x="225" y="512"/>
      <point x="269" y="515"/>
      <point x="297" y="515" type="curve" smooth="yes"/>
      <point x="302" y="515" type="line"/>
      <point x="302" y="565" type="line"/>
      <point x="45" y="565" type="line"/>
      <point x="45" y="515" type="line"/>
      <point x="49" y="515" type="line" smooth="yes"/>
      <point x="105" y="515"/>
      <point x="136" y="499"/>
    </contour>
    <contour>
      <point x="475" y="505" type="curve" smooth="yes"/>
      <point x="475" y="30" type="line"/>
      <point x="564" y="30" type="line"/>
      <point x="564" y="439" type="line" smooth="yes"/>
      <point x="564" y="499"/>
      <point x="595" y="515"/>
      <point x="651" y="515" type="curve" smooth="yes"/>
      <point x="655" y="515" type="line"/>
      <point x="655" y="565" type="line"/>
      <point x="398" y="565" type="line"/>
      <point x="398" y="515" type="line"/>
      <point x="403" y="515" type="line" smooth="yes"/>
      <point x="431" y="515"/>
      <point x="475" y="512"/>
    </contour>
    <contour>
      <point x="436" y="0" type="line"/>
      <point x="493" y="0" type="line" smooth="yes"/>
      <point x="560.3611111111" y="0"/>
      <point x="587" y="-10"/>
      <point x="592" y="-53" type="curve" smooth="yes"/>
      <point x="605" y="-169" type="line"/>
      <point x="665" y="-169" type="line"/>
      <point x="665" y="62" type="line"/>
      <point x="436" y="62" type="line"/>
    </contour>
    <contour>
      <point x="161" y="0" type="line"/>
      <point x="507" y="0" type="line"/>
      <point x="507" y="62" type="line"/>
      <point x="161" y="62" type="line"/>
    </contour>
  </outline>
</glyph>
<glyph name="checyr" format="2">
  <advance width="675"/>
  <unicode hex="0447"/>
  <guideline x="855" y="515" angle="90" identifier="GGEFes61Q6"/>
  <outline>
    <contour>
      <point x="450" y="60" type="line" smooth="yes"/>
      <point x="450" y="53"/>
      <point x="406" y="50"/>
      <point x="378" y="50" type="curve" smooth="yes"/>
      <point x="373" y="50" type="line"/>
      <point x="373" y="0" type="line"/>
      <point x="630" y="0" type="line"/>
      <point x="630" y="50" type="line"/>
      <point x="626" y="50" type="line" smooth="yes"/>
      <point x="570" y="50"/>
      <point x="539" y="66"/>
      <point x="539" y="126" type="curve" smooth="yes"/>
      <point x="539" y="439" type="line" smooth="yes"/>
      <point x="539" y="499"/>
      <point x="570" y="515"/>
      <point x="626" y="515" type="curve" smooth="yes"/>
      <point x="630" y="515" type="line"/>
      <point x="630" y="565" type="line"/>
      <point x="373" y="565" type="line"/>
      <point x="373" y="515" type="line"/>
      <point x="378" y="515" type="line" smooth="yes"/>
      <point x="406" y="515"/>
      <point x="450" y="512"/>
      <point x="450" y="505" type="curve" smooth="yes"/>
    </contour>
    <contour>
      <point x="121" y="374" type="line" smooth="yes"/>
      <point x="121" y="275.7013888889"/>
      <point x="161" y="225"/>
      <point x="300" y="225" type="curve" smooth="yes"/>
      <point x="365" y="225"/>
      <point x="405" y="233"/>
      <point x="457" y="249" type="curve"/>
      <point x="457" y="309" type="line"/>
      <point x="404" y="293"/>
      <point x="366" y="287"/>
      <point x="310" y="287" type="curve" smooth="yes"/>
      <point x="242" y="287"/>
      <point x="210" y="319.4939759036"/>
      <point x="210" y="374" type="curve" smooth="yes"/>
      <point x="210" y="505" type="line" smooth="yes"/>
      <point x="210" y="512"/>
      <point x="254" y="515"/>
      <point x="282" y="515" type="curve" smooth="yes"/>
      <point x="287" y="515" type="line"/>
      <point x="287" y="565" type="line"/>
      <point x="30" y="565" type="line"/>
      <point x="30" y="515" type="line"/>
      <point x="34" y="515" type="line" smooth="yes"/>
      <point x="90" y="515"/>
      <point x="121" y="499"/>
      <point x="121" y="439" type="curve" smooth="yes"/>
    </contour>
  </outline>
</glyph>
<glyph name="softcyr" format="2">
  <advance width="570"/>
  <unicode hex="044C"/>
  <outline>
    <contour>
      <point x="225" y="62" type="line"/>
      <point x="225" y="505" type="line" smooth="yes"/>
      <point x="225" y="512"/>
      <point x="269" y="515"/>
      <point x="297" y="515" type="curve" smooth="yes"/>
      <point x="302" y="515" type="line"/>
      <point x="302" y="565" type="line"/>
      <point x="45" y="565" type="line"/>
      <point x="45" y="515" type="line"/>
      <point x="49" y="515" type="line" smooth="yes"/>
      <point x="105" y="515"/>
      <point x="136" y="499"/>
      <point x="136" y="439" type="curve" smooth="yes"/>
      <point x="136" y="126" type="line" smooth="yes"/>
      <point x="136" y="66"/>
      <point x="105" y="50"/>
      <point x="49" y="50" type="curve" smooth="yes"/>
      <point x="45" y="50" type="line"/>
      <point x="45" y="0" type="line"/>
      <point x="332" y="0" type="line" smooth="yes"/>
      <point x="467" y="0"/>
      <point x="540" y="75"/>
      <point x="540" y="180" type="curve" smooth="yes"/>
      <point x="540" y="281"/>
      <point x="472" y="345"/>
      <point x="337" y="345" type="curve" smooth="yes"/>
      <point x="187" y="345" type="line"/>
      <point x="187" y="283" type="line"/>
      <point x="335" y="283" type="line" smooth="yes"/>
      <point x="412" y="283"/>
      <point x="450" y="244"/>
      <point x="450" y="180" type="curve" smooth="yes"/>
      <point x="450" y="109"/>
      <point x="412" y="62"/>
      <point x="330" y="62" type="curve" smooth="yes"/>
    </contour>
  </outline>
</glyph>
<glyph name="yucyr" format="2">
  <advance width="931"/>
  <unicode hex="044E"/>
  <outline>
    <contour>
      <point x="136" y="126" type="line" smooth="yes"/>
      <point x="136" y="66"/>
      <point x="105" y="50"/>
      <point x="49" y="50" type="curve" smooth="yes"/>
      <point x="45" y="50" type="line"/>
      <point x="45" y="0" type="line"/>
      <point x="302" y="0" type="line"/>
      <point x="302" y="50" type="line"/>
      <point x="297" y="50" type="line" smooth="yes"/>
      <point x="269" y="50"/>
      <point x="225" y="53"/>
      <point x="225" y="60" type="curve" smooth="yes"/>
      <point x="225" y="505" type="line" smooth="yes"/>
      <point x="225" y="512"/>
      <point x="269" y="515"/>
      <point x="297" y="515" type="curve" smooth="yes"/>
      <point x="302" y="515" type="line"/>
      <point x="302" y="565" type="line"/>
      <point x="45" y="565" type="line"/>
      <point x="45" y="515" type="line"/>
      <point x="49" y="515" type="line" smooth="yes"/>
      <point x="105" y="515"/>
      <point x="136" y="499"/>
      <point x="136" y="439" type="curve" smooth="yes"/>
    </contour>
    <contour>
      <point x="170" y="261" type="line"/>
      <point x="390" y="261" type="line"/>
      <point x="390" y="323" type="line"/>
      <point x="170" y="323" type="line"/>
    </contour>
    <contour>
      <point x="881" y="281" type="curve" smooth="yes"/>
      <point x="881" y="467"/>
      <point x="777" y="575"/>
      <point x="608" y="575" type="curve" smooth="yes"/>
      <point x="438" y="575"/>
      <point x="335" y="467"/>
      <point x="335" y="281" type="curve" smooth="yes"/>
      <point x="335" y="95"/>
      <point x="438" y="-13"/>
      <point x="608" y="-13" type="curve" smooth="yes"/>
      <point x="777" y="-13"/>
      <point x="881" y="95"/>
    </contour>
    <contour>
      <point x="429" y="281" type="curve" smooth="yes"/>
      <point x="429" y="435"/>
      <point x="483" y="511"/>
      <point x="608" y="511" type="curve" smooth="yes"/>
      <point x="733" y="511"/>
      <point x="787" y="434"/>
      <point x="787" y="281" type="curve" smooth="yes"/>
      <point x="787" y="116"/>
      <point x="733" y="51"/>
      <point x="608" y="51" type="curve" smooth="yes"/>
      <point x="483" y="51"/>
      <point x="429" y="117"/>
    </contour>
  </outline>
</glyph>
<glyph name="ljecyr" format="2">
  <advance width="871"/>
  <unicode hex="0459"/>
  <outline>
    <contour>
      <point x="161" y="238" type="line" smooth="yes"/>
      <point x="156" y="120"/>
      <point x="134" y="78"/>
      <point x="72" y="78" type="curve" smooth="yes"/>
      <point x="45" y="78"/>
      <point x="25" y="83"/>
      <point x="15" y="88" type="curve"/>
      <point x="15" y="-3" type="line"/>
      <point x="26" y="-9"/>
      <point x="50" y="-13"/>
      <point x="74" y="-13" type="curve" smooth="yes"/>
      <point x="173.264516129" y="-13"/>
      <point x="224.0270889819" y="57.9953356936"/>
      <point x="231" y="235" type="curve" smooth="yes"/>
      <point x="244" y="565" type="line"/>
      <point x="78" y="565" type="line"/>
      <point x="78" y="515" type="line"/>
      <point x="82" y="515" type="line" smooth="yes"/>
      <point x="138" y="515"/>
      <point x="171" y="499"/>
      <point x="169" y="439" type="curve" smooth="yes"/>
    </contour>
    <contour>
      <point x="223" y="503" type="line"/>
      <point x="501" y="503" type="line"/>
      <point x="501" y="565" type="line"/>
      <point x="223" y="565" type="line"/>
    </contour>
    <contour>
      <point x="437" y="60" type="line" smooth="yes"/>
      <point x="437" y="53"/>
      <point x="393" y="50"/>
      <point x="365" y="50" type="curve" smooth="yes"/>
      <point x="360" y="50" type="line"/>
      <point x="360" y="0" type="line"/>
      <point x="633" y="0" type="line" smooth="yes"/>
      <point x="768" y="0"/>
      <point x="841" y="75"/>
      <point x="841" y="180" type="curve" smooth="yes"/>
      <point x="841" y="281"/>
      <point x="773" y="345"/>
      <point x="638" y="345" type="curve" smooth="yes"/>
      <point x="487" y="345" type="line"/>
      <point x="487" y="283" type="line"/>
      <point x="636" y="283" type="line" smooth="yes"/>
      <point x="713" y="283"/>
      <point x="751" y="244"/>
      <point x="751" y="180" type="curve" smooth="yes"/>
      <point x="751" y="109"/>
      <point x="713" y="62"/>
      <point x="631" y="62" type="curve" smooth="yes"/>
      <point x="526" y="62" type="line"/>
      <point x="526" y="439" type="line" smooth="yes"/>
      <point x="526" y="499"/>
      <point x="557" y="515"/>
      <point x="613" y="515" type="curve" smooth="yes"/>
      <point x="617" y="515" type="line"/>
      <point x="617" y="565" type="line"/>
      <point x="437" y="565" type="line"/>
    </contour>
  </outline>
</glyph>
<glyph name="dzhecyr" format="2">
  <advance width="700"/>
  <unicode hex="045F"/>
  <outline>
    <contour>
      <point x="136" y="439" type="curve" smooth="yes"/>
      <point x="136" y="126" type="line" smooth="yes"/>
      <point x="136" y="66"/>
      <point x="105" y="50"/>
      <point x="49" y="50" type="curve" smooth="yes"/>
      <point x="45" y="50" type="line"/>
      <point x="45" y="0" type="line"/>
      <point x="225" y="0" type="line"/>
      <point x="225" y="505" type="line" smooth="yes"/>
      <point x="225" y="512"/>
      <point x="269" y="515"/>
      <point x="297" y="515" type="curve" smooth="yes"/>
      <point x="302" y="515" type="line"/>
      <point x="302" y="565" type="line"/>
      <point x="45" y="565" type="line"/>
      <point x="45" y="515" type="line"/>
      <point x="49" y="515" type="line" smooth="yes"/>
      <point x="105" y="515"/>
      <point x="136" y="499"/>
    </contour>
    <contour>
      <point x="475" y="505" type="curve" smooth="yes"/>
      <point x="475" y="0" type="line"/>
      <point x="655" y="0" type="line"/>
      <point x="655" y="50" type="line"/>
      <point x="651" y="50" type="line" smooth="yes"/>
      <point x="595" y="50"/>
      <point x="564" y="66"/>
      <point x="564" y="126" type="curve" smooth="yes"/>
      <point x="564" y="439" type="line" smooth="yes"/>
      <point x="564" y="499"/>
      <point x="595" y="515"/>
      <point x="651" y="515" type="curve" smooth="yes"/>
      <point x="655" y="515" type="line"/>
      <point x="655" y="565" type="line"/>
      <point x="398" y="565" type="line"/>
      <point x="398" y="515" type="line"/>
      <point x="403" y="515" type="line" smooth="yes"/>
      <point x="431" y="515"/>
      <point x="475" y="512"/>
    </contour>
    <contour>
      <point x="158" y="0" type="line"/>
      <point x="208" y="0" type="line" smooth="yes"/>
      <point x="275" y="0"/>
      <point x="302" y="-10"/>
      <point x="307" y="-53" type="curve" smooth="yes"/>
      <point x="320" y="-169" type="line"/>
      <point x="380" y="-169" type="line"/>
      <point x="393" y="-53" type="line" smooth="yes"/>
      <point x="398" y="-10"/>
      <point x="425" y="0"/>
      <point x="492" y="0" type="curve" smooth="yes"/>
      <point x="542" y="0" type="line"/>
      <point x="542" y="62" type="line"/>
      <point x="158" y="62" type="line"/>
    </contour>
  </outline>
</glyph>
<glyph name="Geupcyr" format="2">
  <advance width="665"/>
  <unicode hex="0490"/>
  <outline>
    <contour>
      <point x="249" y="648" type="line"/>
      <point x="615" y="648" type="line"/>
      <point x="615" y="899" type="line"/>
      <point x="551" y="899" type="line"/>
      <point x="538" y="763" type="line" smooth="yes"/>
      <point x="534.4969111636" y="726.3523014039"/>
      <point x="499" y="710"/>
      <point x="403" y="710" type="curve" smooth="yes"/>
      <point x="60" y="710" type="line"/>
      <point x="60" y="648" type="line"/>
      <point x="71" y="648" type="line" smooth="yes"/>
      <point x="120" y="648"/>
      <point x="156" y="641"/>
      <point x="156" y="612" type="curve" smooth="yes"/>
      <point x="156" y="98" type="line" smooth="yes"/>
      <point x="156" y="69"/>
      <point x="120" y="62"/>
      <point x="71" y="62" type="curve" smooth="yes"/>
      <point x="60" y="62" type="line"/>
      <point x="60" y="0" type="line"/>
      <point x="364" y="0" type="line"/>
      <point x="364" y="62" type="line"/>
      <point x="334" y="62" type="line" smooth="yes"/>
      <point x="285" y="62"/>
      <point x="249" y="69"/>
      <point x="249" y="98" type="curve" smooth="yes"/>
    </contour>
  </outline>
</glyph>
<glyph name="Zhetailcyr" format="2">
  <advance width="1140"/>
  <unicode hex="0496"/>
  <guideline x="480" y="796" angle="90" identifier="UtVQBdjH7A"/>
  <outline>
    <contour>
      <point x="813" y="0" type="line"/>
      <point x="1037" y="0" type="line"/>
      <point x="1037" y="62" type="line"/>
      <point x="733" y="399" type="line"/>
      <point x="725" y="357" type="line"/>
      <point x="979" y="619" type="line" smooth="yes"/>
      <point x="1000" y="641"/>
      <point x="1022" y="648"/>
      <point x="1054" y="648" type="curve" smooth="yes"/>
      <point x="1085" y="648" type="line"/>
      <point x="1085" y="710" type="line"/>
      <point x="827" y="710" type="line"/>
      <point x="827" y="648" type="line"/>
      <point x="836" y="648" type="line" smooth="yes"/>
      <point x="878" y="648"/>
      <point x="919" y="644"/>
      <point x="919" y="637" type="curve"/>
      <point x="664" y="373" type="line"/>
      <point x="664" y="343" type="line"/>
      <point x="907" y="72" type="line"/>
      <point x="907" y="65"/>
      <point x="863" y="62"/>
      <point x="822" y="62" type="curve" smooth="yes"/>
      <point x="813" y="62" type="line"/>
    </contour>
    <contour>
      <point x="322" y="0" type="line"/>
      <point x="322" y="62" type="line"/>
      <point x="313" y="62" type="line" smooth="yes"/>
      <point x="272" y="62"/>
      <point x="228" y="65"/>
      <point x="228" y="72" type="curve"/>
      <point x="471" y="343" type="line"/>
      <point x="471" y="373" type="line"/>
      <point x="216" y="637" type="line"/>
      <point x="216" y="644"/>
      <point x="257" y="648"/>
      <point x="299" y="648" type="curve" smooth="yes"/>
      <point x="308" y="648" type="line"/>
      <point x="308" y="710" type="line"/>
      <point x="48" y="710" type="line"/>
      <point x="48" y="648" type="line"/>
      <point x="79" y="648" type="line" smooth="yes"/>
      <point x="111" y="648"/>
      <point x="133" y="641"/>
      <point x="154" y="619" type="curve" smooth="yes"/>
      <point x="408" y="357" type="line"/>
      <point x="407" y="399" type="line"/>
      <point x="122" y="83" type="line" smooth="yes"/>
      <point x="104" y="64"/>
      <point x="83" y="62"/>
      <point x="48" y="62" type="curve" smooth="yes"/>
      <point x="30" y="62" type="line"/>
      <point x="30" y="0" type="line"/>
    </contour>
    <contour>
      <point x="918" y="0" type="line" smooth="yes"/>
      <point x="1014" y="0"/>
      <point x="1050" y="-17"/>
      <point x="1053" y="-53" type="curve" smooth="yes"/>
      <point x="1066" y="-189" type="line"/>
      <point x="1130" y="-189" type="line"/>
      <point x="1130" y="62" type="line"/>
      <point x="909" y="62" type="line"/>
      <point x="909" y="0" type="line"/>
    </contour>
    <contour>
      <point x="425" y="0" type="line"/>
      <point x="710" y="0" type="line"/>
      <point x="710" y="62" type="line"/>
      <point x="701" y="62" type="line" smooth="yes"/>
      <point x="663" y="62"/>
      <point x="614" y="65"/>
      <point x="614" y="72" type="curve" smooth="yes"/>
      <point x="614" y="638" type="line" smooth="yes"/>
      <point x="614" y="645"/>
      <point x="663" y="648"/>
      <point x="701" y="648" type="curve" smooth="yes"/>
      <point x="710" y="648" type="line"/>
      <point x="710" y="710" type="line"/>
      <point x="425" y="710" type="line"/>
      <point x="425" y="648" type="line"/>
      <point x="434" y="648" type="line" smooth="yes"/>
      <point x="472" y="648"/>
      <point x="521" y="645"/>
      <point x="521" y="638" type="curve" smooth="yes"/>
      <point x="521" y="72" type="line" smooth="yes"/>
      <point x="521" y="65"/>
      <point x="472" y="62"/>
      <point x="434" y="62" type="curve" smooth="yes"/>
      <point x="425" y="62" type="line"/>
    </contour>
  </outline>
</glyph>
<glyph name="katailcyr" format="2">
  <advance width="705"/>
  <unicode hex="049B"/>
  <guideline x="241" y="553" angle="90" identifier="lmgRx0QBdK"/>
  <guideline x="855" y="515" angle="90" identifier="HbgNLKm7c4"/>
  <outline>
    <contour>
      <point x="136" y="126" type="line" smooth="yes"/>
      <point x="136" y="66"/>
      <point x="105" y="50"/>
      <point x="49" y="50" type="curve" smooth="yes"/>
      <point x="45" y="50" type="line"/>
      <point x="45" y="0" type="line"/>
      <point x="306" y="0" type="line"/>
      <point x="306" y="50" type="line"/>
      <point x="298" y="50" type="line" smooth="yes"/>
      <point x="272" y="50"/>
      <point x="225" y="53"/>
      <point x="225" y="60" type="curve" smooth="yes"/>
      <point x="225" y="505" type="line" smooth="yes"/>
      <point x="225" y="512"/>
      <point x="272" y="515"/>
      <point x="298" y="515" type="curve" smooth="yes"/>
      <point x="306" y="515" type="line"/>
      <point x="306" y="565" type="line"/>
      <point x="45" y="565" type="line"/>
      <point x="45" y="515" type="line"/>
      <point x="49" y="515" type="line" smooth="yes"/>
      <point x="105" y="515"/>
      <point x="136" y="499"/>
      <point x="136" y="439" type="curve" smooth="yes"/>
    </contour>
    <contour>
      <point x="602" y="0" type="line"/>
      <point x="602" y="62" type="line"/>
      <point x="342" y="339" type="line"/>
      <point x="337" y="278" type="line"/>
      <point x="541" y="479" type="line" smooth="yes"/>
      <point x="572" y="510"/>
      <point x="593" y="515"/>
      <point x="635" y="515" type="curve" smooth="yes"/>
      <point x="653" y="515" type="line"/>
      <point x="653" y="565" type="line"/>
      <point x="374" y="565" type="line"/>
      <point x="374" y="515" type="line"/>
      <point x="390" y="515" type="line" smooth="yes"/>
      <point x="426" y="515"/>
      <point x="475" y="508"/>
      <point x="475" y="501" type="curve"/>
      <point x="276" y="302" type="line"/>
      <point x="276" y="292" type="line"/>
      <point x="489" y="60" type="line"/>
      <point x="489" y="54"/>
      <point x="450" y="50"/>
      <point x="419" y="50" type="curve" smooth="yes"/>
      <point x="411" y="50" type="line"/>
      <point x="411" y="0" type="line"/>
    </contour>
    <contour>
      <point x="515" y="0" type="line"/>
      <point x="518" y="0" type="line" smooth="yes"/>
      <point x="585" y="0"/>
      <point x="612" y="-10"/>
      <point x="617" y="-53" type="curve" smooth="yes"/>
      <point x="630" y="-169" type="line"/>
      <point x="690" y="-169" type="line"/>
      <point x="690" y="62" type="line"/>
      <point x="515" y="62" type="line"/>
    </contour>
  </outline>
</glyph>
<glyph name="Kaverticalstrokecyr" format="2">
  <advance width="870"/>
  <unicode hex="049C"/>
  <guideline x="480" y="796" angle="90" identifier="LxfLwWU0sJ"/>
  <outline>
    <contour>
      <point x="336" y="171" type="line"/>
      <point x="398" y="171" type="line"/>
      <point x="398" y="544" type="line"/>
      <point x="336" y="544" type="line"/>
    </contour>
    <contour>
      <point x="60" y="0" type="line"/>
      <point x="340" y="0" type="line"/>
      <point x="340" y="62" type="line"/>
      <point x="331" y="62" type="line"/>
      <point x="298" y="62"/>
      <point x="249" y="65"/>
      <point x="249" y="72" type="curve" smooth="yes"/>
      <point x="249" y="638" type="line" smooth="yes"/>
      <point x="249" y="645"/>
      <point x="298" y="648"/>
      <point x="331" y="648" type="curve" smooth="yes"/>
      <point x="340" y="648" type="line"/>
      <point x="340" y="710" type="line"/>
      <point x="60" y="710" type="line"/>
      <point x="60" y="648" type="line"/>
      <point x="71" y="648" type="line" smooth="yes"/>
      <point x="120" y="648"/>
      <point x="156" y="641"/>
      <point x="156" y="612" type="curve" smooth="yes"/>
      <point x="156" y="98" type="line" smooth="yes"/>
      <point x="156" y="69"/>
      <point x="120" y="62"/>
      <point x="71" y="62" type="curve" smooth="yes"/>
      <point x="60" y="62" type="line"/>
    </contour>
    <contour>
      <point x="550" y="0" type="line"/>
      <point x="840" y="0" type="line"/>
      <point x="840" y="62" type="line"/>
      <point x="822" y="62" type="line" smooth="yes"/>
      <point x="787" y="62"/>
      <point x="763" y="62"/>
      <point x="748" y="83" type="curve" smooth="yes"/>
      <point x="515" y="399" type="line"/>
      <point x="503" y="356" type="line"/>
      <point x="714" y="619" type="line" smooth="yes"/>
      <point x="733" y="643"/>
      <point x="757" y="648"/>
      <point x="789" y="648" type="curve" smooth="yes"/>
      <point x="820" y="648" type="line"/>
      <point x="820" y="710" type="line"/>
      <point x="564" y="710" type="line"/>
      <point x="564" y="648" type="line"/>
      <point x="573" y="648" type="line" smooth="yes"/>
      <point x="615" y="648"/>
      <point x="656" y="644"/>
      <point x="656" y="637" type="curve"/>
      <point x="446" y="373" type="line"/>
      <point x="446" y="343" type="line"/>
      <point x="644" y="72" type="line"/>
      <point x="644" y="65"/>
      <point x="600" y="62"/>
      <point x="559" y="62" type="curve" smooth="yes"/>
      <point x="550" y="62" type="line"/>
    </contour>
  </outline>
</glyph>
<glyph name="Kabashkcyr" format="2">
  <advance width="940"/>
  <unicode hex="04A0"/>
  <outline>
    <contour>
      <point x="610" y="0" type="line"/>
      <point x="910" y="0" type="line"/>
      <point x="910" y="62" type="line"/>
      <point x="892" y="62" type="line" smooth="yes"/>
      <point x="857" y="62"/>
      <point x="836" y="64"/>
      <point x="818" y="83" type="curve" smooth="yes"/>
      <point x="515" y="399" type="line"/>
      <point x="507" y="356" type="line"/>
      <point x="778" y="619" type="line" smooth="yes"/>
      <point x="800" y="640"/>
      <point x="821" y="648"/>
      <point x="853" y="648" type="curve" smooth="yes"/>
      <point x="884" y="648" type="line"/>
      <point x="884" y="710" type="line"/>
      <point x="624" y="710" type="line"/>
      <point x="624" y="648" type="line"/>
      <point x="633" y="648" type="line" smooth="yes"/>
      <point x="675" y="648"/>
      <point x="716" y="644"/>
      <point x="716" y="637" type="curve"/>
      <point x="446" y="373" type="line"/>
      <point x="446" y="343" type="line"/>
      <point x="704" y="72" type="line"/>
      <point x="704" y="65"/>
      <point x="660" y="62"/>
      <point x="619" y="62" type="curve" smooth="yes"/>
      <point x="610" y="62" type="line"/>
    </contour>
    <contour>
      <point x="207" y="0" type="line"/>
      <point x="487" y="0" type="line"/>
      <point x="487" y="62" type="line"/>
      <point x="478" y="62" type="line"/>
      <point x="445" y="62"/>
      <point x="396" y="65"/>
      <point x="396" y="72" type="curve" smooth="yes"/>
      <point x="396" y="638" type="line" smooth="yes"/>
      <point x="396" y="645"/>
      <point x="445" y="648"/>
      <point x="478" y="648" type="curve" smooth="yes"/>
      <point x="487" y="648" type="line"/>
      <point x="487" y="710" type="line"/>
      <point x="55" y="710" type="line"/>
      <point x="55" y="469" type="line"/>
      <point x="119" y="469" type="line"/>
      <point x="132" y="595" type="line" smooth="yes"/>
      <point x="136" y="631"/>
      <point x="171" y="648"/>
      <point x="267" y="648" type="curve" smooth="yes"/>
      <point x="303" y="648" type="line"/>
      <point x="303" y="98" type="line" smooth="yes"/>
      <point x="303" y="69"/>
      <point x="267" y="62"/>
      <point x="218" y="62" type="curve" smooth="yes"/>
      <point x="207" y="62" type="line"/>
    </contour>
  </outline>
</glyph>
<glyph name="Entailcyr" format="2">
  <advance width="873"/>
  <unicode hex="04A2"/>
  <outline>
    <contour>
      <point x="229" y="397" type="line"/>
      <point x="229" y="335" type="line"/>
      <point x="644" y="335" type="line"/>
      <point x="644" y="397" type="line"/>
    </contour>
    <contour>
      <point x="60" y="0" type="line"/>
      <point x="345" y="0" type="line"/>
      <point x="345" y="62" type="line"/>
      <point x="336" y="62" type="line" smooth="yes"/>
      <point x="298" y="62"/>
      <point x="249" y="65"/>
      <point x="249" y="72" type="curve" smooth="yes"/>
      <point x="249" y="638" type="line" smooth="yes"/>
      <point x="249" y="645"/>
      <point x="298" y="648"/>
      <point x="336" y="648" type="curve" smooth="yes"/>
      <point x="345" y="648" type="line"/>
      <point x="345" y="710" type="line"/>
      <point x="60" y="710" type="line"/>
      <point x="60" y="648" type="line"/>
      <point x="71" y="648" type="line" smooth="yes"/>
      <point x="120" y="648"/>
      <point x="156" y="641"/>
      <point x="156" y="612" type="curve" smooth="yes"/>
      <point x="156" y="98" type="line" smooth="yes"/>
      <point x="156" y="69"/>
      <point x="120" y="62"/>
      <point x="71" y="62" type="curve" smooth="yes"/>
      <point x="60" y="62" type="line"/>
    </contour>
    <contour>
      <point x="528" y="0" type="line"/>
      <point x="717" y="0" type="line"/>
      <point x="717" y="612" type="line" smooth="yes"/>
      <point x="717" y="641"/>
      <point x="753" y="648"/>
      <point x="802" y="648" type="curve" smooth="yes"/>
      <point x="813" y="648" type="line"/>
      <point x="813" y="710" type="line"/>
      <point x="528" y="710" type="line"/>
      <point x="528" y="648" type="line"/>
      <point x="537" y="648" type="line" smooth="yes"/>
      <point x="575" y="648"/>
      <point x="624" y="645"/>
      <point x="624" y="638" type="curve" smooth="yes"/>
      <point x="624" y="72" type="line" smooth="yes"/>
      <point x="624" y="65"/>
      <point x="575" y="62"/>
      <point x="537" y="62" type="curve" smooth="yes"/>
      <point x="528" y="62" type="line"/>
    </contour>
    <contour>
      <point x="611" y="0" type="line" smooth="yes"/>
      <point x="707" y="0"/>
      <point x="743" y="-17"/>
      <point x="746" y="-53" type="curve" smooth="yes"/>
      <point x="759" y="-189" type="line"/>
      <point x="823" y="-189" type="line"/>
      <point x="823" y="62" type="line"/>
      <point x="602" y="62" type="line"/>
      <point x="602" y="0" type="line"/>
    </contour>
  </outline>
</glyph>
<glyph name="tetailcyr" format="2">
  <advance width="619"/>
  <unicode hex="04AD"/>
  <outline>
    <contour>
      <point x="164" y="0" type="line"/>
      <point x="354" y="0" type="line"/>
      <point x="354" y="565" type="line"/>
      <point x="265" y="565" type="line"/>
      <point x="265" y="116" type="line" smooth="yes"/>
      <point x="265" y="64"/>
      <point x="235" y="50"/>
      <point x="179" y="50" type="curve" smooth="yes"/>
      <point x="164" y="50" type="line"/>
    </contour>
    <contour>
      <point x="465" y="-169" type="line"/>
      <point x="465" y="62" type="line"/>
      <point x="265" y="62" type="line"/>
      <point x="265" y="0" type="line"/>
      <point x="293" y="0" type="line" smooth="yes"/>
      <point x="360" y="0"/>
      <point x="387" y="-10"/>
      <point x="392" y="-53" type="curve" smooth="yes"/>
      <point x="405" y="-169" type="line"/>
    </contour>
    <contour>
      <point x="503" y="450" type="curve" smooth="yes"/>
      <point x="514" y="344" type="line"/>
      <point x="574" y="344" type="line"/>
      <point x="574" y="565" type="line"/>
      <point x="45" y="565" type="line"/>
      <point x="45" y="344" type="line"/>
      <point x="105" y="344" type="line"/>
      <point x="116" y="450" type="line" smooth="yes"/>
      <point x="120" y="492"/>
      <point x="150" y="503"/>
      <point x="217" y="503" type="curve" smooth="yes"/>
      <point x="402" y="503" type="line" smooth="yes"/>
      <point x="469" y="503"/>
      <point x="499" y="492"/>
    </contour>
  </outline>
</glyph>
<glyph name="ustraightcyr" format="2">
  <advance width="674"/>
  <unicode hex="04AF"/>
  <outline>
    <contour>
      <point x="381" y="0" type="line"/>
      <point x="559" y="447" type="line" smooth="yes"/>
      <point x="578" y="494"/>
      <point x="600" y="505"/>
      <point x="647" y="505" type="curve" smooth="yes"/>
      <point x="654" y="505" type="line"/>
      <point x="654" y="565" type="line"/>
      <point x="412" y="565" type="line"/>
      <point x="412" y="505" type="line"/>
      <point x="420" y="505" type="line" smooth="yes"/>
      <point x="459" y="505"/>
      <point x="498" y="494"/>
      <point x="498" y="482" type="curve"/>
      <point x="335" y="53" type="line"/>
      <point x="365" y="32" type="line"/>
      <point x="188" y="497" type="line"/>
      <point x="188" y="504"/>
      <point x="227" y="505"/>
      <point x="271" y="505" type="curve" smooth="yes"/>
      <point x="279" y="505" type="line"/>
      <point x="279" y="565" type="line"/>
      <point x="20" y="565" type="line"/>
      <point x="20" y="505" type="line"/>
      <point x="27" y="505" type="line" smooth="yes"/>
      <point x="74" y="505"/>
      <point x="98" y="495"/>
      <point x="116" y="450" type="curve" smooth="yes"/>
      <point x="294" y="0" type="line"/>
    </contour>
    <contour>
      <point x="293" y="0" type="line"/>
      <point x="293" y="-107" type="line" smooth="yes"/>
      <point x="293" y="-159"/>
      <point x="262" y="-173"/>
      <point x="207" y="-173" type="curve" smooth="yes"/>
      <point x="202" y="-173" type="line"/>
      <point x="202" y="-223" type="line"/>
      <point x="473" y="-223" type="line"/>
      <point x="473" y="-173" type="line"/>
      <point x="468" y="-173" type="line" smooth="yes"/>
      <point x="413" y="-173"/>
      <point x="382" y="-159"/>
      <point x="382" y="-107" type="curve" smooth="yes"/>
      <point x="382" y="0" type="line"/>
    </contour>
  </outline>
</glyph>
<glyph name="xatailcyr" format="2">
  <advance width="683"/>
  <unicode hex="04B3"/>
  <guideline x="855" y="515" angle="90" identifier="klzyciHyKb"/>
  <outline>
    <contour>
      <point x="589" y="0" type="line"/>
      <point x="589" y="62" type="line"/>
      <point x="378" y="309" type="line"/>
      <point x="368" y="312" type="line"/>
      <point x="212" y="498" type="line"/>
      <point x="212" y="504"/>
      <point x="254" y="505"/>
      <point x="290" y="505" type="curve" smooth="yes"/>
      <point x="292" y="505" type="line"/>
      <point x="292" y="565" type="line"/>
      <point x="50" y="565" type="line"/>
      <point x="50" y="505" type="line"/>
      <point x="55" y="505" type="line"/>
      <point x="96" y="505"/>
      <point x="112" y="494"/>
      <point x="132" y="471" type="curve" smooth="yes"/>
      <point x="304" y="267" type="line"/>
      <point x="313" y="266" type="line"/>
      <point x="481" y="67" type="line"/>
      <point x="481" y="61"/>
      <point x="440" y="60"/>
      <point x="404" y="60" type="curve" smooth="yes"/>
      <point x="401" y="60" type="line"/>
      <point x="401" y="0" type="line"/>
    </contour>
    <contour>
      <point x="35" y="0" type="line"/>
      <point x="275" y="0" type="line"/>
      <point x="275" y="60" type="line"/>
      <point x="272" y="60" type="line"/>
      <point x="229" y="60"/>
      <point x="188" y="72"/>
      <point x="188" y="85" type="curve"/>
      <point x="337" y="264" type="line"/>
      <point x="289" y="298" type="line"/>
      <point x="124" y="102" type="line" smooth="yes"/>
      <point x="98" y="71"/>
      <point x="82" y="60"/>
      <point x="40" y="60" type="curve"/>
      <point x="35" y="60" type="line"/>
    </contour>
    <contour>
      <point x="388" y="284" type="line"/>
      <point x="554" y="474" type="line" smooth="yes"/>
      <point x="575" y="499"/>
      <point x="597" y="505"/>
      <point x="626" y="505" type="curve"/>
      <point x="631" y="505" type="line"/>
      <point x="631" y="565" type="line"/>
      <point x="399" y="565" type="line"/>
      <point x="399" y="505" type="line"/>
      <point x="403" y="505" type="line"/>
      <point x="444" y="505"/>
      <point x="485" y="494"/>
      <point x="485" y="482" type="curve"/>
      <point x="341" y="320" type="line"/>
    </contour>
    <contour>
      <point x="483" y="0" type="line"/>
      <point x="496" y="0" type="line" smooth="yes"/>
      <point x="563" y="0"/>
      <point x="590" y="-10"/>
      <point x="595" y="-53" type="curve" smooth="yes"/>
      <point x="608" y="-169" type="line"/>
      <point x="668" y="-169" type="line"/>
      <point x="668" y="62" type="line"/>
      <point x="483" y="62" type="line"/>
    </contour>
  </outline>
</glyph>
<glyph name="Chevertcyr" format="2">
  <advance width="833"/>
  <unicode hex="04B8"/>
  <guideline x="1123" y="741" angle="90" identifier="nfCxFSb4p1"/>
  <outline>
    <contour>
      <point x="488" y="0" type="line"/>
      <point x="773" y="0" type="line"/>
      <point x="773" y="62" type="line"/>
      <point x="762" y="62" type="line" smooth="yes"/>
      <point x="713" y="62"/>
      <point x="677" y="69"/>
      <point x="677" y="98" type="curve" smooth="yes"/>
      <point x="677" y="612" type="line" smooth="yes"/>
      <point x="677" y="641"/>
      <point x="713" y="648"/>
      <point x="762" y="648" type="curve" smooth="yes"/>
      <point x="773" y="648" type="line"/>
      <point x="773" y="710" type="line"/>
      <point x="488" y="710" type="line"/>
      <point x="488" y="648" type="line"/>
      <point x="497" y="648" type="line" smooth="yes"/>
      <point x="535" y="648"/>
      <point x="584" y="645"/>
      <point x="584" y="638" type="curve" smooth="yes"/>
      <point x="584" y="72" type="line" smooth="yes"/>
      <point x="584" y="65"/>
      <point x="535" y="62"/>
      <point x="497" y="62" type="curve" smooth="yes"/>
      <point x="488" y="62" type="line"/>
    </contour>
    <contour>
      <point x="385" y="280" type="curve" smooth="yes"/>
      <point x="465" y="280"/>
      <point x="556" y="295"/>
      <point x="631" y="339" type="curve"/>
      <point x="631" y="402" type="line"/>
      <point x="556" y="354"/>
      <point x="466" y="342"/>
      <point x="385" y="342" type="curve" smooth="yes"/>
      <point x="269" y="342"/>
      <point x="229" y="385"/>
      <point x="229" y="505" type="curve" smooth="yes"/>
      <point x="229" y="638" type="line" smooth="yes"/>
      <point x="229" y="645"/>
      <point x="278" y="648"/>
      <point x="316" y="648" type="curve" smooth="yes"/>
      <point x="325" y="648" type="line"/>
      <point x="325" y="710" type="line"/>
      <point x="40" y="710" type="line"/>
      <point x="40" y="648" type="line"/>
      <point x="51" y="648" type="line" smooth="yes"/>
      <point x="100" y="648"/>
      <point x="136" y="641"/>
      <point x="136" y="612" type="curve" smooth="yes"/>
      <point x="136" y="500" type="line" smooth="yes"/>
      <point x="136" y="343"/>
      <point x="201" y="280"/>
    </contour>
    <contour>
      <point x="377" y="158" type="line"/>
      <point x="439" y="158" type="line"/>
      <point x="439" y="531" type="line"/>
      <point x="377" y="531" type="line"/>
    </contour>
  </outline>
</glyph>
<glyph name="chevertcyr" format="2">
  <advance width="695"/>
  <unicode hex="04B9"/>
  <guideline x="855" y="515" angle="90" identifier="GGEFes61Q6"/>
  <guideline x="855" y="515" angle="90" identifier="99RBgnGyod"/>
  <guideline x="855" y="515" angle="90" identifier="0iUxLvWmuo"/>
  <guideline x="855" y="515" angle="90" identifier="MNRYOIRSkO"/>
  <outline>
    <contour>
      <point x="470" y="60" type="line" smooth="yes"/>
      <point x="470" y="53"/>
      <point x="426" y="50"/>
      <point x="398" y="50" type="curve" smooth="yes"/>
      <point x="393" y="50" type="line"/>
      <point x="393" y="0" type="line"/>
      <point x="650" y="0" type="line"/>
      <point x="650" y="50" type="line"/>
      <point x="646" y="50" type="line" smooth="yes"/>
      <point x="590" y="50"/>
      <point x="559" y="66"/>
      <point x="559" y="126" type="curve" smooth="yes"/>
      <point x="559" y="439" type="line" smooth="yes"/>
      <point x="559" y="499"/>
      <point x="590" y="515"/>
      <point x="646" y="515" type="curve" smooth="yes"/>
      <point x="650" y="515" type="line"/>
      <point x="650" y="565" type="line"/>
      <point x="393" y="565" type="line"/>
      <point x="393" y="515" type="line"/>
      <point x="398" y="515" type="line" smooth="yes"/>
      <point x="426" y="515"/>
      <point x="470" y="512"/>
      <point x="470" y="505" type="curve" smooth="yes"/>
    </contour>
    <contour>
      <point x="121" y="374" type="line" smooth="yes"/>
      <point x="121" y="277.7708333333"/>
      <point x="161" y="225"/>
      <point x="310" y="225" type="curve" smooth="yes"/>
      <point x="379" y="225"/>
      <point x="422" y="232"/>
      <point x="477" y="249" type="curve"/>
      <point x="477" y="309" type="line"/>
      <point x="421" y="292"/>
      <point x="380" y="287"/>
      <point x="320" y="287" type="curve" smooth="yes"/>
      <point x="245" y="287"/>
      <point x="210" y="319.8902439024"/>
      <point x="210" y="374" type="curve" smooth="yes"/>
      <point x="210" y="505" type="line" smooth="yes"/>
      <point x="210" y="512"/>
      <point x="254" y="515"/>
      <point x="282" y="515" type="curve" smooth="yes"/>
      <point x="287" y="515" type="line"/>
      <point x="287" y="565" type="line"/>
      <point x="30" y="565" type="line"/>
      <point x="30" y="515" type="line"/>
      <point x="34" y="515" type="line" smooth="yes"/>
      <point x="90" y="515"/>
      <point x="121" y="499"/>
      <point x="121" y="439" type="curve" smooth="yes"/>
    </contour>
    <contour>
      <point x="312" y="130" type="line"/>
      <point x="374" y="130" type="line"/>
      <point x="374" y="418" type="line"/>
      <point x="312" y="418" type="line"/>
    </contour>
  </outline>
</glyph>
<glyph name="obarcyr" format="2">
  <advance width="656"/>
  <unicode hex="04E9"/>
  <outline>
    <contour>
      <point x="606" y="281" type="curve" smooth="yes"/>
      <point x="606" y="467"/>
      <point x="500" y="575"/>
      <point x="328" y="575" type="curve" smooth="yes"/>
      <point x="155" y="575"/>
      <point x="50" y="467"/>
      <point x="50" y="281" type="curve" smooth="yes"/>
      <point x="50" y="95"/>
      <point x="155" y="-13"/>
      <point x="328" y="-13" type="curve" smooth="yes"/>
      <point x="500" y="-13"/>
      <point x="606" y="95"/>
    </contour>
    <contour>
      <point x="144" y="281" type="curve" smooth="yes"/>
      <point x="144" y="435"/>
      <point x="199" y="511"/>
      <point x="328" y="511" type="curve" smooth="yes"/>
      <point x="457" y="511"/>
      <point x="512" y="434"/>
      <point x="512" y="281" type="curve" smooth="yes"/>
      <point x="512" y="116"/>
      <point x="457" y="51"/>
      <point x="328" y="51" type="curve" smooth="yes"/>
      <point x="199" y="51"/>
      <point x="144" y="117"/>
    </contour>
    <contour>
      <point x="120" y="253" type="line"/>
      <point x="549" y="253" type="line"/>
      <point x="549" y="315" type="line"/>
      <point x="120" y="315" type="line"/>
    </contour>
  </outline>
</glyph>
<glyph name="Germandbls" format="2">
  <advance width="887"/>
  <unicode hex="1E9E"/>
  <guideline x="325" y="720" angle="0" identifier="FatnrSvv4R"/>
  <outline>
    <contour>
      <point x="614" y="48" type="curve" smooth="yes"/>
      <point x="498" y="48"/>
      <point x="463" y="113"/>
      <point x="439" y="229" type="curve"/>
      <point x="364" y="229" type="line"/>
      <point x="364" y="0" type="line"/>
      <point x="434" y="0" type="line"/>
      <point x="444" y="139" type="line"/>
      <point x="431" y="190" type="line"/>
      <point x="440" y="49"/>
      <point x="492" y="-14"/>
      <point x="614" y="-14" type="curve" smooth="yes"/>
      <point x="759" y="-14"/>
      <point x="825" y="64"/>
      <point x="825" y="186" type="curve" smooth="yes"/>
      <point x="825" y="347"/>
      <point x="698" y="380"/>
      <point x="537" y="422" type="curve"/>
      <point x="575" y="402" type="line"/>
      <point x="734" y="630" type="line"/>
      <point x="734" y="710" type="line"/>
      <point x="402" y="710" type="line" smooth="yes"/>
      <point x="212" y="710"/>
      <point x="148" y="621"/>
      <point x="148" y="458" type="curve" smooth="yes"/>
      <point x="148" y="98" type="line" smooth="yes"/>
      <point x="148" y="69"/>
      <point x="112" y="62"/>
      <point x="63" y="62" type="curve" smooth="yes"/>
      <point x="52" y="62" type="line"/>
      <point x="52" y="0" type="line"/>
      <point x="241" y="0" type="line"/>
      <point x="241" y="465" type="line" smooth="yes"/>
      <point x="241" y="573"/>
      <point x="260" y="648"/>
      <point x="402" y="648" type="curve" smooth="yes"/>
      <point x="685" y="648" type="line"/>
      <point x="657" y="660" type="line"/>
      <point x="500" y="433" type="line"/>
      <point x="500" y="371" type="line"/>
      <point x="662" y="325"/>
      <point x="732" y="311"/>
      <point x="732" y="183" type="curve" smooth="yes"/>
      <point x="732" y="88"/>
      <point x="711" y="48"/>
    </contour>
  </outline>
</glyph>
<glyph name="plus.sub" format="2">
  <advance width="421"/>
  <unicode hex="208A"/>
  <outline>
    <contour>
      <point x="181" y="250" type="line"/>
      <point x="181" y="-85" type="line"/>
      <point x="240" y="-85" type="line"/>
      <point x="240" y="250" type="line"/>
    </contour>
    <contour>
      <point x="374" y="109" type="line"/>
      <point x="47" y="109" type="line"/>
      <point x="47" y="56" type="line"/>
      <point x="374" y="56" type="line"/>
    </contour>
  </outline>
</glyph>
<glyph name="guarani" format="2">
  <advance width="560"/>
  <unicode hex="20B2"/>
  <outline>
    <contour>
      <point x="248" y="790" type="line"/>
      <point x="248" y="669" type="line"/>
      <point x="263" y="659" type="line"/>
      <point x="263" y="50" type="line"/>
      <point x="248" y="39" type="line"/>
      <point x="248" y="-120" type="line"/>
      <point x="328" y="-120" type="line"/>
      <point x="328" y="40" type="line"/>
      <point x="313" y="50" type="line"/>
      <point x="313" y="655" type="line"/>
      <point x="328" y="673" type="line"/>
      <point x="328" y="790" type="line"/>
    </contour>
    <contour>
      <point x="302" y="10" type="curve" smooth="yes"/>
      <point x="397" y="10"/>
      <point x="469" y="49"/>
      <point x="503" y="81" type="curve"/>
      <point x="503" y="261" type="line" smooth="yes"/>
      <point x="503" y="290"/>
      <point x="525" y="297"/>
      <point x="553" y="297" type="curve" smooth="yes"/>
      <point x="557" y="297" type="line"/>
      <point x="557" y="358" type="line"/>
      <point x="419" y="358" type="line"/>
      <point x="419" y="297" type="line"/>
      <point x="419" y="297" type="line"/>
      <point x="419" y="297"/>
      <point x="419" y="290"/>
      <point x="419" y="261" type="curve" smooth="yes"/>
      <point x="419" y="94" type="line"/>
      <point x="402" y="83"/>
      <point x="372" y="68"/>
      <point x="303" y="68" type="curve" smooth="yes"/>
      <point x="157" y="68"/>
      <point x="114" y="157"/>
      <point x="114" y="355" type="curve" smooth="yes"/>
      <point x="114" y="548"/>
      <point x="149" y="642"/>
      <point x="316" y="642" type="curve" smooth="yes"/>
      <point x="372" y="642"/>
      <point x="434" y="634"/>
      <point x="477" y="587" type="curve"/>
      <point x="482" y="608"/>
      <point x="446" y="639"/>
      <point x="416" y="656" type="curve"/>
      <point x="416" y="516" type="line"/>
      <point x="507" y="516" type="line"/>
      <point x="507" y="650" type="line"/>
      <point x="461" y="681"/>
      <point x="400" y="700"/>
      <point x="312" y="700" type="curve" smooth="yes"/>
      <point x="107" y="700"/>
      <point x="20" y="577"/>
      <point x="20" y="355" type="curve" smooth="yes"/>
      <point x="20" y="129"/>
      <point x="107" y="10"/>
    </contour>
  </outline>
</glyph>
<glyph name="cedi" format="2">
  <advance width="560"/>
  <unicode hex="20B5"/>
  <outline>
    <contour>
      <point x="325" y="700" type="curve" smooth="yes"/>
      <point x="116" y="700"/>
      <point x="28" y="579"/>
      <point x="28" y="355" type="curve" smooth="yes"/>
      <point x="28" y="130"/>
      <point x="128" y="10"/>
      <point x="309" y="10" type="curve" smooth="yes"/>
      <point x="448" y="10"/>
      <point x="509" y="92"/>
      <point x="542" y="229" type="curve"/>
      <point x="481" y="250" type="line"/>
      <point x="451" y="138"/>
      <point x="418" y="72"/>
      <point x="315" y="72" type="curve" smooth="yes"/>
      <point x="178" y="72"/>
      <point x="122" y="164"/>
      <point x="122" y="355" type="curve" smooth="yes"/>
      <point x="122" y="551"/>
      <point x="166" y="643"/>
      <point x="325" y="643" type="curve"/>
      <point x="403" y="643"/>
      <point x="447" y="623"/>
      <point x="470" y="608" type="curve"/>
      <point x="477" y="607"/>
      <point x="454" y="640"/>
      <point x="427" y="649" type="curve"/>
      <point x="427" y="489" type="line"/>
      <point x="522" y="489" type="line"/>
      <point x="522" y="654" type="line"/>
      <point x="500" y="667"/>
      <point x="424" y="700"/>
    </contour>
    <contour>
      <point x="264" y="790" type="line"/>
      <point x="264" y="678" type="line"/>
      <point x="279" y="669" type="line"/>
      <point x="279" y="51" type="line"/>
      <point x="264" y="37" type="line"/>
      <point x="264" y="-120" type="line"/>
      <point x="344" y="-120" type="line"/>
      <point x="344" y="39" type="line"/>
      <point x="329" y="47" type="line"/>
      <point x="329" y="672" type="line"/>
      <point x="344" y="680" type="line"/>
      <point x="344" y="790" type="line"/>
    </contour>
  </outline>
</glyph>
<glyph name="servicemark" format="2">
  <advance width="1007"/>
  <unicode hex="2120"/>
  <outline>
    <contour>
      <point x="450" y="318" type="line"/>
      <point x="587" y="318" type="line"/>
      <point x="587" y="360" type="line"/>
      <point x="585" y="360" type="line" smooth="yes"/>
      <point x="573" y="360"/>
      <point x="551" y="362"/>
      <point x="551" y="365" type="curve" smooth="yes"/>
      <point x="551" y="705" type="line"/>
      <point x="546" y="706" type="line"/>
      <point x="669" y="317" type="line"/>
      <point x="713" y="317" type="line"/>
      <point x="836" y="706" type="line"/>
      <point x="829" y="701" type="line"/>
      <point x="829" y="365" type="line" smooth="yes"/>
      <point x="829" y="362"/>
      <point x="808" y="360"/>
      <point x="794" y="360" type="curve" smooth="yes"/>
      <point x="790" y="360" type="line"/>
      <point x="790" y="318" type="line"/>
      <point x="947" y="318" type="line"/>
      <point x="947" y="360" type="line"/>
      <point x="937" y="360" type="line" smooth="yes"/>
      <point x="913" y="360"/>
      <point x="895" y="364"/>
      <point x="895" y="378" type="curve" smooth="yes"/>
      <point x="895" y="650" type="line" smooth="yes"/>
      <point x="895" y="664"/>
      <point x="913" y="668"/>
      <point x="937" y="668" type="curve" smooth="yes"/>
      <point x="947" y="668" type="line"/>
      <point x="947" y="710" type="line"/>
      <point x="790" y="710" type="line"/>
      <point x="687" y="362" type="line"/>
      <point x="715" y="367" type="line"/>
      <point x="615" y="710" type="line"/>
      <point x="450" y="710" type="line"/>
      <point x="450" y="668" type="line"/>
      <point x="459" y="668" type="line" smooth="yes"/>
      <point x="483" y="668"/>
      <point x="502" y="664"/>
      <point x="502" y="650" type="curve" smooth="yes"/>
      <point x="502" y="378" type="line" smooth="yes"/>
      <point x="502" y="364"/>
      <point x="483" y="360"/>
      <point x="459" y="360" type="curve" smooth="yes"/>
      <point x="450" y="360" type="line"/>
    </contour>
    <contour>
      <point x="235" y="358" type="curve" smooth="yes"/>
      <point x="166" y="358"/>
      <point x="133" y="382"/>
      <point x="114" y="462" type="curve"/>
      <point x="60" y="462" type="line"/>
      <point x="60" y="316" type="line"/>
      <point x="107" y="316" type="line"/>
      <point x="112" y="414" type="line"/>
      <point x="114" y="422"/>
      <point x="108" y="422"/>
      <point x="104" y="441" type="curve"/>
      <point x="110" y="348"/>
      <point x="158" y="314"/>
      <point x="237" y="314" type="curve" smooth="yes"/>
      <point x="316" y="314"/>
      <point x="382" y="343"/>
      <point x="382" y="429" type="curve" smooth="yes"/>
      <point x="382" y="508"/>
      <point x="304" y="527"/>
      <point x="240" y="545" type="curve" smooth="yes"/>
      <point x="176" y="563"/>
      <point x="134" y="568"/>
      <point x="134" y="615" type="curve" smooth="yes"/>
      <point x="134" y="656"/>
      <point x="157" y="670"/>
      <point x="210" y="670" type="curve" smooth="yes"/>
      <point x="266" y="670"/>
      <point x="296" y="645"/>
      <point x="315" y="580" type="curve"/>
      <point x="367" y="580" type="line"/>
      <point x="367" y="711" type="line"/>
      <point x="321" y="711" type="line"/>
      <point x="316" y="627" type="line"/>
      <point x="313" y="616"/>
      <point x="318" y="616"/>
      <point x="322" y="601" type="curve"/>
      <point x="316" y="680"/>
      <point x="275" y="714"/>
      <point x="206" y="714" type="curve" smooth="yes"/>
      <point x="121" y="714"/>
      <point x="73" y="673"/>
      <point x="73" y="608" type="curve" smooth="yes"/>
      <point x="73" y="527"/>
      <point x="138" y="507"/>
      <point x="206" y="488" type="curve" smooth="yes"/>
      <point x="263" y="472"/>
      <point x="317" y="468"/>
      <point x="317" y="415" type="curve" smooth="yes"/>
      <point x="317" y="373"/>
      <point x="292" y="358"/>
    </contour>
  </outline>
</glyph>
<glyph name="radical" format="2">
  <advance width="613"/>
  <unicode hex="221A"/>
  <outline>
    <contour>
      <point x="38" y="330" type="line"/>
      <point x="202" y="330" type="line"/>
      <point x="144" y="357" type="line"/>
      <point x="235" y="0" type="line"/>
      <point x="308" y="0" type="line"/>
      <point x="316" y="22" type="line"/>
      <point x="226" y="398" type="line"/>
      <point x="38" y="398" type="line"/>
    </contour>
    <contour>
      <point x="504" y="710" type="line"/>
      <point x="297" y="0" type="line"/>
      <point x="360" y="0" type="line"/>
      <point x="573" y="710" type="line"/>
    </contour>
  </outline>
</glyph>
<glyph name="infinity" format="2">
  <advance width="802"/>
  <unicode hex="221E"/>
  <outline>
    <contour>
      <point x="226" y="147" type="curve" smooth="yes"/>
      <point x="118" y="147"/>
      <point x="56" y="234"/>
      <point x="56" y="352" type="curve" smooth="yes"/>
      <point x="56" y="471"/>
      <point x="131" y="561"/>
      <point x="240" y="561" type="curve" smooth="yes"/>
      <point x="356" y="561"/>
      <point x="392" y="464"/>
      <point x="439" y="380" type="curve" smooth="yes"/>
      <point x="491" y="287"/>
      <point x="505" y="221"/>
      <point x="581" y="221" type="curve" smooth="yes"/>
      <point x="651" y="221"/>
      <point x="684" y="279"/>
      <point x="684" y="359" type="curve" smooth="yes"/>
      <point x="684" y="446"/>
      <point x="650" y="489"/>
      <point x="574" y="489" type="curve" smooth="yes"/>
      <point x="496" y="489"/>
      <point x="472" y="432"/>
      <point x="432" y="364" type="curve"/>
      <point x="393" y="365" type="line"/>
      <point x="432" y="470"/>
      <point x="477" y="561"/>
      <point x="576" y="561" type="curve" smooth="yes"/>
      <point x="684" y="561"/>
      <point x="746" y="474"/>
      <point x="746" y="357" type="curve" smooth="yes"/>
      <point x="746" y="239"/>
      <point x="672" y="147"/>
      <point x="562" y="147" type="curve" smooth="yes"/>
      <point x="454" y="147"/>
      <point x="403" y="236"/>
      <point x="363" y="332" type="curve" smooth="yes"/>
      <point x="326" y="421"/>
      <point x="301" y="487"/>
      <point x="223" y="487" type="curve" smooth="yes"/>
      <point x="153" y="487"/>
      <point x="118" y="438"/>
      <point x="118" y="349" type="curve" smooth="yes"/>
      <point x="118" y="262"/>
      <point x="152" y="219"/>
      <point x="228" y="219" type="curve" smooth="yes"/>
      <point x="306" y="219"/>
      <point x="330" y="276"/>
      <point x="370" y="344" type="curve"/>
      <point x="409" y="343" type="line"/>
      <point x="370" y="238"/>
      <point x="325" y="147"/>
    </contour>
  </outline>
</glyph>
<glyph name="approxequal" format="2">
  <advance width="560"/>
  <unicode hex="2248"/>
  <outline>
    <contour>
      <point x="369" y="337" type="curve" smooth="yes"/>
      <point x="453" y="337"/>
      <point x="501" y="412"/>
      <point x="520" y="509" type="curve"/>
      <point x="463" y="527" type="line"/>
      <point x="447" y="467"/>
      <point x="430" y="405"/>
      <point x="379" y="405" type="curve" smooth="yes"/>
      <point x="306" y="405"/>
      <point x="281" y="522"/>
      <point x="179" y="522" type="curve" smooth="yes"/>
      <point x="99" y="522"/>
      <point x="54" y="451"/>
      <point x="40" y="350" type="curve"/>
      <point x="98" y="332" type="line"/>
      <point x="106" y="395"/>
      <point x="123" y="455"/>
      <point x="173" y="455" type="curve" smooth="yes"/>
      <point x="239" y="455"/>
      <point x="275" y="337"/>
    </contour>
    <contour>
      <point x="369" y="88" type="curve" smooth="yes"/>
      <point x="453" y="88"/>
      <point x="501" y="163"/>
      <point x="520" y="260" type="curve"/>
      <point x="463" y="278" type="line"/>
      <point x="447" y="218"/>
      <point x="430" y="156"/>
      <point x="379" y="156" type="curve" smooth="yes"/>
      <point x="306" y="156"/>
      <point x="281" y="273"/>
      <point x="179" y="273" type="curve" smooth="yes"/>
      <point x="99" y="273"/>
      <point x="54" y="202"/>
      <point x="40" y="101" type="curve"/>
      <point x="98" y="83" type="line"/>
      <point x="106" y="146"/>
      <point x="123" y="206"/>
      <point x="173" y="206" type="curve" smooth="yes"/>
      <point x="239" y="206"/>
      <point x="275" y="88"/>
    </contour>
  </outline>
</glyph>
<glyph name="heartsuitwhite" format="2">
  <advance width="905"/>
  <unicode hex="2661"/>
  <outline>
    <contour>
      <point x="448" y="461" type="curve"/>
      <point x="458" y="461" type="line"/>
      <point x="489" y="541"/>
      <point x="552" y="641"/>
      <point x="643" y="641" type="curve" smooth="yes"/>
      <point x="718" y="641"/>
      <point x="760" y="594"/>
      <point x="760" y="528" type="curve" smooth="yes"/>
      <point x="760" y="446"/>
      <point x="719" y="399"/>
      <point x="652" y="318" type="curve" smooth="yes"/>
      <point x="457" y="83" type="line"/>
      <point x="448" y="83" type="line"/>
      <point x="253" y="318" type="line" smooth="yes"/>
      <point x="186" y="399"/>
      <point x="145" y="446"/>
      <point x="145" y="528" type="curve" smooth="yes"/>
      <point x="145" y="594"/>
      <point x="187" y="641"/>
      <point x="262" y="641" type="curve" smooth="yes"/>
      <point x="353" y="641"/>
      <point x="416" y="541"/>
    </contour>
    <contour>
      <point x="464" y="-10" type="line"/>
      <point x="701" y="273" type="line" smooth="yes"/>
      <point x="786" y="375"/>
      <point x="835" y="434"/>
      <point x="835" y="535" type="curve" smooth="yes"/>
      <point x="835" y="632"/>
      <point x="767" y="710"/>
      <point x="651" y="710" type="curve" smooth="yes"/>
      <point x="558" y="710"/>
      <point x="491" y="657"/>
      <point x="453" y="569" type="curve"/>
      <point x="414" y="657"/>
      <point x="347" y="710"/>
      <point x="254" y="710" type="curve" smooth="yes"/>
      <point x="138" y="710"/>
      <point x="70" y="632"/>
      <point x="70" y="535" type="curve" smooth="yes"/>
      <point x="70" y="434"/>
      <point x="119" y="375"/>
      <point x="204" y="273" type="curve" smooth="yes"/>
      <point x="441" y="-10" type="line"/>
    </contour>
  </outline>
</glyph>
<glyph name="zero.den" format="2">
  <advance width="490"/>
  <unicode hex="E402"/>
  <outline>
    <contour>
      <point x="246" y="421" type="curve" smooth="yes"/>
      <point x="145" y="421"/>
      <point x="68" y="354"/>
      <point x="68" y="207" type="curve" smooth="yes"/>
      <point x="68" y="61"/>
      <point x="145" y="-6"/>
      <point x="246" y="-6" type="curve" smooth="yes"/>
      <point x="347" y="-6"/>
      <point x="422" y="61"/>
      <point x="422" y="208" type="curve" smooth="yes"/>
      <point x="422" y="354"/>
      <point x="347" y="421"/>
    </contour>
    <contour>
      <point x="329" y="208" type="curve" smooth="yes"/>
      <point x="329" y="74"/>
      <point x="296" y="41"/>
      <point x="246" y="41" type="curve" smooth="yes"/>
      <point x="195" y="41"/>
      <point x="163" y="72"/>
      <point x="163" y="207" type="curve" smooth="yes"/>
      <point x="163" y="340"/>
      <point x="195" y="374"/>
      <point x="246" y="374" type="curve" smooth="yes"/>
      <point x="296" y="374"/>
      <point x="329" y="342"/>
    </contour>
  </outline>
</glyph>
<glyph name="one.den" format="2">
  <advance width="483"/>
  <unicode hex="E403"/>
  <outline>
    <contour>
      <point x="293" y="66" type="curve" smooth="yes"/>
      <point x="293" y="415" type="line"/>
      <point x="225" y="415" type="line"/>
      <point x="203" y="368"/>
      <point x="172" y="351"/>
      <point x="84" y="350" type="curve"/>
      <point x="84" y="294" type="line"/>
      <point x="161" y="293"/>
      <point x="200" y="312"/>
      <point x="213" y="354" type="curve"/>
      <point x="205" y="354" type="line"/>
      <point x="205" y="66" type="line" smooth="yes"/>
      <point x="205" y="44"/>
      <point x="175" y="40"/>
      <point x="132" y="40" type="curve" smooth="yes"/>
      <point x="95" y="40" type="line"/>
      <point x="95" y="0" type="line"/>
      <point x="399" y="0" type="line"/>
      <point x="399" y="40" type="line"/>
      <point x="371" y="40" type="line" smooth="yes"/>
      <point x="323" y="40"/>
      <point x="293" y="44"/>
    </contour>
  </outline>
</glyph>
<glyph name="three.den" format="2">
  <advance width="483"/>
  <unicode hex="E405"/>
  <guideline x="173" y="-6" angle="0" identifier="QmTMwn8tHw"/>
  <outline>
    <contour>
      <point x="238" y="42" type="curve" smooth="yes"/>
      <point x="306" y="42"/>
      <point x="331" y="61"/>
      <point x="331" y="119" type="curve" smooth="yes"/>
      <point x="331" y="170"/>
      <point x="319" y="194"/>
      <point x="239" y="194" type="curve" smooth="yes"/>
      <point x="184" y="194" type="line"/>
      <point x="184" y="239" type="line"/>
      <point x="231" y="239" type="line" smooth="yes"/>
      <point x="296" y="239"/>
      <point x="320" y="256"/>
      <point x="320" y="311" type="curve" smooth="yes"/>
      <point x="320" y="361"/>
      <point x="298" y="372"/>
      <point x="245" y="372" type="curve" smooth="yes"/>
      <point x="201" y="372"/>
      <point x="166" y="361"/>
      <point x="142" y="348" type="curve"/>
      <point x="154" y="359"/>
      <point x="160" y="373"/>
      <point x="177" y="376" type="curve"/>
      <point x="177" y="292" type="line"/>
      <point x="103" y="292" type="line"/>
      <point x="103" y="389" type="line"/>
      <point x="125" y="398"/>
      <point x="179" y="420"/>
      <point x="248" y="420" type="curve" smooth="yes"/>
      <point x="350" y="420"/>
      <point x="407" y="392"/>
      <point x="407" y="318" type="curve" smooth="yes"/>
      <point x="407" y="247"/>
      <point x="326" y="216"/>
      <point x="225" y="216" type="curve"/>
      <point x="237" y="223" type="line"/>
      <point x="373" y="223"/>
      <point x="423" y="183"/>
      <point x="423" y="117" type="curve" smooth="yes"/>
      <point x="423" y="25"/>
      <point x="347" y="-6"/>
      <point x="237" y="-6" type="curve" smooth="yes"/>
      <point x="132" y="-6"/>
      <point x="84" y="47"/>
      <point x="60" y="109" type="curve"/>
      <point x="111" y="133" type="line"/>
      <point x="126" y="101"/>
      <point x="159" y="42"/>
    </contour>
  </outline>
</glyph>
<glyph name="nine.den" format="2">
  <advance width="484"/>
  <unicode hex="E40B"/>
  <outline>
    <contour>
      <point x="116" y="27" type="line"/>
      <point x="261" y="40"/>
      <point x="324" y="97"/>
      <point x="324" y="240" type="curve" smooth="yes"/>
      <point x="324" y="350"/>
      <point x="294" y="373"/>
      <point x="239" y="373" type="curve" smooth="yes"/>
      <point x="186" y="373"/>
      <point x="160" y="345"/>
      <point x="160" y="277" type="curve" smooth="yes"/>
      <point x="160" y="219"/>
      <point x="176" y="191"/>
      <point x="226" y="191" type="curve" smooth="yes"/>
      <point x="283" y="191"/>
      <point x="317" y="230"/>
      <point x="338" y="279" type="curve"/>
      <point x="344" y="245" type="line"/>
      <point x="322" y="200"/>
      <point x="280" y="144"/>
      <point x="202" y="144" type="curve" smooth="yes"/>
      <point x="119" y="144"/>
      <point x="69" y="186"/>
      <point x="69" y="274" type="curve" smooth="yes"/>
      <point x="69" y="370"/>
      <point x="135" y="420"/>
      <point x="239" y="420" type="curve" smooth="yes"/>
      <point x="344" y="420"/>
      <point x="415" y="372"/>
      <point x="415" y="240" type="curve" smooth="yes"/>
      <point x="415" y="86"/>
      <point x="317" y="-3"/>
      <point x="124" y="-22" type="curve"/>
    </contour>
  </outline>
</glyph>
<glyph name="De.bgr" format="2">
  <advance width="795"/>
  <outline>
    <contour>
      <point x="381" y="680" type="line"/>
      <point x="597" y="50" type="line"/>
      <point x="690" y="50" type="line"/>
      <point x="457" y="722" type="line"/>
      <point x="345" y="722" type="line"/>
      <point x="104" y="47" type="line"/>
      <point x="175" y="47" type="line"/>
      <point x="398" y="672" type="line"/>
    </contour>
    <contour>
      <point x="237" y="0" type="curve" smooth="yes"/>
      <point x="558" y="0" type="line" smooth="yes"/>
      <point x="654" y="0"/>
      <point x="690" y="-17"/>
      <point x="693" y="-53" type="curve" smooth="yes"/>
      <point x="706" y="-189" type="line"/>
      <point x="770" y="-189" type="line"/>
      <point x="770" y="62" type="line"/>
      <point x="25" y="62" type="line"/>
      <point x="25" y="-189" type="line"/>
      <point x="89" y="-189" type="line"/>
      <point x="102" y="-53" type="line" smooth="yes"/>
      <point x="105" y="-17"/>
      <point x="141" y="0"/>
    </contour>
  </outline>
</glyph>
<glyph name="Ecyr.alt1" format="2">
  <advance width="813"/>
  <guideline x="1147" y="753" angle="90" identifier="Ovo68woMtl"/>
  <guideline x="211" y="787" angle="90" identifier="vAARoAR0gU"/>
  <outline>
    <contour>
      <point x="415" y="-25" type="curve" smooth="yes"/>
      <point x="607" y="-25"/>
      <point x="751" y="110"/>
      <point x="751" y="355" type="curve" smooth="yes"/>
      <point x="751" y="610"/>
      <point x="613" y="735"/>
      <point x="415" y="735" type="curve" smooth="yes"/>
      <point x="272" y="735"/>
      <point x="172" y="659"/>
      <point x="153" y="508" type="curve"/>
      <point x="174" y="559" type="line"/>
      <point x="162" y="720" type="line"/>
      <point x="92" y="720" type="line"/>
      <point x="92" y="468" type="line"/>
      <point x="165" y="468" type="line"/>
      <point x="199" y="594"/>
      <point x="287" y="671"/>
      <point x="415" y="671" type="curve" smooth="yes"/>
      <point x="567" y="671"/>
      <point x="651" y="576"/>
      <point x="651" y="355" type="curve" smooth="yes"/>
      <point x="651" y="134"/>
      <point x="567" y="39"/>
      <point x="415" y="39" type="curve" smooth="yes"/>
      <point x="287" y="39"/>
      <point x="201" y="116"/>
      <point x="165" y="242" type="curve"/>
      <point x="92" y="242" type="line"/>
      <point x="92" y="-10" type="line"/>
      <point x="162" y="-10" type="line"/>
      <point x="174" y="151" type="line"/>
      <point x="153" y="202" type="line"/>
      <point x="172" y="51"/>
      <point x="267" y="-25"/>
    </contour>
    <contour>
      <point x="680" y="396" type="line"/>
      <point x="430" y="396" type="line" smooth="yes"/>
      <point x="401" y="396"/>
      <point x="391" y="419"/>
      <point x="391" y="454" type="curve" smooth="yes"/>
      <point x="391" y="474" type="line"/>
      <point x="325" y="474" type="line"/>
      <point x="325" y="256" type="line"/>
      <point x="391" y="256" type="line"/>
      <point x="391" y="276" type="line" smooth="yes"/>
      <point x="391" y="310"/>
      <point x="401" y="334"/>
      <point x="430" y="334" type="curve" smooth="yes"/>
      <point x="680" y="334" type="line"/>
    </contour>
  </outline>
</glyph>
<glyph name="Ieukran.alt1" format="2">
  <advance width="794"/>
  <outline>
    <contour>
      <point x="405" y="671" type="curve" smooth="yes"/>
      <point x="529" y="671"/>
      <point x="612" y="590"/>
      <point x="648" y="458" type="curve"/>
      <point x="721" y="458" type="line"/>
      <point x="721" y="720" type="line"/>
      <point x="651" y="720" type="line"/>
      <point x="639" y="549" type="line"/>
      <point x="660" y="498" type="line"/>
      <point x="640" y="655"/>
      <point x="544" y="735"/>
      <point x="405" y="735" type="curve" smooth="yes"/>
      <point x="204" y="735"/>
      <point x="62" y="607"/>
      <point x="62" y="355" type="curve" smooth="yes"/>
      <point x="62" y="104"/>
      <point x="199" y="-25"/>
      <point x="410" y="-25" type="curve" smooth="yes"/>
      <point x="580" y="-25"/>
      <point x="688" y="65"/>
      <point x="737" y="217" type="curve"/>
      <point x="674" y="243" type="line"/>
      <point x="633" y="129"/>
      <point x="562" y="39"/>
      <point x="414" y="39" type="curve" smooth="yes"/>
      <point x="247" y="39"/>
      <point x="162" y="134"/>
      <point x="162" y="355" type="curve" smooth="yes"/>
      <point x="162" y="576"/>
      <point x="248" y="671"/>
    </contour>
    <contour>
      <point x="132" y="396" type="line"/>
      <point x="132" y="334" type="line"/>
      <point x="385" y="334" type="line" smooth="yes"/>
      <point x="414" y="334"/>
      <point x="424" y="310"/>
      <point x="424" y="276" type="curve" smooth="yes"/>
      <point x="424" y="256" type="line"/>
      <point x="490" y="256" type="line"/>
      <point x="490" y="474" type="line"/>
      <point x="424" y="474" type="line"/>
      <point x="424" y="454" type="line" smooth="yes"/>
      <point x="424" y="419"/>
      <point x="414" y="396"/>
      <point x="385" y="396" type="curve" smooth="yes"/>
    </contour>
  </outline>
</glyph>
<glyph name="OE.alt" format="2">
  <advance width="1124"/>
  <outline>
    <contour>
      <point x="446" y="62" type="line" smooth="yes"/>
      <point x="254" y="62"/>
      <point x="162" y="145"/>
      <point x="162" y="351" type="curve" smooth="yes"/>
      <point x="162" y="557"/>
      <point x="254" y="648"/>
      <point x="446" y="648" type="curve" smooth="yes"/>
      <point x="566" y="648" type="line"/>
      <point x="566" y="62" type="line"/>
    </contour>
    <contour>
      <point x="446" y="0" type="curve" smooth="yes"/>
      <point x="1049" y="0" type="line"/>
      <point x="1049" y="207" type="line"/>
      <point x="983" y="207" type="line"/>
      <point x="968" y="107" type="line" smooth="yes"/>
      <point x="963" y="71"/>
      <point x="929" y="62"/>
      <point x="843" y="62" type="curve" smooth="yes"/>
      <point x="659" y="62" type="line"/>
      <point x="659" y="648" type="line"/>
      <point x="828" y="648" type="line" smooth="yes"/>
      <point x="914" y="648"/>
      <point x="947" y="639"/>
      <point x="953" y="603" type="curve" smooth="yes"/>
      <point x="966" y="528" type="line"/>
      <point x="1030" y="528" type="line"/>
      <point x="1030" y="710" type="line"/>
      <point x="446" y="710" type="line" smooth="yes"/>
      <point x="203" y="710"/>
      <point x="62" y="587"/>
      <point x="62" y="351" type="curve" smooth="yes"/>
      <point x="62" y="114"/>
      <point x="203" y="0"/>
    </contour>
    <contour>
      <point x="643" y="392" type="line"/>
      <point x="643" y="333" type="line"/>
      <point x="801" y="333" type="line" smooth="yes"/>
      <point x="830" y="333"/>
      <point x="840" y="308"/>
      <point x="840" y="274" type="curve" smooth="yes"/>
      <point x="840" y="254" type="line"/>
      <point x="906" y="254" type="line"/>
      <point x="906" y="472" type="line"/>
      <point x="840" y="472" type="line"/>
      <point x="840" y="452" type="line" smooth="yes"/>
      <point x="840" y="417"/>
      <point x="830" y="392"/>
      <point x="801" y="392" type="curve" smooth="yes"/>
    </contour>
  </outline>
</glyph>
<glyph name="a.alt" format="2">
  <advance width="657"/>
  <outline>
    <contour>
      <point x="282" y="575" type="curve" smooth="yes"/>
      <point x="131" y="575"/>
      <point x="50.0" y="448.0"/>
      <point x="50" y="277" type="curve" smooth="yes"/>
      <point x="50.0" y="106.0"/>
      <point x="123" y="-13"/>
      <point x="270" y="-13" type="curve" smooth="yes"/>
      <point x="360.0" y="-13.0"/>
      <point x="422.0" y="43"/>
      <point x="467" y="129" type="curve"/>
      <point x="464" y="168" type="line"/>
      <point x="410.0" y="88"/>
      <point x="359.0" y="53.0"/>
      <point x="281" y="53" type="curve" smooth="yes"/>
      <point x="184" y="53.0"/>
      <point x="144.0" y="127.0"/>
      <point x="144" y="277" type="curve" smooth="yes"/>
      <point x="144.0" y="435.0"/>
      <point x="192" y="509.0"/>
      <point x="289" y="509" type="curve" smooth="yes"/>
      <point x="362" y="509.0"/>
      <point x="411" y="471.0"/>
      <point x="462" y="397" type="curve"/>
      <point x="469" y="438" type="line"/>
      <point x="426.0" y="522"/>
      <point x="365" y="575.0"/>
    </contour>
    <contour>
      <point x="536" y="105" type="curve" smooth="yes"/>
      <point x="536" y="565" type="line"/>
      <point x="476" y="565" type="line"/>
      <point x="447" y="455" type="line"/>
      <point x="447" y="455" type="line"/>
      <point x="447" y="126" type="line"/>
      <point x="447" y="120" type="line"/>
      <point x="471" y="0" type="line"/>
      <point x="627" y="0" type="line"/>
      <point x="627" y="58" type="line"/>
      <point x="617" y="60" type="line" smooth="yes"/>
      <point x="566" y="70"/>
      <point x="536" y="76"/>
    </contour>
  </outline>
</glyph>
<glyph name="acute.pl" format="2">
  <advance width="500"/>
  <outline>
    <contour>
      <point x="232" y="809" type="curve" smooth="yes"/>
      <point x="203" y="687" type="line"/>
      <point x="203" y="661" type="line"/>
      <point x="233" y="661" type="line"/>
      <point x="315" y="752" type="line" smooth="yes"/>
      <point x="338" y="777"/>
      <point x="352" y="797"/>
      <point x="352" y="822" type="curve" smooth="yes"/>
      <point x="352" y="849"/>
      <point x="335" y="871"/>
      <point x="299" y="871" type="curve" smooth="yes"/>
      <point x="261" y="871"/>
      <point x="241" y="846"/>
    </contour>
  </outline>
</glyph>
<glyph name="acute.uc" format="2">
  <advance width="500"/>
  <outline>
    <contour>
      <point x="259" y="924" type="line" smooth="yes"/>
      <point x="280" y="950"/>
      <point x="299" y="971"/>
      <point x="330" y="971" type="curve" smooth="yes"/>
      <point x="361" y="971"/>
      <point x="383" y="946"/>
      <point x="383" y="922" type="curve" smooth="yes"/>
      <point x="383" y="893"/>
      <point x="356" y="872"/>
      <point x="323" y="854" type="curve" smooth="yes"/>
      <point x="209" y="793" type="line"/>
      <point x="171" y="793" type="line"/>
      <point x="171" y="819" type="line"/>
    </contour>
  </outline>
</glyph>
<glyph name="aogonek.alt" format="2">
  <advance width="657"/>
  <outline>
    <contour>
      <point x="322" y="-162" type="curve" smooth="yes"/>
      <point x="322" y="-225"/>
      <point x="378" y="-252"/>
      <point x="451" y="-252" type="curve" smooth="yes"/>
      <point x="524" y="-252"/>
      <point x="567" y="-223"/>
      <point x="602" y="-182" type="curve"/>
      <point x="564" y="-147" type="line"/>
      <point x="546" y="-168"/>
      <point x="516" y="-195"/>
      <point x="474" y="-195" type="curve" smooth="yes"/>
      <point x="442" y="-195"/>
      <point x="424" y="-180"/>
      <point x="424" y="-150" type="curve" smooth="yes"/>
      <point x="424" y="-111"/>
      <point x="443" y="-80"/>
      <point x="545" y="6" type="curve"/>
      <point x="518" y="37" type="line"/>
      <point x="360" y="-75"/>
      <point x="322" y="-99"/>
    </contour>
    <contour>
      <point x="282" y="575" type="curve" smooth="yes"/>
      <point x="131" y="575"/>
      <point x="50" y="448"/>
      <point x="50" y="277" type="curve" smooth="yes"/>
      <point x="50" y="106"/>
      <point x="123" y="-13"/>
      <point x="270" y="-13" type="curve" smooth="yes"/>
      <point x="360" y="-13"/>
      <point x="422" y="43"/>
      <point x="467" y="129" type="curve"/>
      <point x="464" y="168" type="line"/>
      <point x="410" y="88"/>
      <point x="359" y="53"/>
      <point x="281" y="53" type="curve" smooth="yes"/>
      <point x="184" y="53"/>
      <point x="144" y="127"/>
      <point x="144" y="277" type="curve" smooth="yes"/>
      <point x="144" y="435"/>
      <point x="192" y="509"/>
      <point x="289" y="509" type="curve" smooth="yes"/>
      <point x="362" y="509"/>
      <point x="411" y="471"/>
      <point x="462" y="397" type="curve"/>
      <point x="469" y="438" type="line"/>
      <point x="426" y="522"/>
      <point x="365" y="575"/>
    </contour>
    <contour>
      <point x="536" y="105" type="curve" smooth="yes"/>
      <point x="536" y="565" type="line"/>
      <point x="476" y="565" type="line"/>
      <point x="447" y="455" type="line"/>
      <point x="447" y="455" type="line"/>
      <point x="447" y="126" type="line"/>
      <point x="447" y="120" type="line"/>
      <point x="471" y="0" type="line"/>
      <point x="627" y="0" type="line"/>
      <point x="627" y="58" type="line"/>
      <point x="617" y="60" type="line" smooth="yes"/>
      <point x="566" y="70"/>
      <point x="536" y="76"/>
    </contour>
  </outline>
</glyph>
<glyph name="breve_grave.uc" format="2">
  <advance width="542"/>
  <outline>
    <contour>
      <point x="216" y="1103" type="line" smooth="yes"/>
      <point x="195" y="1129"/>
      <point x="176" y="1150"/>
      <point x="145" y="1150" type="curve" smooth="yes"/>
      <point x="114" y="1150"/>
      <point x="92" y="1125"/>
      <point x="92" y="1101" type="curve" smooth="yes"/>
      <point x="92" y="1072"/>
      <point x="119" y="1051"/>
      <point x="152" y="1033" type="curve" smooth="yes"/>
      <point x="266" y="972" type="line"/>
      <point x="304" y="972" type="line"/>
      <point x="304" y="998" type="line"/>
    </contour>
    <component base="breve.uc"/>
  </outline>
</glyph>
<glyph name="breve_hook" format="2">
  <advance width="515"/>
  <outline>
    <contour>
      <point x="109" y="996" type="line"/>
      <point x="113" y="1069"/>
      <point x="178" y="1106"/>
      <point x="261" y="1106" type="curve" smooth="yes"/>
      <point x="349" y="1106"/>
      <point x="407" y="1074"/>
      <point x="407" y="1002" type="curve" smooth="yes"/>
      <point x="407" y="918"/>
      <point x="345" y="902"/>
      <point x="244" y="902" type="curve"/>
      <point x="294" y="941" type="line"/>
      <point x="294" y="854" type="line"/>
      <point x="216" y="854" type="line"/>
      <point x="216" y="940" type="line"/>
      <point x="292" y="941"/>
      <point x="323" y="947"/>
      <point x="323" y="1002" type="curve" smooth="yes"/>
      <point x="323" y="1039"/>
      <point x="306" y="1051"/>
      <point x="261" y="1051" type="curve" smooth="yes"/>
      <point x="215" y="1051"/>
      <point x="195" y="1039"/>
      <point x="193" y="996" type="curve"/>
    </contour>
    <contour>
      <point x="250" y="665" type="curve" smooth="yes"/>
      <point x="141" y="665"/>
      <point x="92" y="705"/>
      <point x="93" y="833" type="curve"/>
      <point x="163" y="833" type="line"/>
      <point x="164" y="749"/>
      <point x="180" y="739"/>
      <point x="253" y="739" type="curve" smooth="yes"/>
      <point x="326" y="739"/>
      <point x="341" y="749"/>
      <point x="342" y="833" type="curve"/>
      <point x="407" y="833" type="line"/>
      <point x="408" y="705"/>
      <point x="359" y="665"/>
    </contour>
  </outline>
</glyph>
<glyph name="breve_hook.uc" format="2">
  <advance width="527"/>
  <outline>
    <contour>
      <point x="107" y="1086" type="line"/>
      <point x="111" y="1159"/>
      <point x="176" y="1196"/>
      <point x="259" y="1196" type="curve" smooth="yes"/>
      <point x="347" y="1196"/>
      <point x="405" y="1166"/>
      <point x="405" y="1094" type="curve" smooth="yes"/>
      <point x="405" y="1010"/>
      <point x="343" y="996"/>
      <point x="242" y="996" type="curve"/>
      <point x="292" y="1035" type="line"/>
      <point x="292" y="950" type="line"/>
      <point x="214" y="950" type="line"/>
      <point x="214" y="1034" type="line"/>
      <point x="290" y="1035"/>
      <point x="321" y="1039"/>
      <point x="321" y="1094" type="curve" smooth="yes"/>
      <point x="321" y="1131"/>
      <point x="304" y="1141"/>
      <point x="259" y="1141" type="curve" smooth="yes"/>
      <point x="213" y="1141"/>
      <point x="193" y="1129"/>
      <point x="191" y="1086" type="curve"/>
    </contour>
    <contour>
      <point x="251" y="797" type="curve" smooth="yes"/>
      <point x="142" y="797"/>
      <point x="79" y="845"/>
      <point x="76" y="968" type="curve"/>
      <point x="146" y="968" type="line"/>
      <point x="150" y="894"/>
      <point x="174" y="876"/>
      <point x="251" y="876" type="curve" smooth="yes"/>
      <point x="333" y="876"/>
      <point x="357" y="894"/>
      <point x="360" y="968" type="curve"/>
      <point x="425" y="968" type="line"/>
      <point x="423" y="845"/>
      <point x="362" y="797"/>
    </contour>
  </outline>
</glyph>
<glyph name="brevecyr" format="2">
  <advance width="500"/>
  <outline>
    <contour>
      <point x="250" y="665" type="curve" smooth="yes"/>
      <point x="369.4140127389" y="665"/>
      <point x="423.0000058658" y="704.9992491784"/>
      <point x="422" y="833" type="curve"/>
      <point x="342" y="833" type="line"/>
      <point x="340.8510846501" y="736.4911106063"/>
      <point x="326" y="725"/>
      <point x="253" y="725" type="curve" smooth="yes"/>
      <point x="180" y="725"/>
      <point x="164.1489153499" y="736.4911106063"/>
      <point x="163" y="833" type="curve"/>
      <point x="78" y="833" type="line"/>
      <point x="77" y="705"/>
      <point x="130.5859872611" y="665"/>
    </contour>
  </outline>
</glyph>
<glyph name="brevecyr.uc" format="2">
  <advance width="500"/>
  <outline>
    <contour>
      <point x="251" y="797" type="curve" smooth="yes"/>
      <point x="363.9137931034" y="797"/>
      <point x="426.0000058737" y="845.0003612307"/>
      <point x="428" y="968" type="curve"/>
      <point x="343" y="968" type="line"/>
      <point x="340.0000716726" y="879.0021262864"/>
      <point x="315.5957446809" y="857"/>
      <point x="251" y="857" type="curve" smooth="yes"/>
      <point x="186.4505494505" y="857"/>
      <point x="166.9996580473" y="879.0060867579"/>
      <point x="162" y="968" type="curve"/>
      <point x="72" y="968" type="line"/>
      <point x="74.9999804006" y="845.000803574"/>
      <point x="139.5085714286" y="797"/>
    </contour>
  </outline>
</glyph>
<glyph name="circumflex.uc" format="2">
  <advance width="500"/>
  <outline>
    <contour>
      <point x="287" y="958" type="line"/>
      <point x="423" y="802" type="line"/>
      <point x="423" y="782" type="line"/>
      <point x="373" y="782" type="line"/>
      <point x="191" y="917" type="line"/>
      <point x="304" y="922" type="line"/>
      <point x="118" y="782" type="line"/>
      <point x="78" y="782" type="line"/>
      <point x="78" y="802" type="line"/>
      <point x="213" y="958" type="line"/>
    </contour>
  </outline>
</glyph>
<glyph name="circumflex_acute" format="2">
  <advance width="539"/>
  <outline>
    <contour>
      <point x="469" y="946" type="curve" smooth="yes"/>
      <point x="408" y="827" type="line"/>
      <point x="408" y="801" type="line"/>
      <point x="436" y="801" type="line"/>
      <point x="550" y="890" type="line" smooth="yes"/>
      <point x="575" y="909"/>
      <point x="593" y="933"/>
      <point x="593" y="958" type="curve" smooth="yes"/>
      <point x="593" y="983"/>
      <point x="574" y="1006"/>
      <point x="540" y="1006" type="curve" smooth="yes"/>
      <point x="506" y="1006"/>
      <point x="485" y="978"/>
    </contour>
    <component base="circumflex"/>
  </outline>
</glyph>
<glyph name="circumflex_hook.uc" format="2">
  <advance width="542"/>
  <outline>
    <contour>
      <point x="333" y="1048" type="line"/>
      <point x="337" y="1121"/>
      <point x="398" y="1158"/>
      <point x="488" y="1158" type="curve" smooth="yes"/>
      <point x="580" y="1158"/>
      <point x="637" y="1127"/>
      <point x="637" y="1052" type="curve" smooth="yes"/>
      <point x="637" y="969"/>
      <point x="573" y="951"/>
      <point x="472" y="949" type="curve"/>
      <point x="522" y="988" type="line"/>
      <point x="522" y="899" type="line"/>
      <point x="444" y="899" type="line"/>
      <point x="444" y="987" type="line"/>
      <point x="520" y="988"/>
      <point x="553" y="996"/>
      <point x="553" y="1052" type="curve" smooth="yes"/>
      <point x="553" y="1092"/>
      <point x="533" y="1103"/>
      <point x="488" y="1103" type="curve" smooth="yes"/>
      <point x="440" y="1103"/>
      <point x="419" y="1091"/>
      <point x="417" y="1048" type="curve"/>
    </contour>
    <component base="circumflex.uc"/>
  </outline>
</glyph>
